<svg width="288" height="288" viewBox="0 0 288 288" fill="none" xmlns="http://www.w3.org/2000/svg">
<path d="M161.539 218.017C161.429 218.047 161.334 218.121 161.278 218.22C161.221 218.32 161.206 218.439 161.237 218.549C161.267 218.66 161.341 218.754 161.441 218.811C161.541 218.868 161.659 218.882 161.77 218.852C165.409 218.055 168.82 216.445 171.749 214.143C182.88 205.921 182.304 194.257 188.64 183.586C193.709 175.45 198.158 176.386 197.813 175.335C197.8 175.294 197.779 175.255 197.75 175.222C197.722 175.189 197.687 175.162 197.648 175.143C197.609 175.124 197.566 175.114 197.523 175.112C197.479 175.11 197.436 175.118 197.395 175.133C177.466 182.463 188.727 208.599 161.539 218.017ZM242.194 192.413C242.755 191.823 243.317 191.204 243.864 190.585C248.098 185.444 251.064 177.481 250.776 171.62C250.769 171.557 250.744 171.497 250.705 171.447C250.666 171.397 250.614 171.358 250.554 171.336C250.495 171.314 250.43 171.308 250.368 171.32C250.305 171.332 250.247 171.361 250.2 171.404C249.768 171.821 250.978 174.125 247.939 181.383C245.059 188.266 242.539 190.023 239.703 193.234C237.161 196.169 235.229 199.58 234.02 203.268C232.811 206.957 232.349 210.85 232.661 214.719C232.677 214.8 232.722 214.874 232.786 214.926C232.85 214.979 232.931 215.007 233.014 215.007C233.097 215.007 233.177 214.979 233.242 214.926C233.306 214.874 233.35 214.8 233.366 214.719C233.268 210.599 233.998 206.502 235.515 202.67C237.031 198.838 239.303 195.35 242.194 192.413ZM115.762 130.234C117.202 129.241 117.101 126.202 115.762 125.079C115.383 124.773 114.942 124.555 114.469 124.439C113.996 124.324 113.504 124.314 113.027 124.41C112.55 124.506 112.1 124.706 111.709 124.996C111.318 125.286 110.995 125.659 110.765 126.087C110.498 126.757 110.45 127.494 110.627 128.193C110.805 128.892 111.2 129.517 111.755 129.978C112.31 130.438 112.997 130.711 113.717 130.757C114.437 130.804 115.152 130.62 115.762 130.234ZM111.802 126.937C112.234 125.295 115.071 125.065 115.503 126.706C115.791 127.829 115.661 128.621 115.085 129.053C114.739 129.269 114.345 129.396 113.938 129.423C113.532 129.451 113.124 129.378 112.752 129.212C112.362 128.993 112.057 128.65 111.885 128.238C111.713 127.826 111.683 127.368 111.802 126.937ZM164.966 103.594C164.911 103.59 164.856 103.598 164.803 103.616C164.751 103.635 164.703 103.664 164.663 103.702C164.622 103.74 164.59 103.785 164.568 103.836C164.546 103.887 164.534 103.942 164.535 103.997C164.535 105.437 162.101 106.877 161.655 107.021C161.569 107.042 161.495 107.097 161.449 107.172C161.403 107.248 161.389 107.339 161.41 107.425C161.431 107.511 161.485 107.585 161.561 107.631C161.636 107.677 161.727 107.69 161.813 107.669C165.6 106.892 166.176 103.565 164.966 103.594ZM159.912 101.391C159.739 101.29 158.976 100.729 158.703 100.513C158.703 100.325 159.379 97.9207 159.509 97.4599C159.638 96.9991 159.048 96.8839 158.89 97.2583C158.287 98.4257 157.805 99.6511 157.45 100.916C157.565 101.333 159.567 101.881 159.711 101.881C159.77 101.889 159.831 101.877 159.884 101.847C159.936 101.817 159.977 101.77 160 101.714C160.023 101.658 160.027 101.596 160.011 101.537C159.995 101.479 159.96 101.428 159.912 101.391ZM155.16 93.6727C155.139 93.5482 155.075 93.4351 154.979 93.3535C154.883 93.272 154.761 93.2272 154.635 93.2272C154.508 93.2272 154.386 93.272 154.29 93.3535C154.194 93.4351 154.13 93.5482 154.109 93.6727C154.054 94.6655 154.054 95.6607 154.109 96.6535C154.199 96.8011 154.336 96.9144 154.498 96.9755C154.66 97.0366 154.837 97.0419 155.003 96.9907C155.168 96.9395 155.311 96.8346 155.41 96.6927C155.509 96.5507 155.558 96.3799 155.549 96.2071C155.349 95.3745 155.219 94.5268 155.16 93.6727ZM165.226 96.1927C165.041 95.367 164.911 94.5299 164.837 93.6871C164.837 93.5458 164.781 93.4103 164.681 93.3103C164.581 93.2104 164.445 93.1543 164.304 93.1543C164.163 93.1543 164.027 93.2104 163.927 93.3103C163.827 93.4103 163.771 93.5458 163.771 93.6871C163.719 94.6464 163.719 95.6078 163.771 96.5671C163.779 96.6786 163.812 96.7869 163.866 96.8845C163.921 96.9821 163.996 97.0664 164.087 97.1317C164.178 97.1969 164.282 97.2414 164.392 97.2621C164.501 97.2827 164.615 97.279 164.723 97.2511C164.831 97.2232 164.932 97.1719 165.018 97.1008C165.104 97.0297 165.174 96.9405 165.222 96.8396C165.27 96.7386 165.295 96.6283 165.296 96.5166C165.296 96.4048 165.272 96.2942 165.226 96.1927Z" fill="black"/>
<path d="M277.92 76.5801C277.819 67.6089 274.81 64.0665 265.522 64.3401C262.872 64.3401 215.626 64.8153 212.242 64.9305C209.973 64.9311 207.728 65.3967 205.646 66.2985C204.451 66.7737 198.202 69.8985 197.511 71.5545C196.762 72.7353 197.64 106.374 197.511 113.315C196.51 112.745 195.482 112.226 194.429 111.759C194.239 110.813 193.835 109.923 193.248 109.157C192.662 108.391 191.908 107.769 191.045 107.339C189.72 106.82 188.021 107.439 187.042 106.503C186.062 105.567 187.819 105.063 188.007 103.623C188.001 102.625 187.885 101.63 187.661 100.657C186.793 95.437 185.581 90.2801 184.032 85.2201C182.736 81.0585 181.383 77.5305 177.653 75.2697C177.653 68.2713 176.947 27.2601 176.559 25.0857C176.175 22.9398 175.031 21.004 173.335 19.6339C171.64 18.2637 169.507 17.551 167.328 17.6265C167.184 17.6265 68.0833 17.6265 67.9681 17.7417C64.0081 20.1033 62.9425 25.3737 62.6833 29.2617C62.5969 31.2057 64.2961 70.4601 64.9729 82.9305C57.9601 83.0745 22.5361 84.0249 20.5057 85.1049C15.9121 86.2281 10.8289 89.4249 9.8353 94.6233C9.2161 97.9641 10.4689 162.145 10.8865 165.183C11.1856 168.465 12.652 171.531 15.0193 173.823C17.5969 176.084 21.1105 176.502 24.2065 176.617L89.9137 175.379C83.4913 189.923 76.0897 210.543 71.1937 223.374C71.1707 223.41 71.1585 223.453 71.1585 223.496C71.1585 223.539 71.1707 223.582 71.1937 223.619C72.5187 224.92 73.9653 226.092 75.5137 227.118C73.1665 235.139 73.4257 235.585 72.9073 236.233C68.4577 241.691 63.0865 244.873 57.7873 245.391C55.3249 245.665 52.8913 246.097 52.0273 248.487C51.3217 250.662 53.1937 252.116 55.3825 252.721C56.8225 253.11 66.6433 255.284 68.0977 255.457C69.3865 255.673 70.7087 255.379 71.7841 254.636C72.8209 253.873 76.2337 249.841 77.5441 248.631C75.1681 260.151 73.5121 256.479 79.1713 258.942C79.2503 258.984 79.3377 259.008 79.4272 259.012C79.5166 259.017 79.6059 259.001 79.6886 258.966C79.7712 258.932 79.8452 258.88 79.9052 258.813C79.9651 258.747 80.0096 258.668 80.0353 258.582C81.0433 255.702 87.8689 239.243 90.6481 234.966C91.3249 252.361 91.2097 251.454 91.4545 251.526C92.4193 251.771 93.4705 252.001 94.5505 252.217C94.5505 254.636 94.6225 257.113 94.8241 259.82C94.8241 259.907 94.7089 260.051 94.5937 260.281C91.0225 268.115 87.0193 271.311 82.6705 273.241C80.7409 274.105 78.0769 275.286 78.1489 277.95C78.1489 280.254 80.5105 280.988 82.8001 280.902C86.2417 280.787 90.6913 280.326 92.7073 280.225C98.4673 279.879 98.6113 278.785 101.059 273.846C101.621 272.708 102.283 271.355 102.658 270.692C103.335 278.785 102.442 279.98 103.551 279.923C106.56 279.764 107.871 280.585 107.871 279.505C107.986 276.539 109.311 264.875 110.002 262.009C110.002 261.678 109.771 261.491 109.426 261.419C109.858 258.74 110.866 253.47 110.995 252.505C111.715 252.404 112.435 252.289 112.997 252.159C113.155 252.159 112.997 252.923 115.431 242.886C132.912 249.783 151.56 251.439 168.293 247.508C168.883 249.798 173.16 265.407 175.493 272.247C176.288 274.482 177.347 276.614 178.646 278.598C178.978 278.915 179.539 279.476 180.087 279.476C180.634 279.476 181.238 278.713 181.383 277.935C181.527 277.158 179.266 254.449 178.503 246.255C181.924 245.408 185.241 244.186 188.395 242.612L193.061 258.107C193.197 258.337 193.403 258.52 193.649 258.627C193.894 258.735 194.167 258.763 194.43 258.708C194.692 258.652 194.931 258.515 195.111 258.317C195.292 258.119 195.406 257.869 195.437 257.603L194.991 239.041C197.171 237.62 199.258 236.062 201.24 234.375C202.14 235.245 203.152 235.991 204.25 236.593C204.363 236.655 204.495 236.67 204.619 236.635C204.743 236.6 204.849 236.518 204.912 236.406C206.11 234.595 207.453 232.885 208.93 231.294C208.642 233.151 208.08 236.953 208.008 238.134C208.006 238.21 208.02 238.286 208.048 238.356C208.076 238.427 208.119 238.492 208.172 238.545C208.226 238.599 208.291 238.642 208.361 238.67C208.432 238.698 208.508 238.712 208.584 238.71C210.113 238.662 211.64 238.861 213.106 239.3C208.411 241.561 206.266 243.476 206.554 245.06C207.116 247.889 207.906 250.667 208.915 253.369C209.693 255.615 210.499 257.948 212.919 258.927C224.007 263.622 240.48 260.195 251.611 255.515C261.058 251.814 262.44 245.823 261.605 237.356C261.432 235.743 259.56 235.556 255.629 235.657L265.205 223.547C268.085 220.105 265.579 220.22 264.672 213.467C265.54 214.752 266.582 215.91 267.768 216.908C267.839 216.963 267.92 217.003 268.007 217.026C268.093 217.048 268.184 217.052 268.272 217.038C268.661 216.966 268.358 217.167 271.93 210.745C271.998 210.628 272.023 210.491 272.002 210.357C271.981 210.224 271.915 210.101 271.814 210.011C270.245 208.715 266.458 205.691 266.458 205.691C268.41 205.229 270.333 204.652 272.218 203.963C272.667 203.847 273.074 203.605 273.39 203.266C273.706 202.926 273.919 202.504 274.003 202.047C274.19 200.924 274.205 178.302 274.234 175.22C274.234 174.716 273.427 174.572 273.341 175.119C271.656 186.539 263.923 196.043 254.045 198.879C254.362 197.598 255.168 194.819 254.722 194.055C253.093 193.03 251.36 192.181 249.552 191.521C251.352 190.499 255.514 187.835 255.816 187.014C256.003 186.539 255.082 164.319 255.039 161.886C255.031 161.785 254.993 161.69 254.928 161.613C254.863 161.536 254.776 161.482 254.678 161.458C254.58 161.434 254.478 161.441 254.385 161.48C254.291 161.518 254.213 161.584 254.16 161.67C251.372 167.175 247.248 171.893 242.165 175.393C241.575 175.796 237.327 178.057 236.995 178.359C235.93 179.382 237.255 180.635 237.816 181.427C238.219 181.974 239.602 183.831 239.875 184.22C234.807 184.839 233.467 183.097 233.208 184.22C232.71 185.687 232.038 187.089 231.206 188.396C231.503 189.658 231.883 190.899 232.344 192.111C231.5 192.25 230.639 192.25 229.795 192.111C229.645 192.079 229.488 192.104 229.355 192.181C229.222 192.258 229.122 192.382 229.075 192.529C228.672 193.839 228.355 194.934 228.067 195.956C226.322 192.996 224.398 190.144 222.307 187.417C221.285 179.612 217.598 170.497 209.808 169.287C215.669 166.839 219.514 160.547 220.435 154.167C223.2 154.167 263.146 154.052 264.758 154.167C273.499 154.412 277.402 151.071 278.223 142.158C278.554 138.601 277.92 77.2281 277.92 76.5801ZM79.0705 248.027C79.1068 247.874 79.0839 247.713 79.0064 247.577C78.9289 247.441 78.8026 247.339 78.6529 247.292C77.4865 246.86 76.5937 247.883 75.9457 248.617C74.3053 250.614 72.5041 252.473 70.5601 254.175C69.4801 254.694 56.9089 252.087 55.3393 251.598C54.4944 251.406 53.7594 250.889 53.2945 250.158C53.1126 249.626 53.1325 249.047 53.3502 248.529C53.5679 248.011 53.9683 247.591 54.4753 247.35C55.5841 246.673 56.4049 246.731 59.5153 246.155C62.6257 245.579 65.7073 245.017 71.1217 239.919C71.876 239.197 72.5786 238.422 73.2241 237.601C74.1232 239.6 75.6366 241.259 77.5441 242.339C80.0996 243.473 82.9537 243.751 85.6801 243.131C84.2401 246.011 80.2657 255.011 79.2721 257.761C78.4801 257.444 77.6737 257.156 76.8817 256.926C77.7736 254.002 78.5043 251.031 79.0705 248.027ZM205.531 169.172C203.506 169.259 201.494 169.548 199.527 170.036C193.077 170.765 186.592 171.14 180.101 171.159C179.15 165.399 179.439 166.465 179.194 164.867C179.093 164.175 178.949 163.225 179.453 162.923C186.351 159.841 193.522 157.047 200.391 154.038C201.831 155.089 201.946 154.959 202.075 154.873C202.137 154.806 202.171 154.719 202.171 154.628C202.171 154.537 202.137 154.45 202.075 154.383C201.513 153.815 200.922 153.277 200.304 152.771C194.776 147.827 190.926 141.284 189.288 134.051C189.269 133.965 189.217 133.89 189.142 133.843C189.068 133.795 188.978 133.779 188.892 133.799C188.806 133.818 188.731 133.87 188.684 133.944C188.637 134.019 188.621 134.109 188.64 134.195C189.86 141.717 193.751 148.547 199.599 153.433L179.741 161.641C179.167 161.809 178.662 162.158 178.301 162.635C177.307 162.364 176.409 161.82 175.709 161.065C171.965 158.055 170.467 160.115 165.629 163.945C165.161 164.298 164.719 164.683 164.304 165.097C161.746 162.822 159.198 160.537 156.658 158.243C156.01 157.292 150.106 136.931 147.686 128.751C149.557 124.217 152.574 120.247 156.442 117.231C156.889 118.597 157.453 119.922 158.126 121.191C159.206 122.228 160.603 121.724 161.957 121.393C161.584 122.167 161.369 123.007 161.324 123.865C161.28 124.723 161.407 125.581 161.698 126.39C162.717 128.675 164.309 130.659 166.32 132.15C171.245 136.47 171 136.355 171.288 136.355C171.421 136.348 171.547 136.293 171.642 136.2C171.738 136.108 171.796 135.983 171.807 135.851C172.296 130.825 173.909 129.443 178.459 127.844C180.948 127.032 183.054 125.337 184.38 123.08C185.706 120.823 186.161 118.159 185.659 115.59C188.669 115.613 191.668 115.225 194.573 114.438C194.71 114.407 194.83 114.323 194.905 114.204C194.981 114.085 195.006 113.942 194.976 113.804C194.976 113.559 194.875 113.271 194.803 112.969C215.813 123.179 228.615 154.988 211.666 166.811C209.822 168.045 207.727 168.852 205.531 169.172ZM210.37 170.814C214.07 171.606 217.167 174.716 219.183 180.188C228.802 206.18 206.381 237.673 178.546 244.988C178.373 243.246 177.423 233.137 177.235 232.388C177.097 231.727 176.717 231.142 176.17 230.747C174.398 229.767 171.36 230.847 169.747 231.798C168.21 232.818 166.836 234.066 165.672 235.499C165.672 235.959 167.688 244.643 168.12 246.414C150.618 250.074 132.427 248.512 115.805 241.921C118.368 231.265 121.767 216.678 122.717 212.156C132.624 215.238 146.549 214.95 146.693 214.935C146.739 214.923 146.78 214.896 146.809 214.858C146.838 214.821 146.854 214.774 146.854 214.727C146.854 214.679 146.838 214.633 146.809 214.595C146.78 214.557 146.739 214.53 146.693 214.518C138.701 211.854 131.803 204.985 127.282 195.164C120.326 180.491 105.898 180.663 100.282 187.964C92.1601 198.505 90.8497 229.177 90.7201 232.878C90.2161 233.799 87.3217 239.459 86.2273 241.763C77.5873 243.822 75.1249 238.883 74.0737 236.766C73.9009 236.406 73.9873 237.356 76.6657 227.895C78.1057 228.601 88.3441 232.215 88.3585 231.15C88.4737 218.91 91.4401 189.793 99.4753 183.097C105.235 178.374 117.691 179.195 123.206 183.284C126.713 186.485 129.581 190.32 131.659 194.588C136.282 204.51 144.245 211.868 153.087 213.711C164.419 212.718 177.566 194.66 181.325 183.111C188.266 174.313 199.714 169.273 210.37 170.814ZM232.906 229.379C232.925 229.464 232.977 229.539 233.052 229.587C233.126 229.634 233.216 229.65 233.302 229.631C233.388 229.611 233.462 229.559 233.51 229.485C233.557 229.41 233.573 229.32 233.554 229.235C232.647 224.598 230.083 220.595 228.471 216.275C225.677 208.887 227.707 200.953 230.069 193.451C231.122 193.647 232.211 193.506 233.179 193.047C233.971 192.428 233.338 191.377 232.445 188.727C233.179 187.617 233.756 186.41 234.159 185.142C236.409 185.674 238.75 185.704 241.013 185.228C241.101 185.206 241.182 185.163 241.25 185.103C241.318 185.043 241.372 184.968 241.405 184.884C241.439 184.8 241.452 184.709 241.444 184.618C241.436 184.528 241.407 184.441 241.359 184.364C240.394 183.097 237.845 179.627 237.715 179.367C237.586 179.108 237.715 179.137 238.133 178.95C245.016 175.817 250.66 170.482 254.174 163.787C254.347 168.495 254.909 186.02 254.751 186.726C252.513 188.345 250.154 189.789 247.695 191.046C247.587 191.105 247.5 191.195 247.444 191.304C247.387 191.413 247.365 191.536 247.379 191.658C247.392 191.78 247.442 191.895 247.521 191.988C247.601 192.082 247.706 192.15 247.824 192.183C249.861 192.88 251.836 193.747 253.728 194.775C253.987 195.193 253.08 198.491 252.922 199.34L251.482 199.628C251.338 199.666 251.215 199.757 251.137 199.883C251.06 200.009 251.033 200.16 251.064 200.305C251.439 202.854 252.288 209.132 252.288 209.132C248.155 205.287 248.184 203.156 247.291 203.07C247.203 203.059 247.113 203.07 247.03 203.103C246.947 203.135 246.873 203.188 246.816 203.257C240.045 211.114 236.244 221.096 236.074 231.467C236.09 231.544 236.132 231.614 236.194 231.664C236.256 231.715 236.333 231.742 236.412 231.742C236.492 231.742 236.569 231.715 236.63 231.664C236.692 231.614 236.734 231.544 236.751 231.467C237.293 221.654 240.933 212.267 247.147 204.654C248.579 207.121 250.46 209.299 252.691 211.076C252.786 211.161 252.906 211.213 253.032 211.226C253.159 211.238 253.286 211.211 253.396 211.147C253.506 211.083 253.593 210.987 253.645 210.87C253.697 210.754 253.711 210.625 253.685 210.5C253.685 210.5 252.648 203.487 252.245 200.636C262.051 198.894 270.475 190.556 273.312 179.929C273.312 185.847 273.111 200.521 273.111 200.665C273.111 201.601 273.111 202.494 272.275 202.911C269.914 203.741 267.51 204.448 265.075 205.028C264.976 205.054 264.885 205.107 264.812 205.18C264.74 205.254 264.688 205.345 264.663 205.445C264.638 205.545 264.641 205.65 264.67 205.749C264.7 205.848 264.755 205.937 264.831 206.007C265.507 206.555 269.395 209.737 270.677 210.759C270.677 210.759 268.92 214.115 268.027 215.771C266.567 214.42 265.358 212.82 264.456 211.047C264.398 210.947 264.308 210.868 264.2 210.823C264.093 210.778 263.973 210.77 263.861 210.799C263.748 210.829 263.648 210.894 263.576 210.986C263.504 211.077 263.464 211.19 263.463 211.307C263.866 220.926 266.947 219.673 264.399 222.827C255.615 233.871 254.074 237.443 244.613 240.236C246.514 231.596 253.023 228.097 255.629 221.862C257.069 218.449 256.752 214.662 257.89 211.235C258.682 208.856 259.976 206.676 261.686 204.842C263.395 203.008 265.48 201.564 267.797 200.607C267.881 200.579 267.95 200.518 267.989 200.438C268.028 200.359 268.034 200.267 268.006 200.183C267.977 200.099 267.916 200.029 267.837 199.99C267.757 199.951 267.665 199.945 267.581 199.974C264.563 201.038 261.9 202.92 259.889 205.409C257.878 207.899 256.598 210.897 256.191 214.071C255.571 218.492 255.701 220.667 252.936 224.54C249.883 228.788 244.887 232.547 243.274 240.596C240.77 241.22 238.207 241.577 235.627 241.662C235.325 239.084 233.741 237.572 232.618 237.515C231.581 235.7 220.651 219.068 216.619 215.425C221.078 207.401 223.128 198.261 222.523 189.102C224.251 191.651 227.203 196.431 227.722 197.367C222.696 216.75 230.904 219.659 232.906 229.379ZM210.197 230.012C210.196 229.911 210.167 229.811 210.112 229.726C210.057 229.64 209.979 229.573 209.886 229.53C209.794 229.488 209.692 229.473 209.591 229.487C209.49 229.501 209.396 229.543 209.318 229.609C207.477 231.437 205.805 233.427 204.322 235.556C203.474 235.061 202.678 234.482 201.946 233.828C205.426 230.804 208.582 227.426 211.363 223.748C226.656 242.094 225.922 241.561 226.354 241.215C226.388 241.192 226.416 241.163 226.439 241.128C226.461 241.094 226.476 241.055 226.482 241.015C226.489 240.974 226.487 240.933 226.478 240.893C226.468 240.853 226.45 240.816 226.426 240.783C225.418 239.257 215.151 226.383 212.026 222.769C213.51 220.718 214.866 218.578 216.087 216.361C221.846 221.991 230.789 236.809 231.624 238.206C230.829 239.349 230.457 240.734 230.573 242.123C228.754 242.631 226.842 242.714 224.986 242.367C222.783 241.935 214.546 237.889 209.146 237.731C209.491 236.161 210.038 231.366 210.24 230.012H210.197ZM172.498 231.841H172.743C173.866 231.582 175.622 231.193 176.04 232.331C176.256 233.108 180.605 276.063 180.605 277.388C180.628 277.597 180.605 277.808 180.538 278.007C180.471 278.206 180.361 278.388 180.216 278.54C176.472 277.1 167.256 238.897 166.896 235.657C168.347 233.862 170.296 232.534 172.498 231.841ZM19.1665 163.844C19.1665 160.547 16.9777 95.1705 17.1937 92.8089C17.5681 88.3593 19.1665 86.3577 22.6945 85.8969C26.4241 85.1769 61.2433 84.1833 65.0449 84.0825C65.1313 85.5225 65.2033 86.5305 65.2321 86.7177C65.3917 87.8506 65.932 88.8955 66.7643 89.6806C67.5965 90.4657 68.671 90.9443 69.8113 91.0377C69.8113 90.8937 68.8609 91.0377 98.6113 91.1385C98.6113 95.6313 98.8849 116.742 98.8993 117.735C90.4321 118.052 81.7057 118.398 80.0353 118.556C79.8049 118.556 79.6033 118.974 79.6897 119.175C82.1953 125.367 93.3553 150.51 96.4801 156.961C96.7716 157.694 97.2724 158.325 97.9201 158.775C98.3233 159.38 98.7985 160.057 99.3601 160.734C94.7953 164.377 93.1537 168.409 90.5041 174.313C78.3073 174.572 28.8721 175.595 27.7633 175.551C24.6817 175.422 22.5073 174.529 21.1537 172.83C19.0945 170.382 19.1809 167.041 19.1665 163.844ZM185.76 106.331C186.062 107.425 187.2 108.015 188.957 108.059C191.981 107.929 193.277 110.535 193.824 113.531C190.88 114.106 187.894 114.438 184.896 114.524C184.809 114.525 184.724 114.546 184.647 114.586C184.569 114.625 184.502 114.682 184.451 114.752C184.399 114.821 184.364 114.902 184.349 114.988C184.334 115.073 184.339 115.161 184.363 115.244C184.823 116.888 184.827 118.626 184.376 120.272C183.925 121.918 183.034 123.411 181.8 124.59C177.926 128.319 171.72 126.26 170.813 134.857C169.517 133.734 164.722 129.659 163.742 128.463C162.058 126.519 161.381 123.294 163.109 121.263C166.809 120.659 170.549 120.326 174.298 120.27C174.382 120.27 174.462 120.236 174.522 120.177C174.581 120.118 174.615 120.037 174.615 119.953C174.615 119.869 174.581 119.788 174.522 119.729C174.462 119.67 174.382 119.636 174.298 119.636C169.985 119.33 165.65 119.641 161.424 120.558C159.811 121.004 159.019 121.321 158.299 119.809C157.939 119.046 155.794 112.508 155.419 111.299C154.757 109.729 155.16 110.204 156.37 109.455C157.555 110.457 158.885 111.273 160.315 111.875C160.315 112.047 161.064 114.337 161.179 114.755C161.228 115.101 161.401 115.417 161.666 115.645C161.931 115.873 162.27 115.996 162.619 115.993C165.977 116.301 169.361 115.81 172.492 114.558C175.623 113.307 178.413 111.331 180.634 108.793C180.678 108.733 180.698 108.658 180.69 108.584C180.683 108.509 180.648 108.44 180.592 108.39C180.537 108.34 180.465 108.312 180.39 108.312C180.315 108.312 180.243 108.34 180.187 108.39C177.957 110.644 175.278 112.404 172.323 113.555C169.368 114.706 166.204 115.223 163.037 115.071C162.029 114.999 162.158 115.215 161.309 112.191C165.197 113.286 166.176 111.803 164.794 113.171C164.749 113.224 164.724 113.292 164.723 113.362C164.723 113.433 164.747 113.501 164.791 113.555C164.835 113.61 164.897 113.647 164.966 113.661C165.035 113.675 165.106 113.664 165.168 113.631C170.406 109.715 174.227 104.201 176.055 97.9209C176.068 97.8803 176.073 97.8374 176.069 97.7949C176.065 97.7523 176.053 97.7109 176.033 97.6733C176.012 97.6356 175.985 97.6024 175.951 97.5757C175.918 97.549 175.88 97.5292 175.839 97.5177C175.09 97.2585 175.594 98.7417 172.08 104.487C170.64 98.7273 171.605 92.6361 170.05 86.8473C170.029 86.7652 169.976 86.6948 169.903 86.6516C169.83 86.6084 169.743 86.5959 169.661 86.6169C169.579 86.6379 169.508 86.6907 169.465 86.7636C169.422 86.8365 169.41 86.9236 169.431 87.0057C169.683 88.2308 169.846 89.4724 169.92 90.7209C166.853 87.6825 160.373 82.8297 155.261 83.9385C154.16 83.9725 153.116 84.4388 152.356 85.2365C151.596 86.0343 151.181 87.0993 151.2 88.2009C149.962 86.5305 150.826 83.9817 151.949 82.5705C154.915 78.6969 160.186 76.8105 165.442 75.3705C170.093 74.1321 176.314 74.3049 179.842 78.5097C181.372 80.6082 182.478 82.9856 183.096 85.5081C184.935 91.1928 186.218 97.0427 186.926 102.975C186.981 103.215 186.97 103.464 186.894 103.698C186.818 103.931 186.68 104.139 186.494 104.3C186.207 104.546 185.988 104.863 185.86 105.218C185.731 105.574 185.697 105.957 185.76 106.331ZM97.5313 156.615C96.1777 153.735 82.8001 124.071 80.6689 119.175C85.4353 119.175 139.219 117.203 140.155 117.174C141.984 123.049 152.64 158.531 152.64 158.833C152.64 158.833 139.91 159.15 133.042 159.423C121.45 153.577 110.722 154.211 102.917 158.343C98.5105 158.156 98.3089 158.243 97.5313 156.615ZM152.251 96.8841C152.05 92.5641 152.251 89.5545 152.928 89.2521C155.405 88.1289 160.027 87.8121 165.168 89.4393C165.816 89.6553 167.89 90.7353 169.978 91.6137C170.208 96.2217 169.978 101.103 171.418 105.567C170.145 107.799 168.51 109.804 166.579 111.5C157.867 112.652 152.64 105.683 152.223 96.8841H152.251ZM165.471 182.996C165.125 183.659 170.986 188.065 171.619 188.54C173.693 190.499 171.159 191.564 169.056 189.678C157.536 179.324 147.715 167.459 134.914 160.374C142.373 160.129 151.603 159.855 153.187 159.841C154.786 161.382 173.347 178.763 178.143 182.881C164.751 182.982 165.6 182.766 165.442 182.996H165.471ZM179.611 182.795C179.467 182.665 155.131 160.676 154.195 159.582C153.648 158.66 143.554 124.403 141.235 117.505C142.658 118.475 143.713 119.895 144.23 121.537C145.095 123.999 154.901 156.831 154.944 156.99C155.062 157.787 155.418 158.53 155.966 159.121C159.754 162.764 175.824 177.337 181.051 181.657C180.749 182.031 180.447 182.406 180.159 182.795H179.611ZM178.56 168.956C176.055 168.755 175.262 168.467 174.643 169.23C174.442 169.547 173.866 170.252 173.131 170.094C173.004 170.064 172.884 170.008 172.779 169.93C172.674 169.852 172.587 169.753 172.522 169.64C172.457 169.526 172.416 169.4 172.402 169.27C172.388 169.14 172.401 169.009 172.44 168.884C173.146 168.222 173.88 167.646 174.542 166.94C174.578 166.89 174.596 166.83 174.593 166.769C174.59 166.708 174.567 166.65 174.527 166.603C174.488 166.557 174.433 166.525 174.374 166.513C174.314 166.501 174.251 166.51 174.197 166.537C173.463 167.012 172.757 167.775 171.922 168.279C171.853 168.28 171.785 168.296 171.723 168.326C171.661 168.356 171.606 168.399 171.562 168.452C171.389 168.522 171.203 168.551 171.017 168.538C170.832 168.524 170.652 168.467 170.491 168.372C170.331 168.278 170.195 168.147 170.093 167.991C169.992 167.835 169.928 167.658 169.906 167.473C169.906 166.321 171.144 165.558 171.864 164.708C172.152 164.42 171.72 163.988 171.418 164.262C170.646 164.913 169.929 165.626 169.272 166.393C168.442 166.657 167.596 166.864 166.738 167.012C166.349 167.012 166.738 167.257 165.038 165.803C166.81 164.141 168.739 162.655 170.799 161.367C174.298 159.063 174.946 163.052 178.099 163.513C178.096 165.337 178.25 167.158 178.56 168.956ZM181.8 180.822L167.299 167.862C167.825 167.758 168.344 167.623 168.855 167.459C168.843 167.771 168.904 168.082 169.033 168.367C169.163 168.652 169.357 168.903 169.6 169.1C169.843 169.297 170.129 169.435 170.434 169.502C170.74 169.57 171.057 169.565 171.36 169.489C171.418 169.794 171.547 170.082 171.736 170.328C171.926 170.574 172.172 170.772 172.452 170.905C172.733 171.039 173.041 171.104 173.352 171.095C173.663 171.087 173.967 171.005 174.24 170.857C176.227 169.95 174.24 169.604 177.451 169.892C177.869 169.892 178.315 169.979 178.747 169.993C178.877 170.67 179.007 171.289 179.151 171.879C179.185 171.997 179.257 172.1 179.356 172.173C179.455 172.246 179.575 172.284 179.698 172.283C205.445 171.735 192.802 168.179 181.771 180.822H181.8ZM147.24 127.196C145.613 121.739 144.763 117.332 141.48 116.209C141.48 116.382 142.704 116.022 100.08 117.649C100.08 110.636 99.7777 93.6729 99.7345 91.0953H151.359C150.955 97.3305 151.359 104.055 155.678 108.692C155.16 108.894 154.238 109.326 154.023 109.686C154.554 112.013 155.266 114.295 156.154 116.511C152.29 119.238 149.199 122.919 147.182 127.196H147.24ZM141.322 82.6857C141.322 80.6697 140.861 69.8265 140.76 67.8393H144.432C144.432 69.8841 144.706 80.6841 144.792 82.6713C143.64 82.6425 142.474 82.6569 141.322 82.6857ZM120.226 83.1177C120.24 79.2009 119.736 46.0809 119.664 41.7609H123.336C123.336 52.7049 123.653 80.0793 123.711 83.0601L120.226 83.1177ZM97.5025 47.3193H101.189C101.189 56.7801 101.491 80.6697 101.563 83.5065H98.0785C98.0929 79.9641 97.5889 51.2649 97.5025 47.3193ZM66.2401 86.0841C66.0385 84.8601 64.3681 46.5129 63.6913 31.8249C63.5329 27.3033 64.7281 21.7449 67.7665 19.1673C67.7665 29.2473 69.0625 84.8745 69.3505 89.9145C68.503 89.67 67.7507 89.1719 67.1946 88.4871C66.6386 87.8024 66.3055 86.9638 66.2401 86.0841ZM198.36 74.1177C198.242 73.1778 198.467 72.2266 198.994 71.4393C200.121 70.5518 201.331 69.7754 202.608 69.1209C201.168 71.7129 201.543 70.993 202.306 116.497C201.118 115.592 199.883 114.75 198.605 113.977C198.461 106.719 198.389 80.3385 198.403 74.1177H198.36ZM210.946 90.1161C211.615 89.1664 212.504 88.3926 213.537 87.861C214.57 87.3294 215.717 87.0557 216.879 87.0633C222.739 87.0633 224.871 94.0329 226.023 99.7065C227.031 104.156 227.103 109.398 230.343 113.027C245.405 126.678 246.543 107.627 255.701 108.361C258.581 108.692 260.496 111.327 262.555 113.228C263.436 114.217 264.67 114.818 265.992 114.902C267.313 114.986 268.613 114.544 269.611 113.675V134.137C266.069 134.137 221.083 133.806 216.144 133.863C214.942 131.347 213.525 128.938 211.911 126.663C212.083 124.921 211.018 91.6713 210.989 90.1161H210.946ZM216.706 134.843C223.33 134.943 265.363 135.059 269.727 135.059C269.733 135.607 269.766 136.155 269.827 136.7C269.838 136.816 269.891 136.924 269.976 137.004C270.06 137.083 270.172 137.129 270.288 137.132C271.138 137.132 270.749 138.443 270.605 99.3897C270.605 99.2943 270.567 99.2027 270.499 99.1352C270.432 99.0677 270.34 99.0297 270.245 99.0297C270.149 99.0297 270.058 99.0677 269.99 99.1352C269.923 99.2027 269.885 99.2943 269.885 99.3897C269.885 101.953 269.727 110.42 269.712 112.091C269.382 112.611 268.933 113.046 268.402 113.359C267.871 113.673 267.273 113.856 266.658 113.894C266.042 113.932 265.427 113.823 264.861 113.578C264.296 113.332 263.797 112.955 263.405 112.479C259.243 108.159 255.125 104.559 249.106 110.118C244.181 115.201 241.474 119.492 234.706 115.1C231.965 113.64 229.9 111.172 228.946 108.217C226.671 100.052 227.304 87.4521 217.685 85.7817C216.399 85.6503 215.1 85.8362 213.903 86.3233C212.705 86.8103 211.645 87.5836 210.816 88.5753C210.816 86.3865 210.658 84.2553 210.571 82.0377C210.571 81.9461 210.535 81.8582 210.47 81.7934C210.405 81.7286 210.317 81.6921 210.226 81.6921C210.134 81.6921 210.046 81.7286 209.981 81.7934C209.917 81.8582 209.88 81.9461 209.88 82.0377C209.88 84.4281 210.629 117.807 210.859 125.137C208.64 122.233 206.088 119.599 203.256 117.289C203.256 111.803 202.767 76.1769 202.709 73.9737C202.623 69.9705 204.221 67.6521 207.907 66.6873C210.931 65.8521 265.306 65.0169 270.475 65.7225C273.902 66.1545 275.861 69.5097 276.351 72.4185C276.955 76.0329 277.128 135.779 277.143 136.571C277.258 143.627 276.423 151.676 269.078 152.67C267.423 152.9 226.455 153.001 220.507 152.943C220.691 146.697 219.399 140.495 216.734 134.843H216.706ZM174.542 22.7529C176.271 25.7769 175.291 24.9417 176.515 74.6793C170.554 71.9865 162.115 74.4633 156.355 77.5593V34.8921C156.355 34.5609 157.104 34.6617 152.035 34.6617C151.719 34.6617 151.747 31.6953 152.813 79.9497C151.949 80.7297 151.198 81.6264 150.581 82.6137H145.742C145.742 80.7417 145.195 67.4649 145.138 67.3497C145.121 67.2749 145.079 67.2081 145.019 67.1608C144.958 67.1136 144.883 67.0887 144.807 67.0905C143.251 67.0384 141.693 67.072 140.141 67.1913C140.095 67.2227 140.058 67.2663 140.036 67.3171C140.013 67.3679 140.004 67.4241 140.011 67.4793C140.011 68.9193 140.271 80.6121 140.371 82.6857L134.942 82.8009C135.216 58.2057 135.317 59.5017 134.942 59.4729C131.04 59.6313 130.954 59.5593 130.954 59.8473V82.8873L124.618 83.0169C124.618 79.8057 124.128 43.5177 124.027 41.4153C124.032 41.3206 124 41.2279 123.938 41.1557C123.877 41.0835 123.79 41.0374 123.696 41.0265C123.696 41.0265 119.189 41.0265 119.045 41.1705C118.627 41.5017 119.275 81.4905 119.275 83.1321L112.435 83.2617V61.7625C112.384 61.7425 112.328 61.7425 112.277 61.7625C108.302 61.7625 108.346 61.7625 108.346 62.0793V83.3481L102.499 83.5209C102.096 46.3401 101.765 47.0169 101.909 47.0169C101.91 46.9247 101.876 46.8355 101.815 46.7664C101.754 46.6973 101.669 46.6532 101.578 46.6425C101.578 46.6425 97.0993 46.6425 96.9553 46.7577C96.4657 47.0601 97.1569 81.0729 97.1569 83.6361L89.2369 83.7801C89.2801 27.6633 89.4385 30.2409 89.0641 30.2409L85.5361 30.3705C85.2913 30.3705 85.3777 26.9289 85.3777 83.8377C79.4449 83.9529 79.6177 83.8377 79.5313 84.0681C79.5036 84.1131 79.4882 84.1644 79.4865 84.2171C79.4848 84.2699 79.4969 84.3221 79.5217 84.3687C79.5464 84.4153 79.5829 84.4546 79.6276 84.4827C79.6722 84.5108 79.7234 84.5267 79.7761 84.5289C88.5169 84.5289 141.451 83.9961 150.077 83.7369C149.213 85.9401 149.371 88.3737 151.373 89.6553V89.9721C143.05 90.2169 71.8273 89.9721 70.5457 89.9721C70.5457 88.0857 68.9329 22.2057 68.9185 18.5193C78.8977 18.5193 166.839 18.6489 169.128 19.0233C170.251 19.2051 171.318 19.634 172.255 20.279C173.191 20.924 173.973 21.769 174.542 22.7529ZM17.5825 87.4089C15.9265 89.7993 15.8401 92.9097 15.8401 95.9193C15.8401 96.5817 17.8561 167.459 18.1585 169.187C18.3307 170.441 18.7694 171.643 19.4449 172.714C20.1205 173.784 21.0174 174.698 22.0753 175.393C20.3827 175.308 18.728 174.861 17.2225 174.083C14.0257 172.326 12.8161 168.711 12.3841 166.71C11.6209 163.11 10.6129 101.276 10.7857 98.0793C10.6849 92.7801 12.4849 89.9145 17.5537 87.4089H17.5825ZM233.583 250.259C239.346 249.857 244.993 248.433 250.258 246.054C254.002 244.326 258.667 241.59 260.597 239.415C260.899 246.212 259.517 250.604 252.533 253.815C243.288 258.135 221.357 263.435 211.882 257.113C211.032 256.292 209.002 250.057 208.195 247.177C212.328 249.927 224.367 250.993 233.554 250.259H233.583ZM103.349 269.123C102.139 269.022 101.563 270.231 101.16 271.11C97.7905 278.31 97.8337 278.771 94.4065 279.001C93.3265 279.073 83.1601 279.908 82.4113 279.908C79.7905 280.095 78.3361 278.295 80.1937 276.092C81.2527 275.293 82.4279 274.662 83.6785 274.22C87.6817 272.363 94.0177 267.452 95.4145 261.375C96.8599 263.073 98.8317 264.239 101.016 264.687C103.721 264.977 106.448 264.419 108.821 263.089C108.274 266.199 107.006 275.891 106.848 278.929C106.006 278.841 105.16 278.802 104.314 278.814C104.299 277.993 104.026 269.18 103.32 269.123H103.349ZM108.648 261.707C106.777 263.03 104.532 263.721 102.24 263.679C101.028 263.588 99.8474 263.248 98.7722 262.681C97.697 262.114 96.7501 261.331 95.9905 260.382C95.9905 259.935 95.8321 255.111 95.8753 252.519C100.541 252.887 105.224 252.979 109.901 252.793C109.671 254.06 108.936 259.201 108.619 261.707H108.648Z" fill="black"/>
<path d="M252 75.8303C252.082 75.8138 252.155 75.7696 252.207 75.7053C252.26 75.641 252.289 75.5606 252.289 75.4775C252.289 75.3945 252.26 75.314 252.207 75.2497C252.155 75.1854 252.082 75.1412 252 75.1247H249.581C231.48 75.6863 232.071 75.6719 232.085 76.1759C232.099 76.6799 231.538 76.7951 252 75.8303ZM252.605 79.1999C249.379 79.1999 236.765 79.3727 233.525 79.6319C233.411 79.6516 233.308 79.7108 233.234 79.7991C233.16 79.8873 233.119 79.999 233.119 80.1143C233.119 80.2296 233.16 80.3413 233.234 80.4295C233.308 80.5178 233.411 80.577 233.525 80.5967C236.823 80.5967 249.365 79.9487 252.619 79.8191C252.69 79.8022 252.752 79.7617 252.796 79.7043C252.841 79.6469 252.864 79.5761 252.862 79.5037C252.86 79.4313 252.834 79.3616 252.787 79.3064C252.74 79.2511 252.676 79.2135 252.605 79.1999ZM249.437 84.4991C247.191 84.5855 239.976 84.4991 233.093 84.4991C232.94 84.4991 232.794 84.5598 232.686 84.6678C232.578 84.7758 232.517 84.9223 232.517 85.0751C232.517 85.2279 232.578 85.3744 232.686 85.4824C232.794 85.5904 232.94 85.6511 233.093 85.6511C234.533 85.7519 248.04 85.1903 249.451 85.1327C249.535 85.1308 249.615 85.0956 249.673 85.0348C249.731 84.9741 249.763 84.8927 249.761 84.8087C249.759 84.7247 249.724 84.6449 249.663 84.5868C249.602 84.5287 249.521 84.4972 249.437 84.4991ZM203.04 12.5423C201.353 12.9567 199.809 13.8211 198.574 15.0434C197.339 16.2657 196.459 17.8 196.027 19.4831C194.429 25.6031 199.973 32.2703 206.352 31.2047C207.746 30.9103 209.066 30.3345 210.229 29.5124C211.393 28.6904 212.377 27.6394 213.12 26.4239C213.847 25.0824 214.259 23.5935 214.326 22.0694C214.394 20.5453 214.114 19.0259 213.509 17.6255C212.645 15.1487 210.082 11.1887 203.04 12.5423ZM206.525 24.6815C203.746 26.5967 200.491 23.1119 201.773 20.9663C204.077 17.1359 208.167 20.0303 208.267 21.4703C208.266 22.1096 208.104 22.7384 207.797 23.2993C207.49 23.8602 207.048 24.3354 206.511 24.6815H206.525ZM206.352 18.1295C205.38 17.8237 204.334 17.8486 203.378 18.2004C202.422 18.5521 201.609 19.2108 201.067 20.0735C200.624 20.8502 200.457 21.7539 200.593 22.6376C200.729 23.5214 201.16 24.3331 201.816 24.9407C202.339 25.4423 202.981 25.8014 203.682 25.9837C204.383 26.166 205.119 26.1654 205.82 25.9819C206.521 25.7984 207.163 25.4382 207.685 24.9357C208.206 24.4332 208.59 23.8053 208.8 23.1119C210.029 23.9179 211.404 24.4756 212.847 24.7535C212.337 25.9974 211.555 27.1113 210.558 28.0134C209.561 28.9155 208.375 29.5828 207.087 29.9663C201.327 31.6367 196.2 26.4095 196.848 20.7647C197.038 19.45 197.524 18.1957 198.269 17.0962C199.015 15.9968 200 15.0811 201.151 14.4182C202.302 13.7553 203.589 13.3626 204.914 13.2696C206.239 13.1766 207.568 13.3858 208.8 13.8815C207.66 15.0865 206.817 16.5411 206.338 18.1295H206.352Z" fill="black"/>
<path d="M190.08 37.2681C193.593 37.0809 257.933 36.5913 262.627 35.1945C266.241 34.5321 267.48 32.8617 267.293 29.2185C267.293 28.0089 267.494 14.1417 267.12 11.6793C266.789 8.64091 265.161 7.20091 261.734 7.01371C258.854 6.74011 192.11 7.77691 188.957 8.45371C186.393 8.95771 184.637 9.89371 184.291 12.7737C184.133 13.6521 184.824 29.9097 184.91 31.4937C185.112 34.9209 186.825 36.9513 190.08 37.2681ZM195.696 36.2889C194.848 36.1867 194.033 35.8973 193.311 35.4415C192.589 34.9857 191.977 34.3751 191.52 33.6537C190.505 31.9056 189.982 29.9151 190.008 27.8937C189.849 25.4457 189.389 16.3737 189.331 14.1849C189.331 13.2921 189.331 10.3257 191.52 9.26011C194.904 8.91451 257.947 7.97851 260.64 8.06491C262.08 8.06491 264.024 8.18011 265.118 9.28891C266.731 10.9161 266.213 13.6089 266.313 29.0889C266.63 33.0345 265.133 33.8985 261.446 34.4313C258.134 34.9353 196.272 36.2889 195.725 36.2889H195.696ZM188.352 12.3561C188.165 13.6521 188.928 26.0361 189 27.6777C189.173 31.7529 190.339 34.6473 192.643 36.3177H191.203C187.689 36.3177 186.091 34.6329 185.933 31.0473C185.846 29.0025 185.184 13.7673 185.328 12.9033C185.63 10.2825 187.401 9.70651 189.749 9.41851C189.021 10.2466 188.546 11.2662 188.381 12.3561H188.352Z" fill="black"/>
<path d="M222.336 16.0846C222.869 16.0846 239.4 15.667 239.256 15.667C239.33 15.6512 239.397 15.6104 239.445 15.5515C239.492 15.4925 239.518 15.4189 239.518 15.343C239.518 15.267 239.492 15.1934 239.445 15.1345C239.397 15.0755 239.33 15.0347 239.256 15.019C238.032 15.019 223.762 14.7742 222.307 15.019C222.196 15.0591 222.101 15.1332 222.034 15.2308C221.968 15.3283 221.934 15.4442 221.937 15.5621C221.94 15.6801 221.98 15.794 222.052 15.8878C222.124 15.9816 222.223 16.0504 222.336 16.0846ZM244.325 20.6062C242.251 20.8078 221.429 20.1022 221.285 21.1534C221.285 21.355 221.472 21.5134 221.616 21.5422C223.43 21.7582 244.253 21.3118 244.397 21.2974C244.442 21.2926 244.486 21.279 244.526 21.2573C244.566 21.2355 244.602 21.2061 244.631 21.1707C244.659 21.1352 244.681 21.0945 244.694 21.0508C244.707 21.007 244.711 20.9611 244.706 20.9158C244.702 20.8704 244.688 20.8264 244.666 20.7862C244.645 20.7461 244.615 20.7107 244.58 20.6819C244.544 20.6532 244.504 20.6317 244.46 20.6187C244.416 20.6057 244.37 20.6014 244.325 20.6062ZM243.907 26.1358C240.35 26.1358 222.422 26.0494 221.486 26.2078C221.394 26.2322 221.313 26.2863 221.255 26.3619C221.196 26.4374 221.165 26.53 221.165 26.6254C221.165 26.7207 221.196 26.8133 221.255 26.8888C221.313 26.9644 221.394 27.0186 221.486 27.043C222.48 27.2014 242.453 26.7406 243.922 26.6974C243.985 26.6813 244.041 26.6442 244.08 26.5921C244.12 26.5401 244.14 26.4761 244.139 26.4108C244.137 26.3455 244.113 26.2827 244.071 26.2327C244.029 26.1827 243.971 26.1485 243.907 26.1358ZM40.32 118.382C50.0688 117.59 55.2384 105.033 47.664 98.0638C47.3904 97.819 47.9088 97.2718 39.9312 108.806C30.2832 99.6622 30.8016 100.008 30.5856 100.166C22.9536 107.697 30.5136 119.189 40.32 118.382Z" fill="black"/>
<path d="M39.2543 104.085C39.5279 104.387 39.3983 104.43 45.9215 93.4287C45.9371 93.4042 45.9477 93.3769 45.9525 93.3483C45.9574 93.3197 45.9564 93.2904 45.9497 93.2622C45.943 93.234 45.9306 93.2074 45.9134 93.184C45.8962 93.1607 45.8745 93.141 45.8495 93.1263C43.5491 91.9157 40.9136 91.498 38.3516 91.938C35.7897 92.378 33.4445 93.6511 31.6799 95.5599C31.5071 95.7759 31.2479 95.3583 39.2543 104.085ZM24.2063 157.437C24.5756 157.434 24.936 157.323 25.242 157.116C25.5481 156.909 25.7861 156.616 25.9262 156.275C26.0663 155.933 26.1022 155.557 26.0293 155.195C25.9564 154.833 25.7781 154.501 25.5167 154.24C26.2367 153.073 30.9023 145.398 32.2703 143.325C32.6248 143.489 33.0205 143.542 33.4058 143.478C33.7911 143.414 34.1481 143.235 34.4303 142.965L41.0831 148.091C40.9746 148.412 40.9553 148.756 41.0271 149.087C41.0989 149.419 41.2593 149.724 41.491 149.971C41.7228 150.218 42.0173 150.398 42.3431 150.491C42.6689 150.584 43.0138 150.586 43.341 150.499C43.6683 150.411 43.9656 150.236 44.2013 149.993C44.437 149.749 44.6022 149.447 44.6793 149.117C44.7565 148.787 44.7427 148.442 44.6393 148.12C44.536 147.797 44.3471 147.508 44.0927 147.285L46.4543 144.174C46.8769 144.368 47.3561 144.398 47.7999 144.26C48.2437 144.122 48.6209 143.825 48.8591 143.425L55.7423 145.758C55.7051 146.068 55.7459 146.382 55.861 146.672C55.9761 146.962 56.1618 147.219 56.4013 147.419C56.6407 147.618 56.9264 147.755 57.2322 147.817C57.5381 147.878 57.8545 147.862 58.1526 147.77C58.4507 147.678 58.7211 147.513 58.9392 147.29C59.1573 147.067 59.3163 146.793 59.4016 146.493C59.4869 146.193 59.4958 145.877 59.4276 145.572C59.3594 145.268 59.2162 144.985 59.0111 144.75C59.5871 142.691 64.5695 127.47 65.0735 126.03C65.557 125.988 66.0057 125.761 66.3263 125.397C67.6943 126.477 71.7983 129.544 73.1231 130.437C73.0474 130.735 73.0463 131.047 73.1199 131.345C73.1935 131.644 73.3395 131.92 73.545 132.149C73.7505 132.377 74.0093 132.552 74.2983 132.657C74.5873 132.762 74.8978 132.794 75.2022 132.751C75.5066 132.707 75.7957 132.589 76.0438 132.408C76.2918 132.226 76.4913 131.986 76.6246 131.709C76.7578 131.432 76.8208 131.126 76.8078 130.819C76.7949 130.511 76.7064 130.212 76.5503 129.947C80.3807 123.841 80.5535 123.942 80.1503 123.669C80.0745 123.622 79.9838 123.604 79.896 123.62C79.8082 123.636 79.7295 123.684 79.6751 123.755C78.9983 124.734 75.8015 129.227 75.8015 129.227C75.4609 129.059 75.0783 128.996 74.7018 129.045C74.3253 129.093 73.9715 129.252 73.6847 129.501C72.3455 128.565 68.0975 125.526 66.7439 124.475C66.8017 124.143 66.7687 123.801 66.6483 123.486C66.5279 123.171 66.3246 122.894 66.0599 122.685C65.7952 122.476 65.4789 122.342 65.1445 122.298C64.8101 122.254 64.47 122.301 64.1601 122.434C63.8502 122.568 63.5821 122.782 63.3841 123.055C63.1861 123.328 63.0655 123.65 63.0352 123.986C63.0048 124.322 63.0658 124.66 63.2117 124.964C63.3576 125.268 63.5829 125.527 63.8639 125.713C62.6255 129.083 59.0255 140.747 58.1039 144.145C57.7578 144.056 57.3937 144.066 57.0527 144.172C56.7118 144.279 56.4075 144.479 56.1743 144.75C54.7343 144.261 50.4143 142.95 49.1039 142.533C49.1039 142.04 48.9082 141.568 48.5598 141.219C48.2114 140.871 47.7389 140.675 47.2463 140.675C46.7536 140.675 46.2811 140.871 45.9328 141.219C45.5844 141.568 45.3887 142.04 45.3887 142.533C45.3918 142.944 45.5282 143.343 45.7775 143.67L43.1999 146.881C42.953 146.827 42.6975 146.825 42.4497 146.875C42.2019 146.924 41.967 147.025 41.7599 147.169L34.8911 141.971C34.966 141.525 34.8759 141.068 34.6376 140.683C34.3992 140.299 34.029 140.015 33.5963 139.885C33.1636 139.754 32.6981 139.786 32.287 139.973C31.8759 140.161 31.5474 140.493 31.3631 140.905C31.2198 141.202 31.1615 141.533 31.1946 141.861C31.2276 142.189 31.3507 142.501 31.5503 142.763C30.1967 144.793 25.2863 152.641 24.5807 153.779C24.3222 153.714 24.0528 153.706 23.7908 153.754C23.5287 153.802 23.2802 153.907 23.0619 154.06C22.8437 154.213 22.661 154.411 22.5261 154.64C22.3912 154.87 22.3074 155.126 22.2802 155.392C22.2531 155.657 22.2833 155.924 22.3688 156.177C22.4544 156.429 22.5932 156.66 22.7759 156.854C22.9586 157.048 23.1809 157.201 23.4277 157.301C23.6745 157.402 23.94 157.448 24.2063 157.437ZM49.2623 162.534C49.1553 162.534 49.0528 162.577 48.9772 162.652C48.9016 162.728 48.8591 162.831 48.8591 162.937C48.8591 163.044 48.9016 163.147 48.9772 163.223C49.0528 163.298 49.1553 163.341 49.2623 163.341C51.7823 163.341 81.3599 162.189 82.3823 162.174C82.4494 162.159 82.5095 162.122 82.5526 162.068C82.5956 162.015 82.6191 161.948 82.6191 161.879C82.6191 161.81 82.5956 161.744 82.5526 161.69C82.5095 161.636 82.4494 161.599 82.3823 161.584C78.3647 161.598 51.8399 162.246 49.2623 162.534ZM61.9199 152.238C62.0115 152.238 62.0994 152.202 62.1642 152.137C62.2291 152.072 62.2655 151.984 62.2655 151.893C62.2655 151.801 62.2291 151.713 62.1642 151.648C62.0994 151.583 62.0115 151.547 61.9199 151.547C60.7823 151.547 56.6639 151.302 55.6991 151.345C55.531 151.345 55.3699 151.412 55.2511 151.531C55.1322 151.65 55.0655 151.811 55.0655 151.979C55.0655 152.147 55.1322 152.308 55.2511 152.427C55.3699 152.546 55.531 152.613 55.6991 152.613C56.6495 152.728 60.7247 152.339 61.9199 152.238ZM46.5263 154.081H40.3199C40.1857 154.088 40.0556 154.13 39.9434 154.204C39.8311 154.278 39.7408 154.38 39.6819 154.501C39.623 154.622 39.5977 154.756 39.6086 154.89C39.6195 155.024 39.6662 155.153 39.7439 155.262C40.1327 155.838 40.4351 155.392 46.5551 154.873C46.631 154.837 46.6947 154.779 46.7383 154.707C46.7819 154.635 46.8035 154.552 46.8005 154.468C46.7974 154.384 46.7698 154.302 46.7211 154.234C46.6724 154.165 46.6047 154.112 46.5263 154.081ZM21.9743 161.771C22.2767 161.771 26.6543 161.296 27.6191 161.253C27.726 161.253 27.8286 161.21 27.9042 161.135C27.9798 161.059 28.0223 160.956 28.0223 160.849C28.0223 160.743 27.9798 160.64 27.9042 160.564C27.8286 160.489 27.726 160.446 27.6191 160.446C27.0575 160.446 22.1903 160.648 21.8591 160.806C21.7712 160.859 21.7004 160.936 21.6553 161.029C21.6102 161.121 21.5927 161.224 21.6048 161.326C21.617 161.428 21.6583 161.524 21.7239 161.603C21.7894 161.682 21.8764 161.74 21.9743 161.771Z" fill="black"/>
<path d="M72.792 136.801H73.0224C79.1424 136.254 78.9264 136.671 79.1856 136.383C79.2335 136.327 79.2649 136.258 79.2763 136.185C79.2878 136.112 79.2789 136.037 79.2507 135.969C79.2224 135.9 79.1759 135.841 79.1161 135.797C79.0564 135.753 78.9858 135.727 78.912 135.721C76.7664 135.721 74.7504 135.534 72.8208 135.62C72 135.634 72.072 136.801 72.792 136.801ZM40.5936 124.23C40.4371 124.23 40.2869 124.292 40.1762 124.402C40.0654 124.513 40.0032 124.663 40.0032 124.82C40.0032 124.976 40.0654 125.127 40.1762 125.237C40.2869 125.348 40.4371 125.41 40.5936 125.41C42.6528 125.41 50.6736 124.676 52.6176 124.474C52.7097 124.457 52.7928 124.407 52.8525 124.335C52.9123 124.263 52.945 124.172 52.945 124.078C52.945 123.985 52.9123 123.894 52.8525 123.821C52.7928 123.749 52.7097 123.7 52.6176 123.682C50.616 123.841 42.5808 124.057 40.5936 124.23ZM39.6144 127.599C39.4986 127.628 39.3972 127.698 39.3294 127.796C39.2616 127.894 39.232 128.014 39.2461 128.132C39.2603 128.251 39.3172 128.36 39.4063 128.44C39.4953 128.519 39.6103 128.563 39.7296 128.564C42.0048 128.564 50.9328 127.758 53.1792 127.743C53.2785 127.743 53.3738 127.704 53.444 127.633C53.5142 127.563 53.5536 127.468 53.5536 127.369C53.5536 127.269 53.5142 127.174 53.444 127.104C53.3738 127.034 53.2785 126.994 53.1792 126.994C48.6492 126.895 44.1176 127.097 39.6144 127.599ZM52.0272 129.903C48.2587 129.849 44.4901 129.998 40.7376 130.35C40.0464 130.436 40.0176 131.487 40.7376 131.487C42.0192 131.487 49.0176 130.767 52.0416 130.652C52.0908 130.651 52.1393 130.64 52.1844 130.621C52.2294 130.601 52.2702 130.573 52.3043 130.537C52.3384 130.502 52.3651 130.46 52.3831 130.414C52.401 130.368 52.4098 130.319 52.4088 130.27C52.4079 130.221 52.3973 130.173 52.3776 130.128C52.3579 130.083 52.3295 130.042 52.2941 130.008C52.2586 129.974 52.2168 129.947 52.1711 129.929C52.1253 129.911 52.0764 129.902 52.0272 129.903ZM56.7648 98.8855C57.4704 98.8855 64.656 98.1367 66.0672 98.0359C66.1665 98.0359 66.2618 97.9965 66.332 97.9262C66.4022 97.856 66.4416 97.7608 66.4416 97.6615C66.4416 97.5622 66.4022 97.467 66.332 97.3968C66.2618 97.3266 66.1665 97.2871 66.0672 97.2871C65.3616 97.2871 57.6576 97.5175 56.808 97.5751C55.9584 97.6327 55.9584 98.8855 56.7648 98.8855ZM58.248 101.794C60.5088 101.794 69.3216 100.959 71.5536 100.815C71.635 100.799 71.7082 100.754 71.7607 100.69C71.8133 100.626 71.842 100.545 71.842 100.462C71.842 100.379 71.8133 100.299 71.7607 100.234C71.7082 100.17 71.635 100.126 71.5536 100.11C69.3072 100.21 60.4368 100.254 58.2336 100.484C58.0768 100.509 57.9341 100.589 57.8317 100.711C57.7292 100.832 57.6739 100.986 57.6756 101.145C57.6773 101.304 57.7361 101.457 57.8412 101.576C57.9463 101.695 58.0907 101.773 58.248 101.794Z" fill="black"/>
</svg>
