<svg width="288" height="288" viewBox="0 0 288 288" fill="none" xmlns="http://www.w3.org/2000/svg">
<path d="M127.959 62.0067C127.598 61.9308 127.232 61.8827 126.864 61.8627C126.781 61.8575 126.699 61.8822 126.633 61.9325C126.567 61.9827 126.521 62.0551 126.504 62.1363C126.043 63.9219 127.944 63.9795 128.247 62.4099C128.259 62.3186 128.237 62.2259 128.183 62.1509C128.129 62.0759 128.049 62.0243 127.959 62.0067ZM129.039 56.4915C128.419 56.39 127.783 56.4722 127.21 56.7282C126.637 56.9841 126.151 57.4025 125.813 57.9315C125.725 58.0621 125.687 58.2204 125.707 58.3767C125.727 58.5331 125.803 58.6769 125.921 58.781C126.04 58.8852 126.192 58.9427 126.35 58.9427C126.507 58.9427 126.659 58.8853 126.778 58.7811C127.338 58.3327 128.051 58.1208 128.765 58.1907C130.263 58.4067 130.219 56.6787 129.039 56.4915ZM131.357 67.6803C131.551 67.6543 131.728 67.5589 131.857 67.412C131.985 67.265 132.056 67.0764 132.056 66.8811C132.056 66.6859 131.985 66.4973 131.857 66.3503C131.728 66.2033 131.551 66.108 131.357 66.0819H130.68C130.757 64.5218 130.964 62.9708 131.299 61.4451C131.339 61.2772 131.311 61.1005 131.223 60.9526C131.134 60.8047 130.991 60.6973 130.824 60.6531C130.664 60.6123 130.494 60.6343 130.35 60.7146C130.205 60.7949 130.097 60.9275 130.047 61.0851C129.415 62.7066 129.078 64.4282 129.053 66.1683C129.053 66.7299 129.053 67.6947 130.248 67.7235C130.618 67.7358 130.989 67.7214 131.357 67.6803ZM138.039 59.3283C137.405 58.7872 136.644 58.4182 135.826 58.2568C135.009 58.0954 134.164 58.147 133.373 58.4067C133.188 58.5423 133.064 58.7446 133.026 58.9705C132.989 59.1965 133.041 59.4282 133.171 59.6163C133.805 60.5091 135.619 59.4723 137.491 60.7395C137.646 60.8242 137.824 60.856 137.998 60.83C138.172 60.804 138.333 60.7216 138.456 60.5955C138.658 60.2787 138.543 59.8611 138.039 59.3283ZM135.043 68.7891C134.446 69.2743 133.75 69.6235 133.004 69.8125C132.258 70.0015 131.48 70.0258 130.723 69.8835C130.55 69.8511 130.37 69.889 130.224 69.9889C130.078 70.0888 129.978 70.2426 129.946 70.4163C129.913 70.5901 129.951 70.7696 130.051 70.9155C130.151 71.0613 130.305 71.1615 130.479 71.1939C131.493 71.4141 132.543 71.4096 133.556 71.1807C134.568 70.9518 135.518 70.5042 136.339 69.8691C137.376 68.8467 136.224 67.5363 135.043 68.7891ZM136.181 62.8563C136.192 62.8081 136.193 62.7583 136.184 62.7097C136.175 62.6611 136.157 62.6147 136.13 62.5732C136.103 62.5317 136.068 62.4959 136.028 62.4679C135.987 62.4399 135.941 62.4202 135.893 62.4099C135.504 62.3355 135.107 62.3113 134.712 62.3379C134.64 62.3386 134.57 62.3628 134.513 62.407C134.455 62.4512 134.414 62.5129 134.395 62.5827C133.92 64.0803 135.547 65.3043 136.181 62.8563Z" fill="black"/>
<path fill-rule="evenodd" clip-rule="evenodd" d="M133.128 82.0813C131.342 82.0813 131.141 82.8445 131.285 84.9613C131.486 87.8413 131.472 87.9853 133.848 87.9853C136.224 87.9853 136.426 87.9853 136.454 84.9325C136.483 81.8797 135.85 82.0813 133.128 82.0813ZM123.048 157.192C123.048 157.276 123.081 157.356 123.141 157.416C123.2 157.475 123.281 157.509 123.365 157.509C123.449 157.509 123.529 157.475 123.589 157.416C123.648 157.356 123.682 157.276 123.682 157.192C121.994 134.087 125.441 110.896 133.776 89.2813C133.992 88.7197 133.128 88.3021 132.926 88.8781C126.253 105.779 122.687 123.745 122.4 141.913C122.4 147.011 122.63 152.109 123.048 157.192ZM46.6128 148.509C43.9776 148.883 41.3424 149.013 38.6928 149.157C37.4021 145.885 35.7809 142.753 33.8544 139.811C32.7168 138.371 32.2128 142.504 30.0096 150.294L21.024 152.425C20.6064 152.526 20.0736 153.577 20.6064 153.966C22.2768 155.19 25.5744 157.105 27.4608 158.157C26.6256 160.533 25.0992 164.651 24.5808 166.883C24.4512 167.387 25.3584 168.323 25.8912 167.877L34.9776 160.993C37.9273 162.763 41.0084 164.303 44.1936 165.601C44.3208 165.659 44.4613 165.681 44.5999 165.664C44.7385 165.648 44.8699 165.593 44.9798 165.507C45.0897 165.421 45.1739 165.306 45.2231 165.176C45.2724 165.045 45.2849 164.903 45.2592 164.766C44.3609 161.836 43.1894 158.996 41.76 156.285C43.8192 154.182 45.7488 151.965 47.736 149.776C48.2832 149.041 47.2608 148.422 46.6128 148.509ZM40.32 156.213C41.4 158.689 42.5664 161.109 43.4016 163.672C42.2496 163.168 34.92 159.179 34.4736 159.481L26.352 165.846C27.216 163.139 28.0656 160.432 28.9296 157.739C29.2032 156.832 23.04 153.995 22.0176 153.419C23.4576 153.117 29.9808 151.979 30.8736 151.374C31.1472 151.187 33.3072 143.67 33.7536 142.302C34.4736 143.44 37.728 150.28 38.3184 150.309C40.7549 150.438 43.1981 150.352 45.6192 150.049C44.8992 150.784 40.1184 155.665 40.3632 156.241L40.32 156.213ZM34.848 119.406C35.6976 119.881 35.9136 118.585 35.8272 118.081L33.9696 109.902L40.392 105.827C41.1552 105.337 41.9904 104.099 40.824 103.897C37.872 103.379 34.8912 102.99 31.9248 102.544C31.0319 99.2674 29.9354 96.0499 28.6416 92.9101C28.5852 92.7877 28.4948 92.684 28.3813 92.6113C28.2677 92.5386 28.1357 92.4999 28.0008 92.4999C27.866 92.4999 27.734 92.5386 27.6204 92.6113C27.5068 92.684 27.4165 92.7877 27.36 92.9101C26.496 94.9837 25.056 99.6349 24.3792 101.939C21.9888 102.069 16.2432 102.256 14.2992 102.587C13.8672 102.731 13.3632 103.595 13.7808 104.027L19.944 109.614C19.3104 112.408 18.72 115.245 18.1728 118.067C18.072 118.6 18.72 119.19 19.2384 118.873C21.9888 117.232 24.696 115.504 27.4032 113.805C29.7936 115.734 32.3136 117.563 34.848 119.406ZM21.0672 109.038C19.272 107.19 17.3471 105.472 15.3072 103.897L24.6528 103.48C25.5888 103.48 27.7344 96.0781 28.1376 94.9405C28.8432 97.1293 30.0672 100.888 30.5136 102.328C30.96 103.768 30.384 103.537 32.0256 103.768L39.2256 104.949L33.0336 109.139C32.4432 109.542 34.128 116.339 34.3296 117.39L27.6768 112.537C26.9424 112.005 20.4768 116.555 19.4976 117.203C19.9728 115.331 21.6 110.766 21.0672 109.038ZM83.0736 197.281C81.8496 197.397 75.6576 197.785 74.592 198.059L71.0208 192.126C70.7616 191.637 69.8688 189.088 68.8752 189.433C68.6448 189.433 68.5008 189.621 68.3712 190.211C68.1264 191.219 67.9104 193.595 67.2768 199.557C64.3968 200.262 61.5888 200.997 58.7808 201.889C58.3632 202.019 57.9312 202.998 58.4064 203.329C60.856 204.929 63.427 206.335 66.096 207.534C65.6064 209.622 65.3904 211.768 65.0592 213.87C64.8144 215.512 64.152 218.046 66.9456 215.886C69.0172 214.287 70.9445 212.509 72.7056 210.573C74.7504 211.537 79.2864 213.683 81.2304 214.302C81.4176 214.374 82.6704 214.446 82.4544 213.625C81.2658 210.787 79.8198 208.064 78.1344 205.489C79.938 203.507 81.6348 201.431 83.2176 199.269C83.9088 198.505 84.2688 197.181 83.0736 197.281ZM77.0256 205.734L80.5104 212.473C79.5744 212.085 72.648 208.873 72.3456 209.089C70.344 211.062 68.5008 212.833 66.3552 214.677C66.5568 213.337 67.7952 206.886 67.248 206.526C64.7856 205.331 62.4096 204.136 60.048 202.825C61.1424 202.566 68.2128 201.141 68.4576 200.377C68.9328 198.865 69.336 194.257 69.5952 192.4C70.794 194.725 72.2425 196.912 73.9152 198.923C74.5488 199.701 80.8704 198.923 82.0512 198.765C81.216 199.686 76.5072 204.784 77.0256 205.734ZM239.314 72.2317C241.738 73.4826 244.286 74.4768 246.917 75.1981L247.723 83.9821C247.795 84.5869 248.846 84.7021 249.077 84.3133L254.146 76.3213C257.285 76.9117 260.381 77.6749 263.491 78.4381C264.514 78.6829 265.349 77.8622 264.197 76.4077C262.325 74.2259 260.607 71.9163 259.056 69.4957C259.387 68.9053 263.002 62.6989 263.102 61.9645C263.095 61.7293 263.008 61.5036 262.857 61.3234C262.705 61.1433 262.498 61.0192 262.267 60.9709C262.08 60.9709 255.067 63.7645 254.362 64.0381C253.541 63.3469 247.939 58.1341 247.694 57.6157C247.19 56.6365 246.355 56.5501 246.254 57.4573L246.082 66.9037L239.328 70.3885C238.867 70.6333 238.853 72.0013 239.314 72.2317ZM247.334 67.4797C247.622 65.7805 247.594 61.6189 247.637 59.5309C249.469 61.6403 251.499 63.5691 253.699 65.2909C254.39 65.8237 259.877 63.4189 261.173 62.8717L257.918 68.9629C257.918 71.1661 261.187 75.1837 262.685 76.7821C261.547 76.4797 253.858 74.3342 253.354 75.0973C251.914 77.4877 250.243 80.0653 248.789 82.4557L248.414 76.6957C248.198 73.4845 247.939 74.1325 245.621 73.3117L240.192 71.2957C241.488 70.8493 247.162 68.4877 247.334 67.4797ZM213.998 206.627C213.998 205.893 209.866 200.248 209.16 199.427C209.405 199.024 213.005 192.054 213.221 191.291C213.581 189.851 212.674 189.621 211.982 189.851C209.29 190.888 206.914 191.478 204.235 192.328C202.056 189.448 199.886 186.568 197.726 183.688C196.877 182.68 196.286 184.926 196.286 185.545C196.099 188.209 195.638 192.313 195.71 194.689L187.502 198.534C186.725 198.923 187.502 199.816 187.762 199.974L195.379 202.768C195.379 205.648 194.846 209.968 195.106 212.517C195.106 212.992 196.114 213.309 196.416 212.949C198.691 210.313 200.88 207.606 203.069 204.885C206.437 206.123 209.887 207.129 213.394 207.894C214.243 208.096 214.69 206.958 213.998 206.627ZM202.392 203.502C200.376 205.979 198.374 208.485 196.43 211.033C196.502 209.694 197.078 202.681 196.762 201.817C196.589 201.357 190.21 199.513 189.288 199.211C190.022 198.909 196.286 196.259 196.819 195.784C197.352 195.309 197.654 187.072 197.741 185.819L203.371 193.667C204.019 194.301 210.283 192.054 211.522 191.565C210.36 194.089 209.189 196.6 208.008 199.096C207.691 200.061 211.45 205.101 212.141 206.123C210.989 205.821 202.666 203.157 202.392 203.502ZM273.874 124.245L268.531 117.678C269.395 115.749 271.411 109.902 271.685 108.88C271.701 108.697 271.652 108.514 271.547 108.364C271.441 108.214 271.286 108.106 271.109 108.059C270.518 107.857 264.154 110.723 263.203 111.097C261.11 108.815 259.153 106.411 257.342 103.897C256.853 103.163 256.133 104.041 256.003 104.358C255.874 104.675 255.514 113.257 255.442 114.438L245.938 118.081C245.29 118.355 245.606 119.651 246.024 119.766L255.254 122.214V131.805C255.254 132.453 255.715 134.685 256.622 133.648C258.912 130.595 261.403 127.355 263.678 124.288C269.856 124.993 272.016 125.915 273.758 125.497C273.902 125.476 274.033 125.407 274.133 125.301C274.232 125.196 274.293 125.06 274.306 124.916C274.32 124.772 274.284 124.627 274.206 124.506C274.127 124.384 274.01 124.292 273.874 124.245ZM262.973 123.006C260.957 125.785 258.754 128.766 256.738 131.517C256.738 129.486 256.637 123.208 256.392 122.027C257.486 120.587 248.414 119.147 247.363 118.873C248.472 118.47 256.392 115.993 256.522 115.245C256.997 112.199 257.271 109.125 257.342 106.043C258.019 107.051 261.778 112.595 262.915 112.221C263.549 112.71 268.675 110.464 269.885 109.873C269.568 110.896 267.005 117.577 267.422 118.225C268.862 120.141 270.504 122.2 271.958 124.115C270.518 124.115 263.318 122.675 262.944 123.006H262.973ZM257.126 169.072C257.645 168.15 260.626 162.995 260.77 162.333C260.742 162.172 260.682 162.019 260.595 161.881C260.507 161.744 260.393 161.626 260.259 161.533C260.124 161.44 259.973 161.376 259.814 161.342C259.654 161.309 259.49 161.308 259.33 161.339C256.68 162.203 254.088 163.009 251.424 163.816C248.861 161.368 246.226 158.92 243.576 156.529C243.488 156.453 243.385 156.398 243.273 156.368C243.161 156.338 243.043 156.334 242.929 156.356C242.816 156.379 242.708 156.427 242.616 156.496C242.523 156.566 242.448 156.656 242.395 156.76C242.05 157.609 242.899 166.077 243.101 167.488L234.202 171.981C233.971 172.11 233.237 173.219 234.014 173.421L244.57 175.062C244.66 178.827 245.143 182.572 246.01 186.237C246.341 186.87 247.536 186.51 247.752 186.136L253.195 176.157C255.701 176.675 258.955 177.309 261.461 177.827C262.987 178.187 264.096 177.438 263.059 176.387C261.058 173.982 259.013 171.577 257.126 169.072ZM252.806 174.99C251.971 175.249 247.939 183.544 247.32 184.753C247.09 183.414 246.024 174.011 245.39 173.766C244.757 173.521 236.851 172.6 236.016 172.528C237.067 172.038 244.454 168.942 244.469 168.035C244.469 164.824 244.08 161.685 243.979 158.488C246.245 160.744 248.525 162.971 250.819 165.169C251.453 165.817 257.818 163.47 258.883 163.067C257.918 164.925 256.003 167.56 256.003 169.605C257.598 171.944 259.339 174.181 261.216 176.301C259.79 175.984 253.526 174.63 252.749 174.99H252.806ZM165.499 270.721C165.355 269.627 165.499 263.867 165.312 262.974C166.668 263.011 168.023 262.875 169.344 262.571C169.906 262.11 172.642 182.464 171.965 168.798C166.306 172.067 150.581 180.448 143.165 179.166C138.485 178.36 129.931 172.355 126.792 169.216C124.373 166.782 124.358 163.168 124.603 159.971L117.403 159.755C117.063 163.083 115.806 166.252 113.772 168.909C111.738 171.565 109.007 173.606 105.883 174.803C101.174 202.955 97.0704 233.109 96.1056 262.643C96.1056 262.974 97.9776 263.089 99.4464 263.133C99.3312 264.069 98.5824 269.829 98.7264 270.333C95.7168 271.657 86.04 275.92 85.7664 279.649C85.5504 281.939 110.966 280.413 111.096 279.649C111.326 278.512 111.096 272.665 110.333 271.729C110.909 268.849 111.47 265.969 112.032 263.089C114.696 262.974 116.77 263.089 116.87 262.6C121.363 244.557 129.47 227.795 134.482 209.853C133.402 203.142 132.221 195.337 131.371 188.613C129.499 187.774 127.788 186.614 126.317 185.185C124.992 183.904 126.864 183.357 127.958 183.99C130.968 185.747 133.373 186.481 133.459 187.086C136.339 205.101 145.8 247.12 149.918 262.513C150.019 262.873 151.646 262.845 153.317 262.96C153.677 265.595 154.066 268.374 154.555 270.995C153.864 271.139 153.115 278.44 153.792 278.944C155.232 279.966 176.832 281.363 177.293 280.11C177.754 278.857 172.411 273.933 165.499 270.721ZM109.613 271.413C106.214 271.038 102.658 271.6 99.3888 270.405C99.8605 268 100.207 265.573 100.426 263.133H111.038C110.291 265.839 109.814 268.612 109.613 271.413ZM155.275 270.981C155.016 268.302 154.656 265.653 154.267 262.989C157.735 263.19 161.211 263.19 164.678 262.989C164.405 265.549 164.405 268.132 164.678 270.693C161.557 271.047 158.412 271.143 155.275 270.981Z" fill="black"/>
<path fill-rule="evenodd" clip-rule="evenodd" d="M216 12.4277C215.813 10.8005 214.718 11.3909 214.272 11.9957C200.966 29.4629 187.589 46.8581 174.456 64.4405C160.013 46.2245 140.285 23.5445 123.264 7.34452C122.89 6.99892 122.04 7.34452 121.896 7.76212C114.912 28.9013 108.302 52.6757 102.816 74.4197C85.0319 64.8437 61.0559 54.2597 42.0479 46.3109C41.6159 46.1381 39.9599 45.9077 40.2047 46.9589C51.5663 98.1509 68.1407 152.468 73.9727 168.697C74.3759 169.849 74.7071 169.978 75.8879 169.82C84.3839 168.841 93.1679 167.113 101.664 165.701L102.01 170.367C102.283 174.111 105.221 172.297 107.294 170.885C110.604 168.949 113.058 165.831 114.163 162.159C115.459 157.666 115.301 136.541 115.603 130.58C116.64 131.084 118.958 129.039 118.31 126.692C118.779 126.262 119.085 125.683 119.177 125.053C119.269 124.424 119.141 123.782 118.814 123.236C121.19 121.249 118.915 118.354 116.712 117.303C117.864 106.849 120.758 90.6917 124.042 83.7653L124.862 83.4341C124.786 85.1264 124.853 86.8221 125.064 88.5029C125.077 88.6643 125.132 88.8196 125.222 88.9541C125.312 89.0886 125.435 89.1978 125.579 89.2713C125.724 89.3449 125.884 89.3804 126.046 89.3744C126.208 89.3685 126.365 89.3213 126.504 89.2373C127.79 88.3684 129.021 87.421 130.19 86.4005C130.049 85.2397 130.015 84.0683 130.09 82.9013C128.806 81.7255 127.349 80.7542 125.77 80.0213C124.79 79.6181 124.92 81.7781 124.891 82.2389C106.92 89.2805 88.0271 106.46 82.6991 125.525C80.1935 134.497 81.0863 155.405 95.6591 152.986C101.29 152.036 107.05 145.268 110.39 139.925C112.738 136.153 113.746 139.076 112.118 141.682C109.28 146.027 105.838 149.944 101.894 153.317C101.597 156.909 101.515 160.516 101.65 164.117C93.0095 165.557 84.1247 167.271 75.3839 168.61C71.5391 155.65 57.6431 115.762 41.9903 47.6501C60.3359 55.5269 84.0095 66.7013 101.65 75.5861C103.579 76.5653 103.579 76.7957 104.083 74.8517C109.843 53.3957 116.165 29.7077 123.106 9.00052C140.861 27.4901 157.522 45.6629 173.506 65.8373C173.779 66.1829 174.557 66.5717 174.946 66.0965C188.424 48.7301 201.658 31.1765 214.978 13.6805C219.211 55.5557 221.99 99.0005 221.501 142.201C211.997 144.121 202.488 145.978 192.974 147.773C200.578 134.9 192.902 117.332 184.954 106.417C175.327 93.1693 161.264 83.8182 145.325 80.0645C145.325 75.3845 145.022 70.9493 147.47 66.7157C148.205 65.4341 149.357 64.2821 149.112 62.7125C152.323 60.0917 153.994 55.2677 154.771 51.3365C156.096 44.6693 150.451 46.1093 146.707 47.1173C141.912 48.3989 133.877 46.5413 129.283 45.2453C126.518 44.4677 119.578 42.6821 118.584 46.8581C117.763 50.2421 122.616 53.3669 125.309 54.2885C122.99 62.1365 120.989 77.5589 129.053 79.2581C129.053 79.7477 128.952 80.2373 128.909 80.6981C129.254 80.8421 129.586 81.0005 129.888 81.1589C129.888 80.5973 130.09 78.4661 129.37 78.2789C124.07 76.5509 124.042 69.6389 124.358 65.1317C124.634 61.5563 125.163 58.0049 125.942 54.5045C129.427 55.3842 133.102 55.1217 136.426 53.7557C138.442 52.9925 143.179 49.9685 145.282 51.6821C147.082 53.1221 142.646 54.8501 143.237 60.8405C143.626 64.8437 145.8 61.4453 147.442 61.9493C147.659 62.0282 147.845 62.1738 147.975 62.3652C148.104 62.5566 148.169 62.784 148.162 63.0149C148.291 65.2901 143.539 66.9029 144.245 79.5893C142.963 79.2437 138.658 82.3541 137.621 83.1029C137.775 84.3441 137.741 85.6015 137.52 86.8325C139.594 88.1141 143.194 89.6261 143.568 89.3957C144.216 89.0069 145.354 83.4485 145.152 81.1733C146.722 81.5333 148.277 81.9653 149.803 82.4549C144.907 88.2149 134.669 108.764 133.286 117.015C132.265 116.916 131.236 117.096 130.31 117.538C129.384 117.979 128.596 118.665 128.03 119.521C126.403 122.156 125.294 127.498 127.44 129.989C128.146 130.696 129.033 131.194 130.003 131.429C128.226 141.326 127.201 151.344 126.936 161.396C126.936 163.858 127.037 165.716 129.254 167.746C132.365 170.626 139.334 175.767 143.424 176.386C149.587 177.437 166.882 169.33 172.93 164.866C173.529 164.288 173.893 163.508 173.952 162.677C174.146 161.303 174.179 159.912 174.053 158.53C160.478 156.7 147.836 150.604 137.952 141.121C136.512 139.681 137.736 138.025 139.306 139.45C151.819 150.797 178.013 164.463 191.678 149.53C201.912 147.61 212.141 145.613 222.365 143.54C223.056 143.41 222.941 142.604 222.941 141.999C223.203 98.709 220.885 55.4419 216 12.4277ZM109.987 103.018C110.146 102.313 112.277 100.513 113.213 99.7637C112.349 99.2021 110.578 97.9205 110.736 97.0853C111.038 95.5157 115.286 89.6837 116.338 88.3301C117.043 87.4373 118.512 88.5749 117.778 89.4821C116.009 91.8119 114.466 94.3047 113.17 96.9269C115.229 98.8565 115.963 98.7269 116.05 99.5333C116.05 100.801 113.314 102.413 112.147 103.479C112.291 106.522 112.44 109.57 112.594 112.623C112.594 113.833 110.837 113.847 110.736 112.623C110.635 111.399 109.771 103.954 109.987 103.018ZM114.797 116.77C113.661 116.602 112.501 116.681 111.398 117.001C112.551 115.609 113.36 113.967 113.76 112.205C114.163 110.765 114.998 110.996 115.2 112.09C115.383 113.661 115.246 115.253 114.797 116.77ZM116.323 118.21C118.152 119.103 119.477 120.586 118.296 122.602C117.72 121.925 115.862 120.14 114.941 120.629C114.891 120.656 114.849 120.694 114.816 120.74C114.784 120.785 114.762 120.838 114.752 120.893C114.742 120.948 114.745 121.005 114.76 121.059C114.776 121.113 114.803 121.163 114.84 121.205C115.07 121.465 119.549 123.308 117.878 125.857C117.461 125.137 115.992 123.826 115.128 124.013C115.081 124.02 115.036 124.037 114.995 124.062C114.955 124.087 114.92 124.12 114.893 124.159C114.866 124.198 114.847 124.243 114.838 124.29C114.829 124.336 114.83 124.384 114.84 124.431C115.013 125.281 117.187 125.18 117.432 127.311C117.488 127.863 117.348 128.418 117.038 128.878C116.728 129.338 116.266 129.676 115.733 129.831C116.482 128.391 114.451 127.268 113.299 128.391C113.141 128.535 113.141 128.967 113.818 128.765C114.025 128.708 114.244 128.708 114.451 128.765C113.011 132.783 108.158 130.421 107.251 126.663C106.705 124.251 107.118 121.72 108.403 119.607C111.226 117.98 112.997 116.641 116.323 118.268V118.21ZM89.3807 123.97C89.2067 124.047 89.0111 124.06 88.8286 124.006C88.646 123.953 88.4883 123.836 88.3831 123.678C88.278 123.519 88.2323 123.329 88.2541 123.14C88.276 122.951 88.3639 122.776 88.5023 122.645C92.4947 119.743 97.0368 117.685 101.851 116.597C102.832 112.665 104.113 108.814 105.682 105.077C106.042 104.199 107.496 104.789 107.122 105.653C105.823 109.118 104.751 112.663 103.91 116.266C104.554 116.199 105.187 116.156 105.811 116.137C106.603 116.137 106.906 117.375 106.056 117.577C100.093 118.507 94.4028 120.723 89.3807 124.071V123.97ZM111.182 136.325C103.867 135.13 99.3311 126.706 105.581 119.593L107.654 119.521C105.638 121.997 105.422 127.988 108.648 130.652C109.202 131.118 109.851 131.457 110.551 131.643C111.25 131.83 111.982 131.86 112.694 131.732C112.386 133.353 111.878 134.93 111.182 136.426V136.325ZM139.406 114.567C140.674 112.825 145.57 105.927 146.837 104.487C146.189 103.839 144.619 102.14 144.835 101.103C144.866 100.94 144.942 100.79 145.054 100.667C145.166 100.545 145.309 100.457 145.469 100.412L150.091 98.6261L152.971 87.4517C152.99 87.3312 153.033 87.2157 153.098 87.1128C153.164 87.0099 153.25 86.9217 153.351 86.854C153.453 86.7862 153.567 86.7403 153.687 86.7191C153.807 86.698 153.931 86.7021 154.049 86.7312C154.168 86.7604 154.279 86.8138 154.375 86.8882C154.472 86.9626 154.552 87.0563 154.61 87.1634C154.669 87.2705 154.704 87.3885 154.715 87.5101C154.725 87.6316 154.71 87.754 154.67 87.8693C154.224 89.7701 152.698 99.2165 151.459 100.167C150.193 100.911 148.825 101.464 147.398 101.809C148.493 102.788 149.717 103.796 148.925 105.135C148.55 105.812 141.926 114.423 140.875 115.748C140.198 116.641 138.744 115.575 139.406 114.668V114.567ZM135 113.761C137.779 108.836 137.635 113.17 137.39 115.589C137.326 116.332 137.429 117.08 137.693 117.778C136.526 117.289 135.284 117.002 134.021 116.929C134.122 115.816 134.455 114.736 135 113.761ZM128.16 129.255C126.245 127.541 127.584 121.954 128.981 119.881C130.738 117.317 134.51 117.317 137.088 118.441C135.135 119.85 133.641 121.803 132.793 124.058C131.945 126.312 131.781 128.766 132.322 131.113C130.829 130.762 129.417 130.132 128.16 129.255ZM137.534 136.253L133.214 131.933C131.774 125.41 134.856 120.154 138.888 118.57C140.242 118.671 141.768 118.57 143.122 118.57C139.406 123.106 136.282 130.22 137.462 136.253H137.534ZM180 125.641C169.79 120.463 158.5 117.773 147.053 117.793C146.045 117.793 146.131 116.353 147.053 116.252C151.308 116.057 155.573 116.288 159.782 116.943C159.638 116.41 158.99 113.977 158.803 113.3C158.723 113.109 158.722 112.894 158.8 112.702C158.878 112.51 159.03 112.358 159.221 112.277C159.412 112.197 159.627 112.196 159.818 112.274C160.01 112.353 160.163 112.504 160.243 112.695C160.938 114.187 161.497 115.739 161.914 117.332C168.532 118.601 174.871 121.039 180.634 124.532C181.541 124.935 180.792 126.029 180 125.641Z" fill="black"/>
</svg>
