<svg width="55" height="55" viewBox="0 0 55 55" fill="none" xmlns="http://www.w3.org/2000/svg">
<g clip-path="url(#clip0_1080_2897)">
<path d="M18.3334 24.659H17.0042C15.1904 24.5935 13.3824 24.9014 11.6925 25.5637C10.0027 26.226 8.46692 27.2285 7.18063 28.509L6.81396 28.9368V41.5868H13.0473V34.4063L13.8876 33.459L14.2695 33.016C16.2586 30.9726 18.7349 29.4689 21.4654 28.6465C20.0983 27.6063 19.0201 26.2336 18.3334 24.659Z" fill="#045BC0"/>
<path d="M47.8804 28.4622C46.5941 27.1816 45.0583 26.1791 43.3685 25.5168C41.6786 24.8545 39.8706 24.5466 38.0568 24.6122C37.5005 24.6137 36.9446 24.6443 36.3915 24.7038C35.6919 26.181 34.6432 27.4657 33.3359 28.4469C36.2509 29.2533 38.8915 30.8377 40.9748 33.0302L41.3568 33.458L42.1818 34.4052V41.601H48.2012V28.8899L47.8804 28.4622Z" fill="#045BC0"/>
<path d="M16.9583 21.6783H17.4319C17.2119 19.7888 17.5434 17.876 18.3865 16.1708C19.2296 14.4656 20.5483 13.0409 22.1833 12.0686C21.5906 11.1631 20.773 10.4271 19.8104 9.93266C18.8478 9.43818 17.7733 9.20217 16.6921 9.24773C15.6109 9.29329 14.56 9.61887 13.6424 10.1926C12.7249 10.7663 11.972 11.5685 11.4576 12.5206C10.9432 13.4727 10.6849 14.542 10.708 15.6239C10.731 16.7059 11.0347 17.7633 11.5892 18.6926C12.1437 19.6219 12.93 20.3913 13.8712 20.9253C14.8124 21.4594 15.8761 21.74 16.9583 21.7394V21.6783Z" fill="#045BC0"/>
<path d="M37.3235 20.5336C37.342 20.8847 37.342 21.2366 37.3235 21.5878C37.6167 21.6342 37.9128 21.6598 38.2096 21.6641H38.4999C39.5773 21.6067 40.6215 21.2712 41.5308 20.6905C42.44 20.1097 43.1834 19.3033 43.6886 18.35C44.1938 17.3966 44.4434 16.3286 44.4133 15.2501C44.3833 14.1716 44.0744 13.1192 43.5169 12.1955C42.9594 11.2718 42.1722 10.5082 41.2319 9.97897C40.2916 9.44979 39.2304 9.17309 38.1514 9.1758C37.0725 9.17852 36.0127 9.46056 35.0751 9.99446C34.1375 10.5284 33.3541 11.2959 32.8013 12.2225C34.184 13.1253 35.3211 14.3572 36.1103 15.8078C36.8996 17.2584 37.3165 18.8822 37.3235 20.5336Z" fill="#045BC0"/>
<path d="M27.3013 27.3771C31.073 27.3771 34.1305 24.3196 34.1305 20.5479C34.1305 16.7763 31.073 13.7188 27.3013 13.7188C23.5297 13.7188 20.4722 16.7763 20.4722 20.5479C20.4722 24.3196 23.5297 27.3771 27.3013 27.3771Z" fill="#045BC0"/>
<path d="M27.6683 31.0137C25.6731 30.9331 23.6822 31.2571 21.8154 31.966C19.9486 32.6749 18.2446 33.7541 16.8058 35.1387L16.4238 35.5665V45.2373C16.4298 45.5523 16.4978 45.8631 16.6238 46.1518C16.7499 46.4405 16.9316 46.7016 17.1586 46.9201C17.3856 47.1386 17.6535 47.3102 17.9468 47.4252C18.2402 47.5401 18.5533 47.5962 18.8683 47.5901H36.4224C36.7374 47.5962 37.0506 47.5401 37.3439 47.4252C37.6372 47.3102 37.9051 47.1386 38.1321 46.9201C38.3591 46.7016 38.5408 46.4405 38.6669 46.1518C38.793 45.8631 38.8609 45.5523 38.8669 45.2373V35.597L38.5002 35.1387C37.0707 33.7498 35.3726 32.6676 33.51 31.9582C31.6474 31.2489 29.6595 30.9275 27.6683 31.0137Z" fill="#045BC0"/>
</g>
<defs>
<clipPath id="clip0_1080_2897">
<rect width="55" height="55" fill="white"/>
</clipPath>
</defs>
</svg>
