<svg width="288" height="288" viewBox="0 0 288 288" fill="none" xmlns="http://www.w3.org/2000/svg">
<path fill-rule="evenodd" clip-rule="evenodd" d="M143.813 122.501C143.377 121.854 142.831 121.289 142.2 120.831C141.82 120.839 141.445 120.927 141.101 121.088C140.756 121.249 140.449 121.48 140.198 121.767C139.954 122.112 140.328 122.66 140.573 123.034C140.831 123.438 141.13 123.814 141.466 124.157C141.912 124.46 142.618 123.884 143.122 123.509C143.626 123.135 144 122.876 143.813 122.501ZM141.869 123.164C141.653 122.89 141.25 122.372 141.062 122.069C141.364 121.736 141.713 121.45 142.099 121.22C142.099 121.22 142.632 122.17 142.819 122.53C142.43 122.804 142.114 123.02 141.869 123.164ZM144.907 125.007C144.734 124.805 143.338 125.352 142.92 125.943C142.675 126.288 143.035 126.836 143.294 127.224C143.542 127.631 143.842 128.004 144.187 128.333C144.266 128.395 144.361 128.43 144.461 128.434C144.922 128.434 146.232 127.412 146.434 127.181C146.5 127.118 146.546 127.035 146.564 126.945C146.582 126.855 146.572 126.761 146.534 126.677C146.094 126.029 145.543 125.464 144.907 125.007ZM144.59 127.34C144.297 126.99 144.023 126.624 143.77 126.245C144.079 125.92 144.427 125.635 144.806 125.396C144.806 125.396 145.354 126.36 145.541 126.72C145.094 127.008 144.835 127.196 144.59 127.34ZM152.856 136.584C156.182 134.151 151.603 129.615 149.026 132.956C148.756 133.404 148.614 133.916 148.614 134.439C148.614 134.961 148.756 135.474 149.026 135.922C149.446 136.517 150.086 136.922 150.804 137.046C151.522 137.17 152.26 137.004 152.856 136.584ZM149.544 133.92C149.717 131.386 153.95 132.149 153.043 134.828C152.891 135.255 152.585 135.61 152.184 135.823C151.783 136.036 151.317 136.091 150.878 135.977C150.439 135.863 150.058 135.589 149.811 135.208C149.564 134.827 149.469 134.368 149.544 133.92ZM144.605 122.026C144.686 122.08 144.781 122.11 144.878 122.112C145.354 122.112 146.65 121.104 146.851 120.874C146.921 120.81 146.968 120.725 146.986 120.631C147.005 120.538 146.993 120.442 146.952 120.356C146.513 119.716 145.967 119.156 145.339 118.7C144.96 118.716 144.589 118.807 144.245 118.968C143.902 119.129 143.593 119.356 143.338 119.636C143.093 119.981 143.467 120.543 143.712 120.903C143.966 121.31 144.265 121.687 144.605 122.026ZM145.238 119.146C145.238 119.146 145.771 120.096 145.958 120.456C145.44 120.816 145.21 120.96 145.008 121.09C144.778 120.802 144.389 120.298 144.187 119.996C144.483 119.635 144.839 119.328 145.238 119.088V119.146ZM149.573 125.05C149.639 124.986 149.683 124.903 149.699 124.812C149.714 124.722 149.7 124.628 149.659 124.546C149.224 123.899 148.678 123.334 148.046 122.876C147.668 122.892 147.296 122.983 146.952 123.144C146.609 123.305 146.3 123.532 146.045 123.812C145.8 124.157 146.189 124.733 146.419 125.093C146.68 125.491 146.979 125.862 147.312 126.202C147.395 126.255 147.488 126.29 147.586 126.303C148.075 126.317 149.357 125.28 149.573 125.05ZM147.715 125.208C147.428 124.857 147.159 124.492 146.909 124.114C147.214 123.784 147.562 123.498 147.946 123.264C147.946 123.264 148.478 124.215 148.666 124.575C148.32 124.863 147.946 125.079 147.715 125.28V125.208ZM221.76 121.176C221.602 121.292 220.781 121.896 220.003 122.616C219.226 123.336 216.749 125.712 216.547 126.792C216.533 126.99 216.563 127.188 216.635 127.373C216.707 127.557 216.82 127.723 216.965 127.858C217.339 128.261 218.822 129.528 218.822 128.924C218.786 128.821 218.727 128.727 218.65 128.65C218.205 128.226 217.822 127.741 217.512 127.21C217.253 126.692 220.046 124.042 222.048 121.45C222.264 121.263 221.976 120.96 221.76 121.176ZM217.814 131.199C217.613 131.487 217.411 132.077 217.814 132.12C217.814 132.12 218.174 131.703 218.621 131.645C219.47 131.645 219.427 132.927 219.413 133.791C219.413 134.036 219.744 134.136 219.802 133.892C220.192 133.35 220.367 132.683 220.291 132.02C220.003 130.81 218.405 130.306 217.814 131.199ZM218.434 122.645C218.61 122.713 218.805 122.711 218.979 122.638C219.154 122.566 219.293 122.429 219.37 122.256L219.715 121.464C219.793 121.291 219.799 121.093 219.732 120.915C219.664 120.737 219.529 120.593 219.355 120.514C219.27 120.473 219.178 120.449 219.084 120.445C218.99 120.44 218.896 120.454 218.807 120.486C218.718 120.518 218.637 120.568 218.568 120.632C218.499 120.696 218.443 120.774 218.405 120.86L218.045 121.695C218.007 121.783 217.987 121.877 217.986 121.973C217.986 122.068 218.004 122.163 218.04 122.252C218.076 122.34 218.13 122.42 218.197 122.488C218.265 122.556 218.345 122.609 218.434 122.645ZM223.906 125.597C224.018 125.666 224.148 125.701 224.28 125.698C224.971 125.698 224.899 125.079 225.274 124.762C225.419 124.638 225.509 124.461 225.523 124.271C225.538 124.08 225.477 123.892 225.353 123.747C225.229 123.602 225.052 123.512 224.862 123.497C224.671 123.482 224.483 123.544 224.338 123.668C223.805 124.114 223.2 125.165 223.906 125.597ZM120.283 89.4244C129.888 90.0436 152.784 88.8628 152.784 87.7396C152.654 36.9076 152.957 39.5428 152.366 39.4276C142.574 37.6132 138.787 36.8356 132.12 37.7284C123.034 38.9668 119.65 41.386 104.76 41.7172C96.12 41.9188 96.3504 41.5156 96.2784 41.8612C96.0336 43.0132 95.8176 92.1748 96.696 93.082C98.3664 94.7668 112.579 88.9204 120.283 89.4244ZM96.624 42.0484C102.111 42.275 107.607 42.1788 113.083 41.7604C123.293 40.8532 130.853 37.282 140.443 38.2324C142.776 38.4628 149.544 39.6724 151.877 40.162V87.3076C150.019 87.5092 141.926 88.33 133.157 88.618C118.973 89.0932 120.845 87.754 113.17 89.2228C106.661 90.4612 98.7696 93.0388 97.3296 92.506C96.7536 89.3524 96.48 44.2372 96.624 42.0484Z" fill="black"/>
<path fill-rule="evenodd" clip-rule="evenodd" d="M115.402 78.0336C118.282 77.5296 137.491 66.3984 138.73 63.8352C138.811 63.7191 138.854 63.5808 138.854 63.4392C138.854 63.2975 138.811 63.1593 138.73 63.0432C137.29 61.488 116.525 51.5232 114.163 51.4512C112.723 51.4512 113.472 74.9088 114.538 77.544C114.594 77.7189 114.714 77.8663 114.874 77.9569C115.034 78.0476 115.223 78.0749 115.402 78.0336ZM114.106 51.84C116.381 51.9696 135.965 62.0064 137.866 63.5328C135.778 66.24 118.498 76.4208 115.2 77.184C113.443 72 114.25 51.84 114.106 51.84ZM63.2018 53.6256C63.1855 53.8621 63.1566 54.0977 63.1154 54.3312C63.0967 54.424 63.0969 54.5196 63.1159 54.6123C63.135 54.705 63.1725 54.793 63.2263 54.8709C63.28 54.9489 63.3489 55.0152 63.4288 55.0659C63.5087 55.1167 63.598 55.1508 63.6914 55.1664C63.8764 55.2004 64.0673 55.1607 64.2234 55.0557C64.3795 54.9508 64.4883 54.7889 64.5266 54.6048C64.5843 54.3197 64.6228 54.031 64.6418 53.7408C64.6493 53.6462 64.6382 53.5511 64.609 53.4609C64.5798 53.3706 64.5331 53.287 64.4716 53.2148C64.4101 53.1426 64.335 53.0832 64.2505 53.04C64.1661 52.9968 64.0739 52.9707 63.9794 52.9632C63.8848 52.9556 63.7897 52.9667 63.6995 52.9959C63.6092 53.0251 63.5256 53.0718 63.4534 53.1333C63.3812 53.1948 63.3218 53.27 63.2786 53.3544C63.2354 53.4389 63.2093 53.531 63.2018 53.6256ZM63.5042 61.3584C63.5042 61.3584 62.165 60.2784 62.0642 60.1632C61.8937 60.0599 61.7345 59.9393 61.589 59.8032C61.589 59.5152 60.9554 59.4432 61.3298 60.48C61.589 61.2 62.9714 62.1072 63.6194 61.704C63.6652 61.6887 63.7031 61.6558 63.7247 61.6126C63.7463 61.5694 63.7498 61.5194 63.7346 61.4736C63.7193 61.4277 63.6864 61.3899 63.6432 61.3683C63.6 61.3467 63.55 61.3431 63.5042 61.3584Z" fill="black"/>
<path fill-rule="evenodd" clip-rule="evenodd" d="M78.2063 126.461C79.2863 125.612 77.6447 120.413 75.5855 114.221C85.1327 117.634 93.0671 119.117 102.946 117.188C104.76 117.476 106.517 117.72 108.158 117.908C108.446 117.908 108.792 117.533 109.253 116.698C110.711 117.667 112.467 118.086 114.206 117.879C115.531 117.504 119.966 115.215 120.341 114.048C120.387 113.934 120.41 113.812 120.408 113.689C120.406 113.565 120.38 113.444 120.33 113.331C120.28 113.218 120.208 113.117 120.119 113.032C120.029 112.947 119.923 112.882 119.808 112.839C123.84 111.883 127.928 111.181 132.048 110.736C144.331 109.383 166.694 113.429 174.643 112.896C185.731 112.133 208.613 101.376 209.563 98.8131C210.341 96.7395 214.387 13.1331 211.104 8.09313C210.978 7.89501 210.795 7.73954 210.579 7.64704C210.363 7.55455 210.125 7.52935 209.894 7.57473C205.243 7.70433 182.03 16.3011 173.376 16.7187C162.965 17.2803 142.891 12.8163 130.45 14.1843C112.464 16.1859 104.501 21.8883 91.7999 21.6003C76.4495 21.1827 64.4399 12.0819 49.6655 10.1955C40.4927 9.02913 27.8783 9.15873 19.8575 12.3123C18.9873 12.5808 18.1896 13.0437 17.5247 13.6659C16.4015 15.2355 16.9055 53.0643 16.9199 54.5619C16.4015 53.4675 15.4799 53.8131 14.9759 54.9363C13.9823 57.3555 14.2847 63.4899 14.2415 64.2819C13.6247 66.107 13.1009 67.9622 12.6719 69.8403H11.2319C11.1671 69.8407 11.1041 69.8619 11.0523 69.9008C11.0004 69.9397 10.9624 69.9942 10.9439 70.0563C8.06392 78.7827 4.21912 96.7683 10.6847 103.392C12.7305 105.633 15.4877 107.098 18.4895 107.54C18.5309 108.377 18.6859 109.206 18.9503 110.002C19.5839 111.01 21.8303 110.16 25.7183 108.98C24.2574 112.719 22.9885 116.53 21.9167 120.399C21.4847 121.839 19.2671 130.392 19.7423 131.343C20.2175 132.293 21.6863 132.408 22.6223 132.639C19.88 150.104 19.3333 167.843 20.9951 185.444C21.0671 186.207 21.8447 186.884 23.1695 187.316C22.8959 201.456 25.2719 227.52 25.9199 228.255C26.1368 228.404 26.3818 228.506 26.6399 228.557C26.6399 229.796 26.5679 231.941 26.6399 233.482C26.6134 233.566 26.6134 233.657 26.6399 233.741C26.6274 234.267 26.7358 234.79 26.9567 235.268C28.2239 236.895 38.8223 236.924 39.3551 236.506C39.5542 236.375 39.7175 236.196 39.8306 235.986C39.9436 235.777 40.0028 235.542 40.0028 235.304C40.0028 235.065 39.9436 234.831 39.8306 234.621C39.7175 234.411 39.5542 234.232 39.3551 234.101C38.6483 233.665 37.9008 233.298 37.1231 233.007C35.8584 232.516 34.5381 232.182 33.1919 232.013C33.1919 231.164 33.1919 229.954 33.3071 228.975C33.4572 228.983 33.6053 228.938 33.7261 228.849C33.847 228.759 33.933 228.631 33.9695 228.485C34.7759 226.268 40.2911 199.44 42.2351 188.972C47.1743 188.972 52.4735 188.684 57.4847 188.324C58.4927 204.005 62.2079 226.181 62.7263 226.656C62.9683 226.804 63.2377 226.902 63.5183 226.944V230.732C63.4898 230.816 63.4898 230.907 63.5183 230.991C63.5058 231.517 63.6142 232.039 63.8351 232.517C65.0879 234.144 75.6863 234.173 76.2335 233.756C76.4325 233.624 76.5959 233.446 76.7089 233.236C76.822 233.026 76.8812 232.791 76.8812 232.553C76.8812 232.315 76.822 232.08 76.7089 231.87C76.5959 231.66 76.4325 231.482 76.2335 231.351C75.5298 230.909 74.7817 230.542 74.0015 230.256C72.7358 229.768 71.4159 229.435 70.0703 229.263V227.132C70.1882 227.106 70.2993 227.055 70.3961 226.983C70.4929 226.911 70.5733 226.819 70.6319 226.714C72.3455 222.524 74.9519 198.044 74.9519 186.394C76.8815 186.048 82.3391 185.04 83.4335 183.514C84.9599 181.196 79.9919 149.76 76.3199 127.8C76.9738 127.39 77.6037 126.943 78.2063 126.461ZM108.13 117.188C97.4303 115.863 81.3599 112.45 72.8351 105.912C68.9183 93.4563 69.5951 89.7411 71.5391 76.2339C76.5503 80.8275 80.1791 86.1843 83.4047 90.0723C85.5359 92.5923 108.734 109.7 110.966 111.759C110.119 113.618 109.172 115.43 108.13 117.188ZM41.9759 39.2691C42.3856 39.7706 42.9415 40.1316 43.5662 40.302C44.1909 40.4724 44.8532 40.4435 45.4607 40.2195C45.3167 40.8819 45.3167 41.0547 45.4607 41.2995C44.3298 41.909 43.3467 42.7594 42.5807 43.7907C40.9391 46.4835 41.1839 46.0803 41.2991 47.5203C40.8196 47.8389 40.4214 48.2653 40.1363 48.7654C39.8513 49.2655 39.6873 49.8254 39.6575 50.4003C39.5452 51.3599 39.5792 52.331 39.7583 53.2803C39.87 53.8929 40.1159 54.4732 40.4783 54.9795C40.7497 55.3711 41.1 55.7015 41.5067 55.9495C41.9134 56.1975 42.3676 56.3576 42.8399 56.4195C42.7355 57.0392 42.7355 57.6719 42.8399 58.2915C43.2803 60.1252 44.2882 61.773 45.7199 63.0003C46.2748 63.4494 46.9519 63.7212 47.6633 63.7802C48.3747 63.8393 49.0874 63.683 49.7087 63.3315C49.5647 64.1091 49.3343 65.3043 49.1183 66.5427C47.9637 66.5405 46.8099 66.603 45.6623 66.7299C44.5247 65.5923 35.7119 66.9027 35.7119 69.8403C32.4351 71.6311 29.4847 73.9632 26.9855 76.7379C26.2367 61.4739 25.3727 34.1427 25.2575 34.0851C26.6975 33.4371 35.5535 32.8035 44.3519 33.7251C43.8268 33.9264 43.3474 34.231 42.9421 34.6209C42.5367 35.0108 42.2137 35.478 41.9922 35.995C41.7707 36.5119 41.6551 37.068 41.6523 37.6304C41.6495 38.1928 41.7595 38.75 41.9759 39.2691ZM58.7231 38.1315C56.9951 38.8227 48.5423 41.1843 46.4543 41.1411C46.1807 40.7523 46.1951 40.9251 46.3535 40.3059C53.7119 39.3411 57.1823 35.4243 58.7231 38.1315ZM66.7583 52.5315C66.8735 53.4531 67.9823 57.0099 68.0831 58.0179C67.7519 58.2627 66.7871 58.3635 66.5279 58.6227C66.263 59.3543 66.1077 60.121 66.0671 60.8979C65.6207 63.5763 63.3887 64.2243 60.6815 64.3395C59.6159 64.3395 59.9615 64.3395 59.5151 68.4435C56.4677 67.3613 53.2719 66.7542 50.0399 66.6435C50.3135 65.1171 50.5007 64.1523 50.6159 63.5187C50.7293 63.73 50.9205 63.8888 51.149 63.9614C51.3776 64.034 51.6254 64.0147 51.8399 63.9075C52.8767 63.3747 52.6175 62.2803 52.1855 61.2147C51.2783 58.9827 51.8543 58.1043 51.3647 57.8307C50.7067 57.4474 50.1529 56.9085 49.7519 56.2611C48.9455 54.8211 49.7519 53.3811 50.6735 53.3811C52.4159 53.3811 52.5023 55.1955 52.9919 56.2611C53.7119 57.9171 55.5695 56.0307 55.3535 52.5603C55.6127 52.3875 56.6927 52.4739 57.1967 52.1283C57.7007 51.7827 57.9743 50.8179 58.3775 50.3427C58.9606 50.5803 59.5913 50.6779 60.2189 50.6279C60.8466 50.5779 61.4538 50.3816 61.9919 50.0547C62.2691 49.8557 62.4983 49.5973 62.6627 49.2983C62.8271 48.9993 62.9227 48.6674 62.9423 48.3267C63.2338 48.5237 63.571 48.6427 63.9215 48.6723C64.659 48.6505 65.3601 48.3463 65.8799 47.8227C66.2811 48.1382 66.6523 48.4901 66.9887 48.8739C67.5071 51.4083 66.6575 51.7107 66.7583 52.5171V52.5315ZM39.7871 67.4211C41.5046 67.0513 43.2734 66.9831 45.0143 67.2195C45.8192 68.9274 47.2233 70.2802 48.9599 71.0211C45.9359 73.1379 39.4415 72.0003 39.7871 67.4211ZM45.8783 67.1763C51.5444 66.5868 57.2629 67.5839 62.3951 70.0563C58.6655 72.7059 54.2447 72.1875 49.9823 70.5027C48.2594 69.9224 46.8028 68.7417 45.8783 67.1763ZM60.3791 68.7459C60.5087 67.5939 60.6095 66.3699 60.7103 65.2035C63.8639 65.0451 66.3839 64.1379 66.8879 61.0131C66.8879 60.6531 67.0607 59.5731 67.1327 59.1699C69.1343 58.4787 69.1055 58.7091 68.4575 56.2899C68.4575 56.4339 67.4783 52.9923 67.3919 52.2723C67.5806 51.8735 67.6976 51.4445 67.7375 51.0051C68.0975 51.2067 68.5295 50.7891 68.7311 50.1699C69.3071 48.3123 67.9103 47.7219 67.9247 47.0595C68.0947 46.2268 68.0501 45.3646 67.7951 44.5539C67.6801 43.8564 67.4127 43.1928 67.012 42.6104C66.6112 42.028 66.0871 41.5411 65.4767 41.1843C65.2175 41.0547 64.4831 40.7811 64.4255 40.7235C63.9215 40.2051 63.8639 38.7939 61.2431 38.3043C60.5519 38.1747 59.8031 38.3043 59.5007 38.1747C59.3241 37.6826 58.99 37.2625 58.5503 36.9795C57.7439 36.4611 57.6431 36.8067 57.9455 36.4755C66.0527 38.4195 76.6655 41.1555 82.0655 42.5811C81.9935 45.9075 81.3743 72.1587 80.5247 85.6803C77.8538 82.1108 74.8708 78.7857 71.6111 75.7443C71.9855 73.1667 64.9007 68.1699 62.7695 69.7971C61.9919 69.3939 61.1855 69.1203 60.3791 68.7459ZM70.9055 75.4275C70.5311 77.5011 70.2863 78.6675 69.8687 81.5187C68.785 81.6541 67.6849 81.4861 66.6909 81.0336C65.6969 80.5811 64.8479 79.8617 64.2383 78.9555C63.8707 77.5474 64.0097 76.0549 64.6309 74.7388C65.2521 73.4227 66.316 72.3668 67.6367 71.7555C69.4367 72.9363 71.0495 74.5635 70.9055 75.4275ZM71.9999 106.56C68.7167 107.712 63.6767 106.215 64.0655 102.312C64.1027 100.873 64.6969 99.5046 65.7229 98.4947C66.7489 97.4848 68.1267 96.9124 69.5663 96.8979C70.1988 100.161 71.0112 103.387 71.9999 106.56ZM113.026 105.466C113.126 106.071 113.443 108.936 113.458 109.786C113.458 110.016 113.458 109.93 113.256 109.988C112.667 110.135 112.071 110.25 111.47 110.333C111.211 108.98 111.154 108.447 110.75 106.359C112.594 105.567 112.752 105.567 113.069 105.452L113.026 105.466ZM119.16 114.106C117.581 115.361 115.83 116.384 113.962 117.144C112.411 117.357 110.834 117.059 109.469 116.295C109.829 115.604 110.261 114.696 110.794 113.588C111.226 113.717 111.542 113.588 112.032 113.213C112.925 112.58 114.566 111.442 114.005 112.508C113.602 113.271 112.896 113.818 113.112 114.336C113.328 114.855 114.019 114.682 114.552 114.61C115.959 114.379 117.349 114.057 118.714 113.645C118.944 113.573 119.938 113.444 119.203 114.092L119.16 114.106ZM125.381 107.324C125.381 107.554 125.381 107.468 125.165 107.511C124.564 107.609 123.958 107.667 123.35 107.684C123.221 106.359 123.178 105.437 122.99 103.68C123.756 103.433 124.535 103.226 125.323 103.061C125.424 103.68 125.467 106.56 125.424 107.309L125.381 107.324ZM138.24 106.33C138.24 106.56 138.24 106.474 138.01 106.503C137.405 106.539 136.799 106.539 136.195 106.503V102.485C138.154 102.096 138.326 102.125 138.571 102.082C138.643 102.73 138.427 105.552 138.24 106.33ZM151.906 107.28C151.906 107.496 151.906 107.424 151.646 107.41C151.043 107.382 150.441 107.314 149.846 107.208C149.933 106.344 150.192 104.631 150.336 103.22C152.28 103.061 152.323 103.119 152.755 103.09C152.726 103.68 152.179 106.56 151.963 107.28H151.906ZM180.115 107.684C180.115 107.9 180.115 107.828 179.885 107.856C179.282 107.92 178.676 107.949 178.07 107.943C178.07 106.676 178.07 105.826 177.912 103.925C180.072 103.392 179.914 103.493 180.274 103.407C180.346 104.069 180.259 106.877 180.173 107.684H180.115ZM192.643 104.242C192.643 104.472 192.643 104.386 192.427 104.429C191.832 104.544 191.231 104.626 190.627 104.674C190.526 103.997 190.354 102.298 190.123 100.671C192.053 100.037 192.211 100.052 192.442 99.9651C192.571 100.584 192.73 103.436 192.701 104.242H192.643ZM203.141 99.5187C203.141 99.6771 203.141 99.6195 202.968 99.6483C202.435 99.7509 201.897 99.8182 201.355 99.8499C201.197 98.6835 201.182 98.1651 200.938 96.3363C201.615 96.0868 202.308 95.88 203.011 95.7171C203.126 96.3075 203.227 98.8275 203.198 99.5187H203.141ZM210.024 77.7603C200.981 82.0803 197.323 86.7027 185.875 88.7763C180.954 89.7567 175.878 89.6535 171 88.4739C169.92 83.7795 170.136 42.3939 170.237 40.8675C183.83 42.8835 211.306 32.7459 211.45 32.7027C211.291 46.7427 210.658 64.2819 210.024 77.7603ZM17.2799 25.0563C23.2991 24.2211 32.9327 21.4563 43.6175 22.4499C59.4575 23.8899 71.2511 32.0979 87.8255 33.4371C106.171 34.8771 113.558 28.8291 132.826 27.3891C146.03 26.3955 163.454 30.3555 174.154 30.4275C182.88 30.4275 203.184 25.4739 211.594 23.7315V32.2707C211.45 32.2707 181.584 42.6387 170.064 39.9315C170.064 39.9315 169.589 39.9315 169.56 40.3491C169.459 42.0051 169.027 86.3427 170.41 88.9491C170.447 89.0247 170.5 89.0917 170.564 89.1462C170.628 89.2007 170.703 89.2414 170.784 89.2659C175.823 90.5114 181.075 90.6245 186.163 89.5971C197.554 87.5235 201.442 82.9011 210.11 78.6531C209.894 82.9731 209.693 86.9043 209.506 90.0723C199.426 94.1043 187.618 98.9715 176.53 99.8643C168.077 100.556 144.173 97.1859 130.925 98.1651C116.525 99.2451 109.656 102.168 101.362 103.407C83.3471 89.8995 84.5135 90.7203 81.3743 86.6883C82.2239 73.7283 82.8143 47.6499 82.9295 42.2211C82.9323 42.1258 82.9024 42.0324 82.8448 41.9564C82.7872 41.8805 82.7053 41.8265 82.6127 41.8035C76.3199 40.1619 67.0463 37.8723 58.3631 35.8131C58.5268 35.499 58.5824 35.1397 58.5215 34.7907C58.4502 34.345 58.2541 33.9286 57.9559 33.5896C57.6578 33.2507 57.2697 33.0031 56.8367 32.8755C56.9916 32.6404 57.0741 32.3651 57.0741 32.0835C57.0741 31.802 56.9916 31.5266 56.8367 31.2915C56.52 30.7987 56.0465 30.427 55.4927 30.2363C54.9388 30.0456 54.3369 30.047 53.7839 30.2403C51.4511 27.1443 46.0079 29.0739 44.8991 31.8675C43.7903 34.6611 47.9087 32.8035 35.1071 32.9475C33.2639 32.9475 26.1935 33.2067 25.0271 33.9699C24.8399 34.0851 26.1503 73.9155 26.3231 77.6739C25.026 79.1591 23.86 80.7538 22.8383 82.4403C22.4168 78.2149 21.5183 74.0508 20.1599 70.0275C20.1599 69.9267 20.1599 69.8691 19.6271 69.8403C19.2874 68.175 19.0374 66.4925 18.8783 64.8003C22.1615 61.3731 21.0671 59.8611 19.6415 60.3075C19.0162 60.6241 18.366 60.8889 17.6975 61.0995C17.2799 52.2147 17.1791 33.3939 17.2799 25.0563ZM14.8751 64.5699C14.9759 64.4259 15.3215 52.9779 16.1567 54.9651C16.7903 56.4915 16.7183 61.1139 16.8623 61.3875C17.5535 62.8275 19.3967 61.0563 20.1455 61.0275C20.5199 61.5027 18.7055 63.7635 18.2591 64.2819C17.8127 64.8003 18.2591 65.5347 19.1519 69.8259H13.1471C13.7375 67.8963 14.6015 65.1171 14.8751 64.5699ZM19.3823 106.848C16.2709 106.625 13.3686 105.199 11.2895 102.874C5.05432 96.5523 8.87032 78.8835 11.5199 70.4595H19.6847C21.0512 74.613 21.9449 78.9073 22.3487 83.2611C22.3556 83.32 22.3815 83.375 22.4224 83.4179C22.4633 83.4608 22.517 83.4893 22.5755 83.499C22.6339 83.5088 22.694 83.4993 22.7466 83.472C22.7992 83.4446 22.8415 83.401 22.8671 83.3475C25.9488 77.9451 30.4247 73.4692 35.8271 70.3875C36.3043 79.4202 34.7493 88.445 31.2767 96.7971C29.0159 102.053 27.7055 107.237 19.3823 106.848ZM33.4943 92.2611C34.6735 92.3485 35.7959 92.8021 36.7047 93.5586C37.6135 94.3151 38.2632 95.3366 38.5631 96.4803C40.1183 101.88 33.7391 103.68 30.0527 101.607C31.3727 98.5579 32.5216 95.4379 33.4943 92.2611ZM24.8543 113.573C30.6143 115.517 30.1103 124.834 21.9743 123.351C22.7663 120.557 23.5583 117.634 24.9119 113.573H24.8543ZM20.5919 131.04C20.8115 128.743 21.2307 126.468 21.8447 124.244C30.8735 126.072 32.1119 115.215 25.0415 113.242C26.2749 109.464 27.7962 105.786 29.5919 102.24C31.322 103.191 33.3412 103.473 35.2655 103.032C42.5807 101.362 39.8015 91.9011 33.6095 91.8435C35.8148 84.7753 36.6602 77.353 36.1007 69.9699C36.0287 68.7891 37.5407 67.9683 39.3983 67.4643C39.3497 67.8757 39.3497 68.2914 39.3983 68.7027C39.7007 72.6195 46.5983 74.4627 50.1263 71.2227C52.8444 72.2233 55.7568 72.5831 58.6367 72.2739C60.3514 71.9781 61.9623 71.2495 63.3167 70.1571C63.9791 69.6531 65.6639 70.3299 67.2911 71.3667C65.8865 71.8837 64.7292 72.9124 64.0511 74.2467C63.6179 75.0039 63.3456 75.8424 63.2515 76.7096C63.1573 77.5769 63.2433 78.4542 63.5039 79.2867C64.1755 80.3488 65.133 81.2 66.2665 81.7426C67.4 82.2851 68.6635 82.497 69.9119 82.3539C69.1976 86.8448 69.0718 91.4097 69.5375 95.9331C68.4824 95.9038 67.4395 96.165 66.5228 96.6881C65.606 97.2113 64.8506 97.9762 64.3391 98.8995C60.6671 105.077 66.9455 109.109 72.3455 106.791C74.0735 112.061 78.2207 124.229 77.6879 125.698C75.912 127.237 73.8596 128.425 71.6399 129.197C71.4798 128.2 71.0779 127.258 70.4694 126.453C69.8608 125.647 69.0642 125.003 68.1491 124.577C67.2341 124.151 66.2285 123.955 65.2204 124.008C64.2123 124.06 63.2323 124.358 62.3663 124.877C59.5871 126.692 58.9679 130.796 59.8319 132.38C54.7442 133.208 49.6059 133.689 44.4527 133.82C45.5183 125.18 31.9391 123.97 32.2847 133.82C28.2758 133.448 24.3394 132.512 20.5919 131.04ZM70.7327 129.6C67.3058 130.834 63.7724 131.75 60.1775 132.336V132.25C59.9733 131.42 59.946 130.557 60.0973 129.716C60.2487 128.875 60.5753 128.075 61.0559 127.368C61.6417 126.451 62.497 125.738 63.5043 125.327C64.5116 124.915 65.6215 124.826 66.6818 125.07C67.742 125.315 68.7006 125.882 69.4259 126.693C70.1512 127.504 70.6077 128.519 70.7327 129.6ZM43.5023 133.834C40.1903 133.834 36.5759 133.834 32.6303 133.748C32.5802 132.258 33.091 130.804 34.0617 129.674C35.0324 128.543 36.3922 127.818 37.8719 127.642C38.6658 127.622 39.4546 127.773 40.1849 128.085C40.9152 128.397 41.5697 128.862 42.1039 129.45C42.6381 130.037 43.0396 130.733 43.2809 131.489C43.5222 132.246 43.5977 133.046 43.5023 133.834ZM35.7263 233.381C35.6692 233.508 35.5798 233.617 35.4671 233.698C32.7586 233.73 30.0508 233.59 27.3599 233.28C27.2447 231.84 27.1439 229.853 27.0719 228.615C28.9522 228.915 30.8568 229.035 32.7599 228.975C32.3279 232.69 32.4287 232.474 32.9039 232.618C34.6751 233.28 34.4303 232.906 35.7263 233.381ZM33.1199 228.096C30.9585 228.179 28.7946 228.02 26.6687 227.621C25.8047 221.861 23.6735 198.692 23.6879 187.474C27.2447 188.626 34.0415 189.044 41.7167 188.914C39.4127 199.541 33.7391 226.239 33.1199 228.096ZM72.5759 230.631C72.5148 230.755 72.4261 230.863 72.3167 230.948C69.6088 230.989 66.9011 230.859 64.2095 230.559C64.1231 229.536 64.0511 228.183 63.9935 227.045C65.8166 227.339 67.669 227.406 69.5087 227.247C69.2207 229.839 69.2783 229.738 69.7535 229.896C71.4527 230.4 71.2511 230.156 72.5471 230.631H72.5759ZM69.7967 226.311C67.65 226.59 65.471 226.487 63.3599 226.008C62.3951 222.077 59.0399 201.399 57.9455 188.324C64.3967 187.863 70.3583 187.186 74.4767 186.495C74.1887 197.928 71.2223 222.452 69.7679 226.268L69.7967 226.311ZM82.7567 182.938C79.5743 187.517 22.5503 190.628 22.0175 185.415C20.3606 167.922 20.883 150.291 23.5727 132.927C36.0143 136.584 63.7487 135.173 75.5855 128.333C79.1999 150.365 83.9663 181.023 82.6703 182.88L82.7567 182.938Z" fill="black"/>
<path fill-rule="evenodd" clip-rule="evenodd" d="M54.3167 115.042C54.4411 114.111 54.3557 113.163 54.0667 112.268C53.7777 111.374 53.2924 110.555 52.6463 109.873C52.0179 109.162 51.2264 108.615 50.3398 108.277C49.4532 107.94 48.4979 107.823 47.5561 107.936C46.6143 108.05 45.7141 108.39 44.9327 108.928C44.1514 109.466 43.5123 110.185 43.0703 111.025C42.5841 111.816 42.2745 112.703 42.1627 113.625C42.0508 114.547 42.1394 115.482 42.4223 116.367C44.7263 120.759 53.5391 120.385 54.3167 115.042ZM43.6895 111.37C44.0763 110.629 44.6378 109.994 45.3254 109.519C46.0131 109.045 46.8061 108.744 47.6358 108.645C48.4655 108.546 49.3069 108.65 50.0871 108.95C50.8674 109.249 51.5629 109.734 52.1135 110.362C52.6796 110.97 53.1027 111.697 53.3519 112.489C53.601 113.281 53.6699 114.119 53.5535 114.941C52.8911 119.535 45.0287 119.866 43.0271 116.021C42.8107 115.242 42.7579 114.427 42.8719 113.627C42.9859 112.826 43.2643 112.058 43.6895 111.37ZM59.1551 88.7478C59.2885 87.807 59.2075 86.8482 58.9182 85.943C58.629 85.0379 58.1389 84.2098 57.4847 83.5206C56.8573 82.8095 56.0668 82.2612 55.1808 81.9228C54.2949 81.5845 53.3401 81.4662 52.3984 81.578C51.4567 81.6899 50.5562 82.0286 49.7742 82.5651C48.9922 83.1016 48.352 83.8199 47.9087 84.6582C42.8111 93.8598 58.1183 95.9766 59.1551 88.7478ZM48.5279 85.0758C48.9147 84.3351 49.4762 83.6998 50.1638 83.225C50.8514 82.7501 51.6445 82.4501 52.4742 82.3508C53.3039 82.2515 54.1453 82.356 54.9255 82.6552C55.7058 82.9544 56.4013 83.4393 56.9519 84.0678C57.5206 84.6738 57.9454 85.4002 58.1947 86.193C58.444 86.9858 58.5114 87.8246 58.3919 88.647C57.7295 93.2406 49.8671 93.5574 47.8655 89.727C47.6491 88.948 47.5963 88.1326 47.7103 87.3322C47.8243 86.5317 48.1027 85.7635 48.5279 85.0758ZM243.014 151.834C240.204 149.86 237.215 148.153 234.086 146.737C234.302 145.009 235.109 134.986 234.518 134.079C234.331 133.805 234.288 134.079 234.518 133.532C234.979 133.858 235.509 134.071 236.067 134.154C236.625 134.236 237.195 134.186 237.73 134.007C238.23 134.676 238.97 135.125 239.795 135.259C240.619 135.394 241.464 135.203 242.15 134.727C244.325 133.575 248.098 129.082 246.96 125.9C246.528 124.705 246.211 125.468 247.406 124.647C248.365 123.815 249.106 122.762 249.566 121.58C250.152 120.468 250.393 119.206 250.257 117.957C250.121 116.707 249.615 115.527 248.803 114.567C247.61 113.11 245.962 112.096 244.123 111.687C243.55 111.53 242.968 111.405 242.381 111.313C242.064 109.412 243.49 105.97 238.262 103.133C236.615 102.35 234.731 102.221 232.992 102.773C231.005 103.335 231.552 104.213 231.192 103.162C229.622 99.0582 224.41 96.135 220.882 98.2806C219.87 98.8785 219.01 99.7013 218.369 100.685C217.727 101.669 217.32 102.788 217.181 103.954C217.228 105.153 217.523 106.33 218.045 107.41C211.997 108.173 212.904 117.058 218.16 116.842C217.072 119.327 216.195 121.899 215.539 124.532C214.92 127.757 214.459 131.386 215.957 134.324C216.608 135.498 217.516 136.509 218.613 137.282C219.71 138.055 220.968 138.57 222.293 138.788C221.573 140.156 220.853 141.524 220.378 142.575C208.67 140.228 183.168 147.039 180.763 149.127C180.331 149.501 180.518 149.833 180.763 150.567C179.085 151.041 177.383 151.431 175.666 151.733C170.158 145.137 164.071 139.045 157.478 133.532C157.651 130.292 155.275 126.562 152.626 125.857C149.746 121.263 146.462 116.684 145.642 116.194C144.821 115.705 138.067 120.082 137.635 120.961C137.491 121.234 137.635 121.465 137.866 121.94C139.219 124.546 145.426 134.727 148.205 138.687C150.485 144.256 153.277 149.602 156.542 154.657C155.605 154.769 154.676 154.947 153.763 155.189C142.992 157.969 133.517 164.866 125.914 172.383C117.144 181.023 109.109 192.701 106.33 198.404C106.186 198.677 106.07 198.893 106.2 199.138C106.529 199.764 106.895 200.369 107.294 200.953L106.445 202.191C103.954 200.276 96.0191 194.559 93.4847 196.532C91.2095 197.468 89.7695 197.684 92.8799 203.185C94.8671 206.669 100.31 212.617 103.781 214.33C106.027 215.425 107.28 213.293 106.862 212.444C108.988 211.29 110.965 209.883 112.752 208.253L114.192 210.053C114.278 210.149 114.396 210.209 114.524 210.222C114.651 210.236 114.779 210.201 114.883 210.125C131.861 197.165 152.438 180.821 154.253 181.642C157.608 183.169 169.834 202.695 173.779 205.633C173.823 205.663 173.853 205.71 173.862 205.763C173.872 205.815 173.86 205.87 173.83 205.913C173.799 205.957 173.752 205.987 173.7 205.997C173.647 206.006 173.593 205.994 173.549 205.964C168.998 202.839 156.629 183.989 153.907 182.578C151.517 183.284 144.014 189.188 130.478 198.821C123.653 218.981 121.234 244.253 121.838 245.866C121.968 246.169 122.602 246.529 123.523 246.903C123.35 248.473 123.178 250.085 123.048 251.482C120.384 253.181 112.176 258.812 113.213 261.821C113.314 264.212 112.982 265.709 119.275 264.701C123.206 264.025 127.411 261.821 130.795 259.935C131.357 259.633 131.558 257.473 131.587 256.321C132.38 254.118 132.865 251.816 133.027 249.481C133.966 249.732 134.949 249.777 135.907 249.61C136.57 249.279 138.974 245.117 142.013 239.429C139.133 250.676 135.734 265.825 136.872 267.221C137.22 267.7 137.721 268.045 138.292 268.2C138.863 268.354 139.469 268.309 140.011 268.071C141.667 267.365 149.63 239.473 151.69 231.121C157.709 232.561 168.192 235.066 179.842 237.73C174.571 256.249 170.122 274.882 171.072 276.106C171.406 276.585 171.897 276.931 172.46 277.086C173.022 277.241 173.621 277.195 174.154 276.956C174.96 276.61 181.354 257.703 187.675 239.516C204.955 243.404 223.042 247.249 232.114 248.501C233.554 260.295 236.189 279.001 237.874 280.009C238.368 280.337 238.96 280.484 239.55 280.426C240.14 280.369 240.692 280.109 241.114 279.692C242.107 278.698 240.538 259.532 239.285 247.58C244.296 242.626 254.232 226.325 262.742 211.249C264.629 229.364 269.726 273.169 271.642 276.553C271.88 276.832 272.183 277.048 272.525 277.184C272.866 277.319 273.235 277.369 273.6 277.33C274.202 277.294 274.767 277.032 275.184 276.596C276.494 275.3 270.864 216.692 269.165 204.481C272.347 204.365 274.925 204.236 276.624 204.063C278.798 203.847 279.245 198.116 277.258 197.511C275.167 196.964 273.032 196.602 270.878 196.431C274.45 189.706 276.984 184.58 277.546 182.938C277.661 182.593 277.762 182.218 277.546 181.973C276.811 181.487 276.024 181.086 275.198 180.778C278.496 173.765 280.642 168.97 280.728 168.668C282.24 162.951 248.702 153.476 243.014 151.834ZM101.707 199.959C100.84 201.908 99.763 203.758 98.4959 205.474L97.0559 203.746C98.3834 202.371 99.2448 200.613 99.5183 198.721C100.253 199.124 100.987 199.541 101.707 199.959ZM98.7407 198.361C98.4501 200.079 97.6644 201.676 96.4799 202.954C92.5055 197.669 92.9807 195.553 98.7407 198.361ZM104.126 213.855C101.088 212.213 94.1759 204.869 92.4335 199.916C92.3183 199.599 92.0015 198.577 92.2319 198.346C92.4388 198.183 92.6664 198.047 92.9087 197.943C92.8223 199.786 94.9103 202.594 96.0479 204.02C98.1647 206.655 102.413 211.781 105.811 212.66C106.049 212.709 106.294 212.709 106.531 212.66C106.834 213.121 105.84 214.791 104.126 213.855ZM106.042 211.825C104.184 211.321 101.491 208.844 99.1295 206.209C100.454 204.373 101.461 202.329 102.11 200.161C104.011 201.298 105.667 202.436 106.33 202.94C106.366 202.967 106.407 202.986 106.452 202.996C106.496 203.006 106.541 203.008 106.586 202.999C106.63 202.991 106.673 202.974 106.71 202.949C106.748 202.924 106.78 202.891 106.805 202.853C106.805 202.853 107.165 202.249 107.64 201.5C109.08 203.487 110.938 205.964 112.478 207.865C110.059 209.665 106.891 212.069 106.042 211.825ZM119.29 255.37C120.819 256.841 122.186 258.473 123.365 260.237L121.248 260.957C120.409 259.273 119.065 257.894 117.403 257.012C118.08 256.393 118.728 255.831 119.29 255.37ZM116.784 257.588C118.275 258.466 119.492 259.743 120.298 261.274C114.235 263.189 112.032 262.196 116.784 257.588ZM130.666 259.402C126.072 261.562 120.845 264.097 116.064 264.053C115.747 264.053 114.624 264.053 114.523 263.708C114.441 263.461 114.392 263.204 114.379 262.945C116.467 263.794 120.96 262.124 123.12 261.361C125.611 260.511 129.442 259.028 131.27 257.041C131.188 257.854 130.984 258.65 130.666 259.402ZM130.997 255.975C129.816 257.617 126.677 259.028 124.286 259.906C123.004 258.065 121.445 256.433 119.664 255.068C123.638 251.9 123.826 252.188 123.854 251.785C123.854 251.785 123.984 249.509 124.157 247.162C126.919 248.082 129.738 248.823 132.595 249.38C132.377 251.638 131.854 253.857 131.04 255.975H130.997ZM266.357 159.956C263.88 159.61 261.749 159.956 260.669 161.122C260.165 161.698 258.653 164.002 256.493 167.473C253.537 161.814 249.42 156.843 244.411 152.885C252.763 155.247 260.64 157.781 266.4 159.956H266.357ZM220.392 143.324C220.694 143.324 220.392 143.324 222.797 138.759C223.056 138.226 221.357 138.586 219.024 136.988C214.92 134.252 215.251 129.514 216.259 124.69C216.991 121.945 217.955 119.266 219.139 116.684C220.398 116.165 221.536 115.39 222.48 114.409C229.608 118.066 232.344 117.289 233.611 117.807C233.326 118.504 232.954 119.162 232.502 119.765C232.502 119.765 233.251 124.561 232.171 126.778C231.725 127.685 233.381 128.146 234.144 127.671C234.519 127.382 234.862 127.054 235.166 126.692C237.845 126.26 238.046 127.599 236.736 129.284C235.109 131.314 233.986 131.401 233.856 132.394C233.784 133.143 232.286 134.554 233.582 134.741C233.662 138.83 233.46 142.92 232.978 146.981C232.962 147.087 232.982 147.196 233.034 147.289C233.086 147.383 233.167 147.457 233.266 147.5C234.13 147.86 235.051 148.277 235.944 148.724C231.984 154.095 226.858 159.193 220.104 157.594C213.35 155.996 214.243 149.098 217.426 142.935C218.422 143.002 219.412 143.132 220.392 143.324ZM216.792 143.079C215.525 145.556 213.811 149.876 214.56 153.346C215.424 157.306 219.283 158.847 223.2 158.689C228.24 158.487 231.35 155.708 234.446 152.252C235.368 151.201 236.29 150.106 237.01 149.113C252.95 157.292 261.029 176.689 260.784 180.346C257.904 182.017 240.926 182.233 237.542 182.276C236.595 178.777 235.864 175.223 235.354 171.634C235.354 171.581 235.332 171.529 235.295 171.492C235.257 171.454 235.205 171.433 235.152 171.433C235.098 171.433 235.047 171.454 235.009 171.492C234.972 171.529 234.95 171.581 234.95 171.634C235.336 175.387 235.966 179.11 236.837 182.78C236.952 183.241 237.514 183.111 239.371 183.111L239.63 183.73C229.334 184.925 223.402 185.17 214.906 189.375C209.995 184.508 205.33 179.669 198.058 173.535C195.28 170.985 192.304 168.659 189.158 166.58C191.826 162.378 194.862 158.421 198.23 154.757C198.432 154.585 198.158 154.282 197.957 154.455C194.078 157.692 190.861 161.648 188.482 166.105C187.128 163.081 182.578 152.741 181.642 149.789C184.104 148.234 204.48 142.33 216.792 143.079ZM228.427 218.362C230.486 214.316 232.934 209.722 235.627 204.985C243.288 204.985 251.165 204.841 258.062 204.725C254.434 211.119 250.603 217.901 247.176 223.892C240.912 221.905 234.562 220.047 228.427 218.362ZM246.629 224.756C241.43 233.828 237.254 240.941 236.362 241.892C233.971 241.892 211.694 236.823 190.354 231.956C193.234 223.748 195.883 216.274 197.755 211.479C213.408 215.194 232.214 220.133 246.629 224.756ZM228.773 205.057L234.864 204.985C234.043 206.511 233.237 208.023 232.459 209.535C231.379 208.196 230.141 206.684 228.773 205.057ZM200.563 205.057C199.238 205.287 199.123 203.933 189.389 231.797L182.75 230.271C190.944 202.133 193.882 199.772 194.27 199.772C195.509 198.029 238.219 195.625 262.598 196.733L258.581 203.818C237.168 204.106 205.92 204.005 200.563 204.999V205.057ZM257.213 195.754C237.053 195.365 208.786 196.82 198.173 198.433C193.968 198.087 198.274 195.25 202.262 194.631C205.286 194.17 208.555 194.3 209.218 193.969C212.674 192.241 214.07 187.733 240.235 184.508C240.854 184.421 240.451 183.73 240.235 183.169C246.217 183.236 252.197 182.899 258.134 182.161C258.711 185.591 258.995 189.064 258.984 192.543C258.756 193.76 258.134 194.869 257.213 195.697V195.754ZM152.813 126.634C153.426 126.812 153.997 127.111 154.492 127.515C154.986 127.918 155.395 128.417 155.693 128.981C156.212 130.086 156.525 131.277 156.614 132.495C155.707 130.954 155.045 129.701 154.858 129.529C154.354 129.025 150.667 129.356 149.702 128.089C148.738 126.821 151.33 126.202 152.813 126.577V126.634ZM138.326 121.277C139.925 119.42 145.526 116.194 145.526 116.554C146.232 117.029 149.026 121.321 151.675 125.713C149.602 125.713 147.859 126.965 148.997 128.593C150.134 130.22 152.813 130.033 154.238 130.277C155.273 131.9 156.183 133.6 156.96 135.361C155.52 136.181 150.998 138.889 149.947 139.407C148.205 137.362 138.787 122.314 138.326 121.277ZM157.493 154.613C154.434 150.109 151.779 145.343 149.558 140.372C149.846 140.487 150.12 140.372 150.494 140.141C151.934 139.393 156.398 136.757 157.694 135.994C158.256 135.649 157.81 134.785 157.507 134.108C165.888 140.876 175.147 152.482 175.421 152.569C177.374 152.393 179.304 152.017 181.181 151.445C182.506 154.973 185.501 161.842 186.941 165.068C176.832 158.285 166.594 153.85 157.493 154.613ZM160.128 203.833C173.088 206.641 182.362 208.613 188.928 209.463C186.898 214.921 184.522 222.25 182.189 230.069C166.954 226.585 153.691 223.546 150.638 222.97C155.419 213.423 159.682 204.769 160.128 203.833ZM139.594 267.193C139.261 267.315 138.897 267.327 138.557 267.226C138.217 267.125 137.919 266.916 137.707 266.631C137.16 264.701 140.803 247.997 143.352 237.025C144.533 234.793 145.771 232.388 147.024 229.954L151.142 230.977C148.982 239.041 140.904 265.292 139.594 267.193ZM173.75 276.178C173.416 276.302 173.051 276.313 172.71 276.209C172.369 276.105 172.072 275.892 171.864 275.602C171.648 272.722 175.723 255.327 180.504 237.889L186.71 239.329C180.864 256.45 174.917 274.09 173.75 276.178ZM240.422 279.058C240.162 279.298 239.827 279.442 239.473 279.465C239.12 279.489 238.769 279.391 238.478 279.188C237.226 277.561 234.461 259.964 232.834 248.602C237.686 249.236 237.83 248.933 238.594 248.257C239.616 259.777 240.826 277.258 240.48 279.029L240.422 279.058ZM274.464 275.991C274.207 276.211 273.885 276.342 273.547 276.363C273.209 276.383 272.874 276.293 272.592 276.106C270.922 273.14 265.392 227.938 263.275 210.457C264.398 208.455 265.493 206.482 266.544 204.567H268.762C270.043 215.583 274.896 272.002 274.464 275.962V275.991ZM277.056 198.404C278.107 198.721 277.704 203.041 276.61 203.156C274.536 203.357 271.21 203.501 267.077 203.617C268.286 201.399 269.438 199.297 270.504 197.266C272.717 197.435 274.91 197.806 277.056 198.375V198.404ZM276.696 182.564C275.256 187.517 244.843 243.332 237.442 247.969C234.403 249.884 153.634 231.077 147.211 229.609C148.291 227.521 149.386 225.389 150.437 223.287C177.797 229.609 235.109 243.562 236.75 242.756C238.637 241.82 270.259 184.537 272.837 180.951C274.161 181.38 275.452 181.91 276.696 182.535V182.564ZM279.792 168.409C278 172.429 276.171 176.432 274.306 180.418C273.744 180.202 273.24 180.029 272.966 179.957C272.844 179.9 272.708 179.884 272.576 179.909C272.444 179.935 272.323 180.003 272.232 180.101C271.685 180.706 267.912 187.301 263.016 195.941C261.461 195.869 259.819 195.812 258.12 195.783C258.881 194.89 259.379 193.803 259.56 192.644C259.819 191.089 259.128 185.847 258.566 182.074C260.41 181.714 261.634 181.253 261.734 180.634C262.123 178.604 258.235 170.684 257.069 168.495C259.358 164.823 260.971 162.375 261.389 161.813C264.658 158.055 280.325 165.5 279.792 168.38V168.409Z" fill="black"/>
</svg>
