<svg width="288" height="288" viewBox="0 0 288 288" fill="none" xmlns="http://www.w3.org/2000/svg">
<path d="M168.363 232.333C165.179 229.986 163.132 229.259 159.629 227.947C155.441 226.377 151.047 226.988 147.257 227.683C141.759 228.693 120.728 232.078 124.52 235.949C127.08 238.558 132.093 241.649 137.043 242.259C142.5 242.937 148.297 240.97 153.151 239.751C156.669 238.862 158.549 238.617 165.05 236.976C166.7 236.557 169.417 236.201 169.74 234.65C169.974 233.523 168.762 232.627 168.363 232.333ZM165.46 235.399C163.722 235.792 162.399 236.213 156.896 237.409C148.474 239.237 143.024 241.549 137.219 240.831C132.611 240.26 127.938 237.379 125.536 235.042C125.863 234.195 130.645 232.528 136.2 231.327C140.286 230.444 144.394 229.672 147.516 229.099C151.482 228.372 155.361 227.887 159.124 229.295C162.592 230.594 164.477 231.256 167.508 233.492C168.291 234.07 168.33 234.354 168.33 234.354C168.176 234.78 166.203 235.228 165.46 235.399Z" fill="black"/>
<path d="M191.236 210.028C189.976 209.076 187.944 207.973 185.372 206.576C180.506 203.931 172.926 199.673 165.804 196.544C163.1 195.356 158.067 194.905 153.835 195.471C147.493 196.319 100.343 204.876 77.6297 210.089C51.3195 216.128 41.1343 219.482 37.2233 221.234C36.1591 221.711 35.5515 222.303 35.4204 222.994C35.2476 223.897 35.9043 224.443 36.3334 224.893C39.8412 228.574 43.9596 231.045 48.8859 233.769C55.9059 237.653 62.0518 241.377 69.6679 241.377C74.3177 241.377 81.5609 239.309 91.9865 236.508C115.549 230.181 121.854 228.701 161.29 220.676C176.377 217.605 188.293 215.18 190.497 214.384C193.2 213.406 193.612 211.828 191.234 210.031L191.236 210.028ZM37.3788 223.9C36.9036 223.401 36.3233 223.214 37.8137 222.548C40.9659 221.136 50.3748 217.821 77.9523 211.491C100.634 206.286 147.699 197.743 154.026 196.898C157.364 196.452 162.436 196.636 165.225 197.862C166.435 198.393 168.017 199.122 169.977 200.076C127.344 206.944 84.2523 216.243 41.8443 227.75C39.3747 225.992 38.2443 224.807 37.3788 223.9ZM43.4139 228.824C86.0436 217.303 129.355 207.996 172.182 201.171C176.678 203.433 180.056 205.309 182.828 206.828C139.54 213.188 96.3511 222.706 54.4198 235.163C50.9681 233.303 46.5487 230.888 43.4139 228.824ZM190.009 213.028C185.791 214.551 140.571 223.083 118.465 228.257C96.7975 233.329 80.7185 238.468 72.7884 239.702C68.8529 240.313 64.5502 239.604 62.0287 238.629C59.4699 237.639 58.2588 237.158 56.2558 236.132C98.2822 223.723 141.551 214.24 184.91 207.965C187.318 209.272 189.23 210.318 190.366 211.177C191.665 212.159 191.728 212.407 190.008 213.028H190.009Z" fill="black"/>
<path d="M228.145 221.755C215.68 212.615 187.121 197.012 172.621 190.64C169.96 189.471 165.731 188.747 161.3 188.59C166.448 186.31 168.931 182.345 169.399 178.071C170.346 169.405 170.98 158.217 171.319 146.314C168.193 147.158 164.903 147.669 161.683 147.893C161.493 155.705 161.124 162.933 160.551 168.799C160.226 172.121 158.056 175.068 154.883 176.494C132.205 186.685 69.6411 202.165 31.3227 204.192C26.2841 204.452 21.7784 201.115 20.8611 196.412C15.5489 169.147 15.824 133.555 20.2462 112.452C20.7948 109.837 22.5214 107.533 24.9852 106.131C46.6932 93.7892 123.817 77.2552 149.622 77.284C154.636 77.2897 158.879 80.848 159.549 85.5668C163.209 85.7008 166.966 86.3617 170.559 87.4532C170.373 84.7144 170.163 82.1972 169.928 79.9566C169.26 73.5371 163.927 68.5936 157.52 68.4596C128.896 67.8678 42.019 85.7368 17.2035 100.016C14.0513 101.829 11.8093 104.877 11.0533 108.379C5.6043 133.604 4.69998 175.644 10.0813 207.758C11.1209 213.964 16.6275 218.656 23.1492 218.425C23.9772 218.395 24.8153 218.358 25.662 218.316C23.8304 218.977 22.242 219.605 20.9331 220.191C19.506 220.829 18.0286 221.854 18.2734 223.393C17.2452 226.764 17.9062 232.987 18.9833 234.103C25.3625 240.705 31.9721 246.436 43.5944 252.867C56.0446 259.753 67.4422 264.597 74.8136 267.449C79.0025 269.069 87.0075 269.911 94.1772 268.798C104.665 267.166 122.542 262.944 147.289 257.115C167.277 252.408 206.673 243.463 225.988 236.487C228.512 235.576 229.392 230.752 229.602 229.294C229.976 226.684 230.161 223.238 228.14 221.757L228.145 221.755ZM228.04 223.984C227.976 224.419 227.276 225.111 225.501 225.753C197.975 235.697 127.43 251.077 93.9584 256.281C87.7174 257.252 79.711 256.706 75.3334 255.013C59.9657 249.068 31.4523 235.481 20.0158 223.719C19.7523 223.448 19.64 223.202 19.6817 222.986C20.7344 217.488 140.6 189.992 159.524 189.992C164.377 189.992 169.183 190.704 172.041 191.96C186.317 198.234 214.921 213.848 227.292 222.917C227.596 223.138 228.099 223.575 228.04 223.984Z" fill="black"/>
<path d="M104.443 119.264C102.767 115.85 98.3415 115.285 95.1346 116.704C91.0234 118.523 88.934 123.231 87.6754 127.259C84.902 136.129 84.722 149.556 92.2056 155.145C96.5055 158.356 102.775 157.764 106.672 154.117C107.107 153.709 106.655 152.811 106.056 153.06C102.875 154.38 99.0183 157.187 94.2245 154.351C87.0778 150.124 86.9036 138.469 88.6834 130.329C89.533 126.447 90.8578 122.134 93.8804 119.368C96.6653 116.82 101.685 116.154 104.23 119.43C104.329 119.558 104.505 119.395 104.441 119.266L104.443 119.264Z" fill="black"/>
<path d="M85.0423 112.633C80.0628 115.055 77.3326 120.138 75.5167 125.144C73.3913 131 72.5417 137.316 72.9204 143.529C73.5843 154.442 78.2887 167.612 88.5401 171.221C93.4822 172.96 99.9118 172.376 103.194 167.881C103.515 167.442 102.845 167.009 102.478 167.33C99.0017 170.367 94.195 171.27 89.7943 169.998C85.0193 168.62 81.4524 164.762 79.1095 160.527C73.6865 150.724 73.0414 138.442 76.0366 127.789C77.609 122.196 80.2918 116.358 85.2554 113C85.483 112.846 85.2886 112.513 85.0423 112.633Z" fill="black"/>
<path d="M114.574 119.033C115.142 119.028 115.704 119.027 116.26 119.024C110.971 107.022 99.9864 103.796 92.3516 107.966C92.1903 108.055 92.2997 108.312 92.4768 108.263C103.111 105.273 110.661 110.648 114.574 119.033Z" fill="black"/>
<path d="M115.315 146.699C115.129 147.18 114.932 147.656 114.723 148.126C113.748 150.319 112.491 152.361 111.34 154.462C111.042 155.006 111.745 155.558 112.199 155.124C114.585 152.849 116.317 149.595 117.468 145.969C116.748 146.214 116.029 146.457 115.315 146.699Z" fill="black"/>
<path d="M63.9504 121.853C70.6392 101.157 88.4146 92.5111 102.876 97.4416C107.315 98.9551 111.079 101.779 114.227 105.212C114.591 105.609 115.26 105.094 114.974 104.636C110.376 97.2948 100.706 93.9295 92.3587 94.6812C79.007 95.8836 67.0867 106.257 63.6754 121.778C63.6365 121.956 63.8942 122.027 63.9504 121.853Z" fill="black"/>
<path d="M66.184 166.085C68.848 174.588 76.1589 180.928 84.6318 183.324C93.5915 185.859 103.157 183.494 110.53 177.982C114.186 175.249 119.176 170.062 120.423 166.054C120.599 165.489 119.768 164.937 119.373 165.444C118.005 167.201 116.958 169.185 115.544 170.92C111.321 176.107 105.744 179.854 99.6554 181.619C85.6456 185.68 71.2686 177.851 66.6131 165.965C66.5109 165.705 66.0962 165.805 66.184 166.085Z" fill="black"/>
<path d="M150.112 135.396C148.256 136.213 146.317 136.875 144.355 137.107C142.562 137.322 141.691 136.387 139.622 136.239C139.054 136.199 137.417 136.587 135.531 137.11C131.575 136.834 127.893 127.544 130.568 122.091C130.754 121.714 131.019 121.338 131.348 121.02C136.081 119.965 136.225 119.882 137.622 117.952C140.245 114.328 143.77 111.484 147.764 109.397C147.787 108.847 147.813 108.296 147.844 107.744C143.341 109.97 139.34 113.114 136.369 117.228C135.565 118.341 135.31 118.548 134.243 118.816C133.892 118.487 132.752 118.096 128.64 118.295C125.939 118.425 103.596 117.911 95.7421 119.221C95.3504 119.286 95.084 119.657 95.1502 120.049C95.215 120.441 95.5866 120.707 95.9783 120.641C103.702 119.353 125.894 119.867 128.709 119.734C129.028 119.718 129.812 119.711 130.653 119.719C130.095 120.171 129.615 120.765 129.275 121.457C126.362 127.392 129.959 136.491 133.777 138.157C134.212 138.347 134.848 138.515 135.515 138.551C128.03 141.911 101.865 150.517 97.8488 151.551C97.0338 151.761 97.185 152.968 98.0274 152.968C99.1736 152.968 134.235 141.43 138.009 138.878C138.468 138.567 138.283 138.107 138.242 137.889C138.303 137.873 138.362 137.859 138.424 137.843C140.807 137.234 141.809 138.858 144.525 138.536C146.541 138.295 148.547 137.63 150.451 136.811C150.334 136.341 150.222 135.869 150.111 135.395L150.112 135.396Z" fill="black"/>
<path d="M179.995 113.029C180.09 115.267 180.246 116.932 180.551 119.054C183.156 118.431 183.37 116.266 182.118 114.669C181.621 114.037 180.882 113.494 179.995 113.029Z" fill="black"/>
<path d="M138.064 132.48C144.458 131.037 150.008 126.386 152.549 120.345C152.67 120.056 152.964 119.88 153.276 119.907C158.921 120.405 164.719 119.649 170.045 117.721C171.612 117.155 171.412 116.486 169.911 115.764C162.16 112.039 153.007 111.381 144.802 113.956C144.422 114.075 144.019 113.864 143.899 113.485C143.78 113.106 143.991 112.701 144.37 112.582C152.921 109.899 162.456 110.586 170.533 114.467C172.054 115.197 172.777 116.237 172.518 117.321C172.279 118.326 171.332 118.787 170.535 119.075C165.175 121.015 159.359 121.809 153.667 121.383C150.861 127.611 145.051 132.378 138.382 133.884C137.444 134.094 137.145 132.689 138.064 132.48Z" fill="black"/>
<path d="M235.04 20.2687C217.918 15.9703 199.663 20.5812 183.636 33.2503C160.587 51.4706 147.223 82.4479 146.943 112.632C147.423 112.519 147.904 112.42 148.386 112.328C148.5 103.769 149.688 95.1919 151.816 86.8889C160.932 85.0068 172.921 87.606 181.349 93.2825C177.286 109.697 179.277 125.6 185.649 136.432C180.17 144.888 165.842 147.926 154.508 147.188C151.916 140.608 150.186 133.741 149.243 126.748C148.837 127.187 148.412 127.611 147.972 128.015C149.102 135.757 151.171 143.285 154.243 150.356C165.164 175.479 185.41 187.623 205.991 187.623C237.309 187.62 268.083 159.537 278.201 119.227C288.671 77.5087 273.06 29.8101 235.04 20.2687ZM257.206 34.0077C258.653 47.5553 252.094 58.2213 240.015 62.0157C234.867 55.6207 227.83 52.0121 219.856 52.2741C218.228 41.2999 211.533 30.6741 202.152 24.1077C222.371 16.1532 242.604 20.5308 257.204 34.0077H257.206ZM202.45 148.23C185.119 143.88 176.304 119.283 182.799 93.4005C187.669 73.9951 202.375 53.6868 220.622 53.6868C230.044 53.6868 239.687 59.6297 244.728 73.5516C252.513 95.045 245.026 124.87 228.014 140.14C219.871 147.45 210.793 150.322 202.45 148.23ZM245.294 170.809C244.227 160.328 238.503 149.512 229.399 140.817C238.301 132.628 244.195 121.07 247.117 109.284C257.934 113.052 268.692 113.11 278.905 108.23C275.043 134.33 262.284 156.746 245.294 170.809Z" fill="black"/>
</svg>
