<svg width="55" height="55" viewBox="0 0 55 55" fill="none" xmlns="http://www.w3.org/2000/svg">
<path d="M44.6875 5.15625H15.4688C13.6454 5.15625 11.8967 5.88058 10.6074 7.16989C9.31808 8.4592 8.59375 10.2079 8.59375 12.0312V48.125C8.59375 48.5808 8.77483 49.018 9.09716 49.3403C9.41949 49.6627 9.85666 49.8438 10.3125 49.8438H41.25C41.7058 49.8438 42.143 49.6627 42.4653 49.3403C42.7877 49.018 42.9688 48.5808 42.9688 48.125C42.9688 47.6692 42.7877 47.232 42.4653 46.9097C42.143 46.5873 41.7058 46.4062 41.25 46.4062H12.0312C12.0312 45.4946 12.3934 44.6202 13.0381 43.9756C13.6827 43.3309 14.5571 42.9688 15.4688 42.9688H44.6875C45.1433 42.9688 45.5805 42.7877 45.9028 42.4653C46.2252 42.143 46.4062 41.7058 46.4062 41.25V6.875C46.4062 6.41916 46.2252 5.98199 45.9028 5.65966C45.5805 5.33733 45.1433 5.15625 44.6875 5.15625ZM42.9688 39.5312H15.4688C14.2616 39.5296 13.0756 39.8476 12.0312 40.4529V12.0312C12.0312 11.1196 12.3934 10.2452 13.0381 9.60057C13.6827 8.95591 14.5571 8.59375 15.4688 8.59375H42.9688V39.5312Z" fill="#045BC0"/>
</svg>
