<svg width="288" height="288" viewBox="0 0 288 288" fill="none" xmlns="http://www.w3.org/2000/svg">
<path d="M223.2 13.9252C217.022 13.6804 211.68 19.6852 212.573 25.546C212.995 27.5886 214.04 29.45 215.564 30.8737C217.088 32.2974 219.016 33.2131 221.083 33.4948C226.843 34.2436 233.121 29.434 232.905 23.4148C232.726 20.9207 231.639 18.5786 229.851 16.8304C228.063 15.0823 225.697 14.0489 223.2 13.9252ZM227.059 29.2036L222.739 26.3236L217.109 29.8372L219.024 24.5236L215.885 22.4932L220.089 21.802L222.739 17.554L224.337 20.9092L229.233 20.6932L225.619 24.1924L227.059 29.2036ZM162.907 90.5332C163.872 90.2884 165.053 89.4244 164.923 88.33C164.793 87.2356 163.613 86.674 162.662 86.6308C161.136 86.6308 159.609 88.0708 159.869 89.2084C160.128 90.346 161.654 90.8356 162.907 90.5332ZM120.456 248.4C121.873 247.22 123.136 245.865 124.214 244.368C126.072 241.762 128.793 237.975 127.771 233.856C127.123 231.207 124.733 227.751 121.305 227.636C117.878 227.52 115.113 231.149 114.293 233.799C113.155 237.413 114.854 240.696 115.992 242.871C117.095 244.994 118.613 246.875 120.456 248.4ZM118.08 235.152C118.08 234.583 118.249 234.026 118.565 233.552C118.882 233.079 119.331 232.71 119.858 232.492C120.384 232.274 120.963 232.217 121.522 232.328C122.08 232.439 122.594 232.713 122.996 233.116C123.399 233.519 123.673 234.032 123.785 234.591C123.896 235.149 123.839 235.728 123.621 236.255C123.403 236.781 123.034 237.231 122.56 237.547C122.086 237.863 121.529 238.032 120.96 238.032C120.196 238.032 119.463 237.729 118.923 237.189C118.383 236.649 118.08 235.916 118.08 235.152ZM219.513 247.997C219.686 242.511 216.633 238.81 214.445 238.81C212.256 238.81 209.203 242.511 209.361 247.997H219.513ZM220.838 245.348L224.337 245.42C224.639 244.154 224.465 242.821 223.848 241.676C222.638 239.559 220.694 238.594 219.384 240.624C220.329 242.018 220.836 243.663 220.838 245.348ZM204.48 245.42L207.979 245.348C207.983 243.666 208.484 242.023 209.419 240.624C208.094 238.594 206.15 239.573 204.955 241.676C204.341 242.823 204.172 244.156 204.48 245.42ZM214.445 237.687C215.12 237.747 215.798 237.6 216.387 237.265C216.976 236.93 217.449 236.423 217.742 235.811C218.035 235.2 218.134 234.513 218.026 233.844C217.918 233.175 217.609 232.554 217.138 232.066C216.668 231.578 216.059 231.245 215.395 231.112C214.73 230.979 214.04 231.052 213.418 231.322C212.796 231.592 212.272 232.046 211.915 232.622C211.558 233.199 211.385 233.87 211.421 234.548C211.444 235.353 211.767 236.121 212.326 236.702C212.885 237.282 213.64 237.633 214.445 237.687ZM206.928 238.608C207.521 238.554 208.072 238.277 208.47 237.834C208.868 237.391 209.083 236.814 209.073 236.218C209.032 235.798 208.869 235.4 208.604 235.072C208.34 234.743 207.986 234.498 207.585 234.367C207.185 234.236 206.755 234.225 206.347 234.334C205.94 234.443 205.573 234.668 205.292 234.982C205.01 235.295 204.826 235.684 204.761 236.101C204.697 236.517 204.754 236.944 204.928 237.328C205.101 237.713 205.383 238.038 205.738 238.265C206.093 238.493 206.506 238.612 206.928 238.608ZM221.961 238.608C222.555 238.554 223.105 238.277 223.503 237.834C223.901 237.391 224.117 236.814 224.107 236.218C224.065 235.798 223.902 235.4 223.638 235.072C223.374 234.743 223.02 234.498 222.619 234.367C222.218 234.236 221.788 234.225 221.381 234.334C220.974 234.443 220.607 234.668 220.325 234.982C220.044 235.295 219.859 235.684 219.795 236.101C219.73 236.517 219.788 236.944 219.961 237.328C220.135 237.713 220.416 238.038 220.771 238.265C221.126 238.493 221.54 238.612 221.961 238.608ZM127.31 94.6804C126.298 94.7583 125.287 94.5056 124.43 93.9604C124.813 92.6959 125.444 91.5208 126.288 90.5044C126.351 90.4115 126.379 90.2993 126.367 90.1877C126.355 90.076 126.304 89.9722 126.223 89.8946C126.142 89.817 126.036 89.7706 125.924 89.7636C125.812 89.7566 125.701 89.7895 125.611 89.8564C125.107 90.3748 122.918 93.5428 123.336 94.5652C123.753 95.5876 127.152 96.1492 127.915 95.4148C128.012 95.3346 128.074 95.219 128.086 95.0934C128.098 94.9678 128.06 94.8426 127.98 94.7452C127.9 94.6478 127.784 94.5863 127.658 94.5741C127.533 94.562 127.408 94.6002 127.31 94.6804ZM135.777 101.967C138.935 101.864 141.971 100.725 144.417 98.7268C144.298 99.7145 143.973 100.666 143.462 101.52C142.951 102.373 142.266 103.109 141.451 103.68C141.356 103.738 141.287 103.831 141.26 103.939C141.233 104.047 141.25 104.161 141.307 104.256C141.364 104.352 141.457 104.421 141.565 104.448C141.673 104.475 141.788 104.458 141.883 104.4C143.152 103.701 144.19 102.648 144.873 101.37C145.555 100.092 145.852 98.6438 145.728 97.2004C145.721 97.0751 145.677 96.9547 145.603 96.8536C145.529 96.7525 145.427 96.6751 145.309 96.6309C145.192 96.5867 145.064 96.5775 144.942 96.6045C144.819 96.6314 144.707 96.6934 144.619 96.7828C142.308 99.2679 139.135 100.777 135.749 101.002C135.606 101.009 135.472 101.072 135.375 101.177C135.278 101.282 135.226 101.421 135.23 101.564C135.265 101.681 135.337 101.785 135.436 101.857C135.535 101.93 135.655 101.969 135.777 101.967ZM136.454 70.0564C136.294 70.0564 136.14 70.1201 136.027 70.2335C135.913 70.347 135.849 70.5008 135.849 70.6612C135.849 70.8216 135.913 70.9754 136.027 71.0889C136.14 71.2023 136.294 71.266 136.454 71.266C137.617 71.3228 138.752 71.6395 139.776 72.1927C140.8 72.7459 141.688 73.5216 142.373 74.4628C142.444 74.5473 142.542 74.6036 142.651 74.6214C142.76 74.6392 142.872 74.6173 142.966 74.5598C143.06 74.5023 143.13 74.4129 143.164 74.3079C143.198 74.2029 143.193 74.0893 143.15 73.9876C142.476 72.8031 141.503 71.8164 140.328 71.1264C139.153 70.4365 137.817 70.0675 136.454 70.0564ZM119.246 71.0356C118.288 71.845 117.057 72.2572 115.805 72.1876C115.675 72.1813 115.549 72.2235 115.449 72.3059C115.349 72.3883 115.284 72.505 115.266 72.6331C115.248 72.7611 115.279 72.8913 115.352 72.998C115.425 73.1048 115.535 73.1804 115.661 73.21C116.435 73.3725 117.237 73.3545 118.004 73.1572C118.77 72.9599 119.481 72.5887 120.081 72.0724C120.657 71.5252 119.894 70.5604 119.246 71.0356ZM117.921 85.7668C117.921 85.1188 117.576 82.4692 117.59 81.85C117.59 81.7163 117.537 81.5881 117.443 81.4936C117.348 81.3991 117.22 81.346 117.086 81.346C116.955 81.342 116.827 81.3895 116.73 81.4782C116.634 81.567 116.575 81.6901 116.568 81.8212C116.49 83.1881 116.49 84.5583 116.568 85.9252C116.589 86.1047 116.68 86.2685 116.822 86.3806C116.892 86.4361 116.973 86.4772 117.059 86.5016C117.145 86.526 117.235 86.5332 117.324 86.5228C117.413 86.5124 117.499 86.4846 117.577 86.441C117.655 86.3974 117.724 86.3388 117.779 86.2686C117.835 86.1984 117.876 86.1179 117.9 86.0318C117.925 85.9457 117.932 85.8557 117.921 85.7668ZM138.24 85.4212C138.24 84.946 137.952 83.0452 137.966 82.5412C137.966 82.4075 137.913 82.2793 137.819 82.1848C137.724 82.0903 137.596 82.0372 137.462 82.0372C137.329 82.0372 137.2 82.0903 137.106 82.1848C137.011 82.2793 136.958 82.4075 136.958 82.5412C136.958 83.0596 136.814 85.0612 136.872 85.5796C136.875 85.6754 136.897 85.7696 136.938 85.8562C136.979 85.9428 137.038 86.02 137.11 86.0827C137.183 86.1455 137.267 86.1925 137.359 86.2207C137.451 86.249 137.547 86.2579 137.642 86.2468C137.737 86.2358 137.829 86.2051 137.912 86.1567C137.995 86.1083 138.067 86.0431 138.123 85.9655C138.179 85.8879 138.218 85.7994 138.239 85.7057C138.259 85.612 138.259 85.5151 138.24 85.4212Z" fill="black"/>
<path d="M70.9919 148.321C70.9765 148.367 70.9765 148.418 70.9919 148.465C77.2856 162.643 87.5423 174.702 100.528 183.188C113.513 191.675 128.674 196.229 144.187 196.302C189.173 196.302 226.037 158.444 224.15 112.105C223.472 95.4791 217.458 79.5139 207 66.5719C198.854 56.5605 188.418 48.6577 176.573 43.5319C176.725 43.0127 176.84 42.4833 176.918 41.9479C177.725 36.6919 175.478 33.1783 171.489 29.6215C169.485 27.894 167.379 26.2879 165.182 24.8119C163.002 23.1783 160.482 22.0562 157.809 21.5287C156.387 21.2417 154.916 21.2942 153.518 21.682C152.119 22.0698 150.832 22.782 149.76 23.7607C149.357 24.1783 149.011 24.8407 148.579 25.0999C147.949 25.2906 147.285 25.3349 146.635 25.2295C142.23 25.2288 137.872 26.1291 133.828 27.875C129.784 29.6208 126.14 32.1753 123.12 35.3815C121.311 35.6859 119.602 36.4256 118.142 37.5368C116.682 38.6481 115.514 40.0977 114.739 41.7607C71.6831 59.6311 53.3663 106.561 70.9919 148.321ZM119.621 160.388C117.942 154.853 117.212 149.074 117.461 143.295C117.677 138.485 118.022 130.45 123.221 127.081C124.842 125.955 126.611 125.059 128.477 124.417C126.821 133.589 130.032 142.82 133.92 151.201C131.457 152.079 121.881 158.962 119.621 160.417V160.388ZM131.141 124.388C131.011 122.948 130.349 118.628 130.248 117.951C130.228 117.651 130.132 117.361 129.968 117.109C129.804 116.857 129.578 116.651 129.312 116.511C128.837 116.266 126.72 115.546 126.158 115.258C119.52 112.004 114.566 104.257 115.2 92.9527C116.951 93.2076 118.736 93.1245 120.456 92.7079C122.717 92.0311 124.128 89.8999 124.632 86.3863C124.958 86.0884 125.343 85.8637 125.763 85.7271C126.183 85.5905 126.627 85.5452 127.065 85.5943C127.96 85.6707 128.826 85.9463 129.6 86.4007C129.764 87.5439 130.193 88.6329 130.853 89.5806C131.513 90.5282 132.386 91.3083 133.401 91.8583C135.682 92.9598 138.298 93.1437 140.709 92.372C143.121 91.6002 145.145 89.9317 146.361 87.7111C146.977 86.481 147.363 85.1487 147.499 83.7799C149.95 83.9278 152.409 83.7192 154.8 83.1607C154.8 83.8951 154.8 85.2199 155.275 85.4791C156.859 86.2711 159.595 79.9063 163.44 79.9063C164.645 79.9831 165.781 80.4948 166.637 81.3463C167.3 81.8366 167.84 82.4742 168.215 83.2089C168.59 83.9435 168.789 84.7552 168.797 85.5799C168.706 86.3061 168.473 87.0072 168.109 87.6425C167.746 88.2778 167.26 88.8346 166.68 89.2807C164.96 90.8988 162.704 91.8267 160.344 91.8871C160.295 91.8927 160.247 91.9105 160.207 91.9387C160.166 91.9669 160.132 92.0047 160.11 92.0488C160.087 92.0929 160.075 92.142 160.076 92.1916C160.077 92.2413 160.09 92.29 160.114 92.3335C162.47 96.2407 164.127 100.529 165.009 105.005C164.232 113.487 163.901 117.101 163.742 118.858C162.417 134.698 156.96 147.86 148.176 161.122C146.208 163.906 144.556 166.9 143.251 170.05C138.398 154.801 126.389 140.516 129.427 124.316C129.679 124.213 129.939 124.131 130.205 124.071C130.205 124.292 130.248 124.479 130.334 124.633C130.345 124.686 130.365 124.736 130.395 124.781C130.425 124.826 130.464 124.865 130.508 124.895C130.553 124.925 130.603 124.946 130.656 124.956C130.709 124.967 130.764 124.967 130.817 124.957C130.87 124.946 130.92 124.926 130.965 124.896C131.01 124.866 131.049 124.827 131.079 124.783C131.109 124.738 131.13 124.688 131.14 124.635C131.151 124.582 131.151 124.527 131.141 124.474V124.388ZM140.76 64.1671C140.007 63.5563 139.161 63.0701 138.254 62.7271C144.014 62.1943 148.464 60.5527 152.395 55.9303C152.827 56.1607 155.275 57.3703 155.649 57.6151C159.825 64.1095 157.536 66.7591 156.009 74.7511C155.549 77.1559 155.088 79.6615 154.829 81.8647C152.443 82.4703 149.989 82.7703 147.528 82.7575C147.643 81.6199 147.701 80.3959 147.859 79.2151C148.155 79.0959 148.403 78.8818 148.564 78.6064C148.725 78.3309 148.79 78.0098 148.749 77.6933C148.708 77.3769 148.563 77.0831 148.337 76.8581C148.11 76.6331 147.816 76.4897 147.499 76.4503L130.219 76.0327C129.958 76.0486 129.706 76.1355 129.49 76.284C129.275 76.4325 129.104 76.6369 128.995 76.8754C128.887 77.1138 128.846 77.3772 128.877 77.6372C128.907 77.8972 129.008 78.144 129.168 78.3511C129.068 80.5949 129.14 82.8431 129.384 85.0759C128.66 84.7136 127.866 84.5155 127.057 84.4956C126.248 84.4757 125.444 84.6345 124.704 84.9607C124.825 82.966 124.748 80.9641 124.473 78.9847C124.67 78.8031 124.816 78.574 124.898 78.3194C124.98 78.0648 124.995 77.7934 124.941 77.5314C124.888 77.2694 124.768 77.0256 124.592 76.8236C124.417 76.6216 124.193 76.4682 123.941 76.3783C123.797 76.3783 124.027 76.3783 114.797 76.1479C114.912 73.2679 114.955 65.2759 116.237 61.3735C123.581 66.8599 132.523 68.5735 140.717 64.6279C140.771 64.5829 140.805 64.519 140.813 64.4493C140.821 64.3796 140.802 64.3095 140.76 64.2535V64.1671ZM146.952 79.3303C146.578 81.5623 146.736 83.9095 145.915 85.9975C145.061 88.1317 143.417 89.8542 141.324 90.8065C139.232 91.7587 136.853 91.8672 134.683 91.1095C133.621 90.752 132.682 90.0986 131.978 89.2262C131.274 88.3539 130.834 87.2987 130.709 86.1847C130.353 83.802 130.204 81.3931 130.262 78.9847C132.595 79.2007 144.763 79.3735 146.952 79.4167V79.3303ZM123.494 79.3303C123.883 82.9591 124.085 89.4103 120.859 91.1959C119.901 91.612 118.866 91.8229 117.821 91.8151C116.907 91.8944 115.987 91.8509 115.085 91.6855C114.153 91.5313 113.283 91.123 112.569 90.5055C111.855 89.8881 111.325 89.0855 111.038 88.1863C110.357 85.1691 110.076 82.0753 110.203 78.9847L123.494 79.3303ZM143.481 186.884C140.069 181.441 128.16 163.009 125.021 158.401C127.812 155.935 130.909 153.839 134.237 152.165C135.201 154.009 141.437 166.81 142.718 171.937C142.751 172.051 142.82 172.151 142.915 172.222C143.01 172.293 143.125 172.332 143.244 172.332C143.362 172.332 143.478 172.293 143.573 172.222C143.667 172.151 143.737 172.051 143.769 171.937C145.785 164.132 150.753 160.604 156.571 148.479C159.847 150.311 162.828 152.627 165.413 155.348C162.72 160.085 148.32 181.253 143.481 186.956V186.884ZM169.92 157.479C161.568 149.689 158.155 147.903 157.104 147.5C161.153 139.029 163.738 129.934 164.75 120.601C168.926 123.841 173.246 127.023 177.105 130.551C176.27 134.482 171.691 152.036 169.92 157.479ZM176.328 44.4247C212.861 60.9847 232.488 100.369 218.621 142.201C211.522 139.133 184.205 130.796 177.955 129.831C176.198 128.161 167.875 121.695 164.894 119.434C164.894 118.743 164.779 120.759 165.931 106.777C165.931 106.618 169.142 90.6487 170.496 87.1639C171.221 85.3209 172.103 83.5433 173.131 81.8503C174.814 78.8063 175.326 75.252 174.571 71.8567C174.29 70.7788 173.801 69.7662 173.131 68.8759C174.593 67.4438 175.595 65.6092 176.011 63.6055C176.4 60.5671 174.888 57.6151 173.419 55.0663C174.501 53.364 175.116 51.4076 175.205 49.3927C175.165 48.6285 174.948 47.884 174.571 47.2183C175.325 46.4149 175.904 45.4636 176.27 44.4247H176.328ZM116.885 40.6951C121.205 34.5751 129.845 36.1159 137.145 37.5847C145.967 39.3834 154.549 42.2007 162.72 45.9799C162.812 46.0276 162.918 46.037 163.017 46.0059C163.116 45.9749 163.198 45.9059 163.245 45.8143C163.293 45.7226 163.303 45.6158 163.272 45.5172C163.24 45.4186 163.172 45.3364 163.08 45.2887C155.179 41.4037 146.832 38.5021 138.225 36.6487C134.121 35.7703 129.211 34.7479 124.949 35.2087C129.858 30.5909 136.104 27.6468 142.79 26.7991C147.355 26.2231 148.665 27.1591 149.904 25.6183C150.519 24.7668 151.316 24.0633 152.237 23.5591C154.613 22.3207 158.083 22.1191 162.23 24.4807C164.469 25.7626 166.61 27.2064 168.638 28.8007C170.671 30.2714 172.472 32.0382 173.981 34.0423C175.398 35.9137 176.079 38.2397 175.896 40.5799C175.828 42.6351 175.101 44.6141 173.822 46.2247C173.259 45.5744 172.643 44.9723 171.979 44.4247C168.552 41.5447 157.032 33.4231 154.699 31.9975C154.602 31.9364 154.484 31.9165 154.372 31.9421C154.26 31.9678 154.163 32.0369 154.102 32.1343C154.04 32.2317 154.02 32.3493 154.046 32.4614C154.072 32.5735 154.141 32.6708 154.238 32.7319C157.507 34.7767 167.587 42.3223 170.078 44.4391C171.691 45.7783 173.246 46.9879 173.707 48.4135C174.398 50.6167 173.131 52.7335 172.267 54.7783C172.224 54.8743 172.211 54.9815 172.232 55.0848C172.253 55.1881 172.305 55.2824 172.382 55.3543C173.678 57.6871 175.176 60.9559 174.758 63.6055C174.356 65.2467 173.503 66.7429 172.296 67.9255C166.392 60.8983 152.323 53.0215 142.963 49.4935C131.99 45.3031 118.137 45.2887 114.365 46.8583C114.748 44.6454 115.608 42.5424 116.885 40.6951ZM114.005 43.4455C113.549 44.7924 113.231 46.1818 113.054 47.5927C111.945 48.0535 110.952 49.9255 110.174 52.9351C109.238 56.9383 108.417 60.3943 110.419 63.7783C111.323 65.2549 112.586 66.4785 114.091 67.3351C113.918 68.7751 113.472 74.0311 113.515 76.2199L109.728 76.1335H109.627C109.346 76.1891 109.088 76.3274 108.886 76.5306C108.684 76.7338 108.547 76.9927 108.493 77.2742C108.438 77.5556 108.469 77.8468 108.582 78.1105C108.694 78.3742 108.883 78.5983 109.123 78.7543C109.06 81.8503 109.243 84.9465 109.67 88.0135C109.889 89.1175 110.408 90.1399 111.17 90.9681C111.932 91.7963 112.908 92.3983 113.99 92.7079C113.59 97.8992 114.642 103.1 117.029 107.727C119.263 112.05 123.017 115.395 127.569 117.116C129.009 117.591 129.009 117.534 129.153 118.311C129.153 118.311 129.758 121.94 129.96 123.034C125.709 123.738 121.843 125.92 119.045 129.197C102.307 132.38 86.3056 138.645 71.8559 147.673C67.7409 138.063 65.5689 127.734 65.4653 117.281C65.3616 106.828 67.3283 96.4581 71.2519 86.7688C75.1755 77.0796 80.9784 68.263 88.326 60.8274C95.6736 53.3917 104.42 47.4842 114.062 43.4455H114.005ZM69.1199 19.8295C69.9695 19.7431 69.8687 18.4615 69.1199 18.5623C65.7503 18.6631 52.8335 19.0951 49.3487 19.0663C49.253 19.0843 49.1666 19.1352 49.1045 19.2101C49.0423 19.285 49.0083 19.3793 49.0083 19.4767C49.0083 19.574 49.0423 19.6683 49.1045 19.7433C49.1666 19.8182 49.253 19.8691 49.3487 19.8871C52.5743 20.0455 65.8367 20.1607 69.1199 19.8295ZM67.6799 23.2279C66.3695 23.2279 52.5599 24.3079 49.7951 24.3511C49.6843 24.3511 49.5781 24.3951 49.4998 24.4734C49.4215 24.5517 49.3775 24.6579 49.3775 24.7687C49.3775 24.8794 49.4215 24.9857 49.4998 25.064C49.5781 25.1423 49.6843 25.1863 49.7951 25.1863C52.0415 25.1863 66.1103 24.8119 67.8239 24.4807C67.9776 24.4474 68.1134 24.3582 68.205 24.2304C68.2966 24.1026 68.3374 23.9453 68.3194 23.7891C68.3014 23.6328 68.226 23.4889 68.1078 23.3852C67.9897 23.2814 67.8371 23.2254 67.6799 23.2279ZM69.9695 28.9159C69.9695 28.9159 52.3007 29.5783 50.6159 29.5927C50.5058 29.6121 50.4061 29.6696 50.3343 29.7552C50.2625 29.8408 50.2231 29.9489 50.2231 30.0607C50.2231 30.1724 50.2625 30.2806 50.3343 30.3662C50.4061 30.4518 50.5058 30.5093 50.6159 30.5287C57.0959 30.5287 63.5759 30.7735 70.0127 30.2551C70.1731 30.2268 70.3179 30.1416 70.4205 30.0152C70.5232 29.8887 70.5768 29.7295 70.5715 29.5668C70.5663 29.404 70.5025 29.2486 70.3919 29.129C70.2813 29.0095 70.1314 28.9338 69.9695 28.9159ZM167.04 243.678L165.974 243.13C165.937 243.109 165.895 243.098 165.852 243.098C165.809 243.098 165.767 243.109 165.729 243.13C164.334 244.315 163.214 245.789 162.446 247.45C162.425 247.502 162.424 247.56 162.442 247.613C162.461 247.666 162.498 247.711 162.547 247.738C163.576 248.272 164.715 248.558 165.874 248.573C169.704 248.573 172.123 245.29 174.283 242.238C176.155 239.559 178.502 236.233 177.336 233.007C176.937 231.93 176.243 230.987 175.334 230.285C175.297 230.251 175.248 230.232 175.197 230.232C175.147 230.232 175.098 230.251 175.061 230.285C173.574 231.415 172.395 232.901 171.634 234.605C171.61 234.639 171.597 234.68 171.597 234.721C171.597 234.762 171.61 234.802 171.634 234.836L172.8 235.945C171.453 238.904 169.489 241.54 167.04 243.678ZM163.454 241.777C162.473 242.887 161.591 244.083 160.819 245.348C160.445 246.169 161.539 246.572 161.827 246.068C162.632 244.826 163.517 243.638 164.477 242.511C164.779 242.194 164.16 241.301 163.454 241.777ZM170.712 233.554C170.802 233.557 170.892 233.539 170.975 233.502C171.057 233.464 171.13 233.408 171.187 233.338C171.997 232.1 172.882 230.912 173.837 229.782C174.154 229.45 173.534 228.572 172.8 229.062C171.828 230.168 170.956 231.358 170.194 232.618C170.138 232.711 170.108 232.817 170.106 232.925C170.105 233.034 170.131 233.141 170.184 233.235C170.236 233.33 170.313 233.409 170.405 233.465C170.498 233.521 170.604 233.552 170.712 233.554ZM213.667 215.122C213.759 215.123 213.849 215.103 213.932 215.063C214.014 215.023 214.086 214.965 214.142 214.892C214.198 214.819 214.236 214.735 214.254 214.645C214.271 214.555 214.268 214.462 214.243 214.373L214.574 204.293C214.574 203.516 214.646 202.551 213.754 202.047C212.861 201.543 71.9423 201.212 72.1007 201.212C72.0512 201.214 72.003 201.228 71.9603 201.253C71.9177 201.278 71.8818 201.314 71.8559 201.356C71.4131 205.179 71.235 209.028 71.3231 212.876C71.4916 213.225 71.7625 213.513 72.0996 213.704C72.4367 213.894 72.824 213.977 73.2095 213.942C75.1823 213.942 213.667 215.122 213.667 215.122ZM213.379 204.322C213.379 204.653 213.379 204.452 213.12 213.898C206.381 213.697 73.7855 212.66 72.7919 212.602C72.3455 212.444 72.3455 212.012 72.3743 211.335L72.6479 202.422C79.7183 202.623 212.472 202.969 213.019 203.012C213.566 203.055 213.422 203.645 213.379 204.322ZM84.5855 257.127C84.7535 257.127 84.9147 257.06 85.0335 256.942C85.1523 256.823 85.2191 256.662 85.2191 256.493C85.2191 256.325 85.1523 256.164 85.0335 256.045C84.9147 255.927 84.7535 255.86 84.5855 255.86C81.3599 256.047 68.2991 256.407 64.8143 256.364C64.7186 256.382 64.6322 256.433 64.5701 256.508C64.5079 256.583 64.4739 256.677 64.4739 256.774C64.4739 256.872 64.5079 256.966 64.5701 257.041C64.6322 257.116 64.7186 257.167 64.8143 257.185C68.0255 257.343 81.2591 257.444 84.5855 257.127ZM83.0735 260.525C81.7775 260.525 67.9679 261.605 65.1887 261.649C65.0779 261.649 64.9717 261.693 64.8934 261.771C64.8151 261.849 64.7711 261.956 64.7711 262.066C64.7711 262.177 64.8151 262.283 64.8934 262.362C64.9717 262.44 65.0779 262.484 65.1887 262.484C67.7951 262.484 81.5615 262.095 83.2175 261.778C83.3712 261.745 83.507 261.656 83.5986 261.528C83.6902 261.4 83.731 261.243 83.713 261.087C83.695 260.93 83.6196 260.786 83.5014 260.683C83.3833 260.579 83.2307 260.523 83.0735 260.525ZM85.4063 266.228C85.4063 266.228 67.7663 266.876 66.0383 266.89C65.9282 266.91 65.8285 266.967 65.7567 267.053C65.6849 267.138 65.6455 267.247 65.6455 267.358C65.6455 267.47 65.6849 267.578 65.7567 267.664C65.8285 267.749 65.9282 267.807 66.0383 267.826C72.4895 267.826 78.9983 268.071 85.4207 267.553C85.5077 267.552 85.5936 267.534 85.6736 267.5C85.7536 267.465 85.8261 267.416 85.887 267.354C85.9478 267.291 85.9958 267.218 86.0282 267.137C86.0606 267.056 86.0768 266.97 86.0759 266.883C86.0749 266.796 86.0569 266.71 86.0227 266.63C85.9886 266.55 85.939 266.478 85.8768 266.417C85.8146 266.356 85.7411 266.308 85.6603 266.276C85.5796 266.243 85.4933 266.227 85.4063 266.228ZM130.449 257.127C130.618 257.127 130.779 257.06 130.898 256.942C131.016 256.823 131.083 256.662 131.083 256.493C131.083 256.325 131.016 256.164 130.898 256.045C130.779 255.927 130.618 255.86 130.449 255.86C127.195 256.033 114.149 256.407 110.678 256.364C110.583 256.382 110.496 256.433 110.434 256.508C110.372 256.583 110.338 256.677 110.338 256.774C110.338 256.872 110.372 256.966 110.434 257.041C110.496 257.116 110.583 257.167 110.678 257.185C113.904 257.343 127.109 257.444 130.449 257.127ZM128.937 260.525C127.641 260.525 113.832 261.605 111.053 261.649C110.942 261.649 110.836 261.693 110.757 261.771C110.679 261.849 110.635 261.956 110.635 262.066C110.635 262.177 110.679 262.283 110.757 262.362C110.836 262.44 110.942 262.484 111.053 262.484C113.645 262.484 127.411 262.095 129.067 261.778C129.22 261.745 129.354 261.657 129.446 261.531C129.537 261.405 129.579 261.249 129.563 261.094C129.547 260.939 129.474 260.795 129.359 260.69C129.243 260.585 129.093 260.527 128.937 260.525ZM131.285 266.228C131.285 266.228 113.63 266.876 111.917 266.89C111.807 266.91 111.707 266.967 111.635 267.053C111.563 267.138 111.524 267.247 111.524 267.358C111.524 267.47 111.563 267.578 111.635 267.664C111.707 267.749 111.807 267.807 111.917 267.826C118.368 267.826 124.877 268.071 131.299 267.553C131.475 267.551 131.643 267.479 131.765 267.354C131.888 267.228 131.956 267.059 131.954 266.883C131.952 266.707 131.881 266.54 131.755 266.417C131.63 266.294 131.46 266.226 131.285 266.228ZM177.725 257.127C177.893 257.127 178.054 257.06 178.173 256.942C178.292 256.823 178.358 256.662 178.358 256.493C178.358 256.325 178.292 256.164 178.173 256.045C178.054 255.927 177.893 255.86 177.725 255.86C174.47 256.047 161.438 256.407 157.939 256.364C157.843 256.382 157.757 256.433 157.695 256.508C157.633 256.583 157.599 256.677 157.599 256.774C157.599 256.872 157.633 256.966 157.695 257.041C157.757 257.116 157.843 257.167 157.939 257.185C161.179 257.343 174.384 257.444 177.725 257.127ZM176.213 260.525C174.931 260.525 161.107 261.605 158.342 261.649C158.232 261.649 158.125 261.693 158.047 261.771C157.969 261.849 157.925 261.956 157.925 262.066C157.925 262.177 157.969 262.283 158.047 262.362C158.125 262.44 158.232 262.484 158.342 262.484C160.934 262.484 174.701 262.095 176.371 261.778C176.527 261.745 176.664 261.655 176.756 261.526C176.848 261.396 176.888 261.237 176.868 261.079C176.848 260.921 176.77 260.777 176.648 260.675C176.527 260.572 176.371 260.519 176.213 260.525ZM178.56 266.228C178.56 266.228 160.906 266.876 159.192 266.89C159.082 266.91 158.982 266.967 158.91 267.053C158.838 267.138 158.799 267.247 158.799 267.358C158.799 267.47 158.838 267.578 158.91 267.664C158.982 267.749 159.082 267.807 159.192 267.826C165.643 267.826 172.152 268.071 178.574 267.553C178.75 267.551 178.918 267.479 179.041 267.354C179.163 267.228 179.231 267.059 179.229 266.883C179.228 266.707 179.156 266.54 179.03 266.417C178.905 266.294 178.736 266.226 178.56 266.228ZM223.704 257.127C223.872 257.127 224.033 257.06 224.152 256.942C224.271 256.823 224.337 256.662 224.337 256.493C224.337 256.325 224.271 256.164 224.152 256.045C224.033 255.927 223.872 255.86 223.704 255.86C220.478 256.033 207.417 256.407 203.918 256.364C203.823 256.382 203.736 256.433 203.674 256.508C203.612 256.583 203.578 256.677 203.578 256.774C203.578 256.872 203.612 256.966 203.674 257.041C203.736 257.116 203.823 257.167 203.918 257.185C207.158 257.343 220.32 257.444 223.704 257.127ZM222.192 260.525C220.91 260.525 207.086 261.605 204.322 261.649C204.211 261.649 204.105 261.693 204.026 261.771C203.948 261.849 203.904 261.956 203.904 262.066C203.904 262.177 203.948 262.283 204.026 262.362C204.105 262.44 204.211 262.484 204.322 262.484C206.913 262.484 220.68 262.095 222.35 261.778C222.506 261.745 222.643 261.655 222.735 261.526C222.827 261.396 222.867 261.237 222.847 261.079C222.827 260.921 222.749 260.777 222.627 260.675C222.506 260.572 222.351 260.519 222.192 260.525ZM224.539 266.228C224.539 266.228 206.885 266.876 205.171 266.89C205.061 266.91 204.961 266.967 204.89 267.053C204.818 267.138 204.778 267.247 204.778 267.358C204.778 267.47 204.818 267.578 204.89 267.664C204.961 267.749 205.061 267.807 205.171 267.826C211.608 267.826 218.131 268.071 224.554 267.553C224.729 267.551 224.897 267.479 225.02 267.354C225.143 267.228 225.211 267.059 225.209 266.883C225.207 266.707 225.135 266.54 225.01 266.417C224.884 266.294 224.715 266.226 224.539 266.228ZM87.5663 249.193L84.2255 249.121C84.2255 247.421 84.1103 243.044 84.0527 241.69C84.4867 241.327 84.7667 240.813 84.8362 240.252C84.9057 239.691 84.7595 239.124 84.4271 238.666C84.2975 238.479 84.4271 238.522 80.3519 238.666V235.786C80.6051 235.427 80.7752 235.015 80.8499 234.582C80.9247 234.149 80.9021 233.704 80.7839 233.281C80.7676 233.217 80.7301 233.161 80.6778 233.122C80.6255 233.083 80.5613 233.063 80.4959 233.065L75.3695 233.223C75.2831 232.129 74.9087 228.197 74.7647 227.938C74.6665 227.751 74.5023 227.608 74.3039 227.535C76.0895 224.957 73.2815 224.05 73.8287 222.725C74.0591 222.164 73.2239 221.775 72.8927 222.293C72.083 223.378 71.46 224.59 71.0495 225.879C71.0621 226.261 71.1685 226.635 71.3594 226.966C71.5502 227.298 71.8196 227.577 72.1439 227.78C71.9349 227.863 71.7586 228.012 71.6418 228.204C71.5249 228.397 71.4737 228.622 71.4959 228.845V233.324L67.3919 233.453C67.3327 233.455 67.2754 233.475 67.2287 233.511C67.1819 233.547 67.1483 233.598 67.1327 233.655C66.9742 234.117 66.936 234.612 67.0217 235.094C67.1073 235.575 67.314 236.026 67.6223 236.405C67.6223 237.226 67.7231 238.35 67.8095 239.156C63.6623 239.329 63.8207 239.271 63.6911 239.415C62.6543 240.653 61.9919 242.799 63.2159 243.735V248.962H60.7967C60.6783 248.962 60.5648 249.009 60.481 249.093C60.3973 249.177 60.3503 249.29 60.3503 249.409C60.3503 249.527 60.3973 249.641 60.481 249.724C60.5648 249.808 60.6783 249.855 60.7967 249.855C60.9551 249.855 87.3791 250.172 87.6239 250.143C87.7499 250.135 87.8678 250.078 87.9515 249.984C88.0352 249.889 88.0779 249.765 88.0703 249.639C88.0627 249.513 88.0053 249.395 87.9107 249.312C87.8162 249.228 87.6923 249.185 87.5663 249.193ZM74.3327 233.281H72.5327V228.73C72.9995 228.59 73.4852 228.522 73.9727 228.529C74.0015 229.133 74.2607 232.345 74.3327 233.281ZM72.1151 225.793C72.3729 225.217 72.6762 224.664 73.0223 224.137C73.4975 225.058 74.1887 225.577 73.7855 226.484C73.612 226.799 73.4043 227.093 73.1663 227.362C72.5327 226.916 71.9999 226.397 72.1151 225.764V225.793ZM71.7983 235.945C71.9921 236.354 72.298 236.699 72.6803 236.941C73.0627 237.183 73.5058 237.311 73.9583 237.311C74.4107 237.311 74.8539 237.183 75.2363 236.941C75.6186 236.699 75.9245 236.354 76.1183 235.945C76.5075 236.317 76.9882 236.58 77.5117 236.706C78.0352 236.833 78.5829 236.818 79.0991 236.665V238.782L68.8175 239.185C68.8175 238.479 68.7455 237.745 68.6879 237.082C69.2634 237.19 69.8574 237.138 70.4056 236.933C70.9539 236.727 71.4354 236.375 71.7983 235.916V235.945ZM64.2959 248.905V244.052C64.9415 244.1 65.5899 244.008 66.1965 243.782C66.803 243.556 67.3533 243.201 67.8095 242.742C68.3378 243.215 69.0224 243.477 69.7319 243.477C70.4414 243.477 71.126 243.215 71.6543 242.742C73.3247 244.57 75.8303 243.721 77.2127 241.69C77.4859 242.078 77.8429 242.398 78.2573 242.629C78.6716 242.859 79.1325 242.993 79.6057 243.021C80.0789 243.049 80.5523 242.969 80.9907 242.789C81.429 242.608 81.821 242.331 82.1375 241.978C82.4425 242.059 82.7597 242.084 83.0735 242.05C83.0735 243.577 83.0735 247.436 83.1743 249.049C78.7535 249.02 67.1903 248.933 64.2959 248.933V248.905Z" fill="black"/>
<path d="M259.113 86.7455C256.838 85.1327 258.451 85.3055 255.139 74.4047C254.016 70.7039 252.763 66.2543 249.379 64.8287C249.379 54.0863 249.379 9.33108 249.451 7.80468C249.51 7.70815 249.542 7.59751 249.544 7.48428C249.546 7.37105 249.518 7.25937 249.462 7.16086C249.406 7.06236 249.325 6.98063 249.227 6.92418C249.129 6.86772 249.017 6.83862 248.904 6.83988C221.688 6.83988 52.5022 7.60308 37.4974 7.77588C37.4067 7.77776 37.3177 7.80103 37.2377 7.84381C37.1577 7.88658 37.089 7.94765 37.037 8.02204C36.9851 8.09644 36.9515 8.18204 36.9389 8.27189C36.9263 8.36174 36.9351 8.45329 36.9646 8.53908C36.6046 27.4751 36.0862 130.867 35.9566 170.294C28.3156 177.006 22.3154 185.381 18.4174 194.774C11.3902 211.953 10.9726 225.014 17.1934 233.409C21.3118 239.025 29.5342 245.333 36.0574 242.438C35.8558 269.885 35.7982 277.906 35.9566 280.224C36.0286 281.304 36.1582 281.146 36.3166 281.146C36.475 281.146 239.457 280.771 248.457 280.67C248.57 280.67 248.681 280.639 248.777 280.581C248.873 280.522 248.952 280.439 249.005 280.339C249.077 280.195 249.393 215.986 249.638 198.95C251.395 198.902 253.117 198.449 254.67 197.628C256.223 196.806 257.567 195.638 258.595 194.213C262.121 189.8 265.028 184.926 267.235 179.726C270.489 171.158 272.837 164.981 274.205 155.405C277.229 134.309 272.693 111.269 263.577 92.1599C261.95 88.7183 262.181 88.9199 259.113 86.7455ZM31.6798 232.79C28.9726 231.538 26.5102 225.893 27.5038 221.025C28.2872 217.828 30.0613 214.96 32.5726 212.832C33.7197 211.695 34.9789 210.677 36.331 209.794V214.761C35.253 215.501 34.2836 216.388 33.451 217.397C33.3863 217.499 33.3616 217.621 33.3818 217.741C33.4021 217.86 33.4657 217.967 33.5605 218.043C33.6553 218.118 33.7745 218.155 33.8952 218.147C34.0159 218.14 34.1296 218.088 34.2142 218.001C35.6293 216.605 37.2577 215.444 39.0382 214.56C40.291 213.998 40.5502 214.258 40.2478 215.424C39.9875 216.827 39.2982 218.115 38.275 219.11C37.2536 219.932 36.1248 220.61 34.9198 221.126C34.2678 221.406 33.6495 221.759 33.0766 222.177C33.0005 222.254 32.9545 222.355 32.9471 222.462C32.9397 222.57 32.9713 222.676 33.0362 222.762C33.1011 222.848 33.1948 222.907 33.3002 222.93C33.4055 222.952 33.5153 222.935 33.6094 222.883C34.7614 222.12 38.3758 220.997 40.363 219.6C41.803 218.606 41.9326 219.355 41.443 220.838C40.435 223.819 36.9358 225.36 34.6174 227.232C34.5369 227.313 34.4872 227.42 34.4771 227.534C34.467 227.647 34.497 227.761 34.562 227.855C34.6269 227.949 34.7228 228.018 34.8328 228.048C34.9429 228.079 35.0603 228.071 35.1646 228.024C35.8126 227.664 36.4606 227.217 37.3822 226.584C38.3038 225.95 40.9102 224.64 41.8606 225.144C41.968 225.193 42.0589 225.273 42.1227 225.372C42.1865 225.472 42.2205 225.587 42.2206 225.706C42.3646 226.742 41.5006 227.75 40.6222 228.874C36.5902 234.029 33.2638 233.553 31.6798 232.79ZM247.896 279.36C235.368 279.432 46.8286 279.907 37.0222 280.022C37.1374 275.918 37.0222 249.97 37.0942 233.582C39.0513 232.095 40.8554 230.416 42.4798 228.571C42.883 228.009 44.1358 226.065 43.1566 224.539C42.938 224.212 42.6265 223.957 42.2621 223.809C41.8977 223.66 41.4971 223.623 41.1118 223.704C42.1052 222.671 42.7325 221.34 42.8974 219.917C42.8974 219.47 43.027 218.477 42.1774 218.059C41.88 217.962 41.564 217.934 41.2543 217.979C40.9445 218.024 40.6493 218.14 40.3918 218.318C40.5214 218.117 40.6222 217.915 40.7374 217.699C41.2558 216.677 41.9758 214.329 41.3998 213.465C40.6078 212.299 38.5918 213.264 37.3822 213.984C37.4686 79.4879 38.1598 31.3487 38.0878 8.89908C52.0126 8.89908 239.558 8.13588 248.328 8.07828C248.213 16.0703 248.025 71.0639 248.025 71.0639C245.634 71.4571 243.344 72.3183 241.286 73.5983C240.724 73.87 240.253 74.3005 239.933 74.8367C239.824 75.0247 239.756 75.2337 239.735 75.4499C239.713 75.6661 239.738 75.8844 239.807 76.0902C239.877 76.2961 239.989 76.4847 240.138 76.6435C240.286 76.8023 240.466 76.9276 240.667 77.0111C240.077 77.3663 239.582 77.8607 239.227 78.4511C239.083 79.0103 239.15 79.603 239.416 80.1158C239.682 80.6285 240.127 81.0253 240.667 81.2303C239.141 82.5983 239.443 85.0031 242.525 85.4495C244.401 85.7128 246.309 85.6298 248.155 85.2047C249.005 97.9199 247.752 271.224 247.896 279.36ZM249.624 88.2863C249.537 87.2351 249.437 86.1263 249.307 84.9455C250.23 84.6655 251.126 84.3041 251.985 83.8655C252.59 83.5631 252.101 82.6559 251.496 82.9583C249.205 84.0233 246.69 84.5174 244.166 84.3983C243.23 84.3983 241.661 84.3983 241.286 83.4911C240.912 82.5839 241.819 81.9071 242.438 81.7343C245.155 82.1409 247.931 81.6344 250.329 80.2943C250.444 80.2332 250.53 80.1291 250.567 80.0048C250.605 79.8806 250.592 79.7465 250.531 79.6319C250.47 79.5173 250.366 79.4317 250.242 79.3939C250.117 79.3561 249.983 79.3692 249.869 79.4303C247.703 80.4704 245.279 80.851 242.899 80.5247C241.2 80.2943 240.408 79.8191 240.437 79.0847C240.437 78.7391 241.877 77.6447 242.453 77.3999C245.003 77.7619 247.592 77.7619 250.142 77.3999C250.79 77.3135 250.704 76.3199 250.056 76.4063C248.126 76.6511 241.934 76.4927 241.344 75.9743C241.281 75.9338 241.23 75.8783 241.195 75.8129C241.159 75.7475 241.14 75.6743 241.14 75.5999C241.14 75.5255 241.159 75.4523 241.195 75.3869C241.23 75.3215 241.281 75.266 241.344 75.2255C242.87 73.6415 248.313 72.0431 249.768 71.8127C249.882 71.7993 249.987 71.741 250.059 71.6505C250.13 71.56 250.163 71.4449 250.149 71.3303C250.136 71.2157 250.078 71.1111 249.987 71.0396C249.897 70.968 249.782 70.9353 249.667 70.9487H249.422V66.0383C252.014 67.5791 253.022 71.1071 253.829 73.9583C257.457 86.6159 255.384 85.7807 259.085 88.2719C259.675 88.6458 260.225 89.0801 260.726 89.5679C257.054 91.8431 252.893 91.0079 249.624 88.3295V88.2863Z" fill="black"/>
<path d="M154.728 157.809C154.395 157.809 154.069 157.907 153.792 158.093C153.515 158.278 153.299 158.541 153.171 158.849C153.044 159.157 153.011 159.495 153.076 159.822C153.141 160.149 153.301 160.449 153.537 160.685C153.772 160.92 154.072 161.081 154.399 161.146C154.726 161.211 155.065 161.177 155.373 161.05C155.681 160.922 155.944 160.706 156.129 160.429C156.314 160.152 156.413 159.827 156.413 159.493C156.413 159.047 156.235 158.618 155.919 158.302C155.603 157.986 155.175 157.809 154.728 157.809ZM149.76 166.045C149.39 166.045 149.028 166.155 148.72 166.361C148.412 166.567 148.172 166.859 148.03 167.201C147.889 167.543 147.852 167.919 147.924 168.283C147.996 168.646 148.174 168.979 148.436 169.241C148.698 169.503 149.032 169.681 149.395 169.753C149.758 169.826 150.134 169.789 150.476 169.647C150.818 169.505 151.111 169.265 151.316 168.957C151.522 168.65 151.632 168.288 151.632 167.917C151.632 167.421 151.435 166.945 151.084 166.594C150.733 166.243 150.256 166.045 149.76 166.045ZM145.296 173.274C145.011 173.274 144.733 173.359 144.496 173.517C144.259 173.675 144.075 173.9 143.966 174.163C143.857 174.426 143.828 174.716 143.884 174.995C143.939 175.274 144.076 175.531 144.278 175.732C144.479 175.934 144.736 176.071 145.015 176.127C145.294 176.182 145.584 176.154 145.847 176.045C146.11 175.936 146.335 175.751 146.493 175.514C146.652 175.277 146.736 174.999 146.736 174.714C146.736 174.332 146.584 173.966 146.314 173.696C146.044 173.426 145.678 173.274 145.296 173.274Z" fill="black"/>
</svg>
