<svg width="288" height="288" viewBox="0 0 288 288" fill="none" xmlns="http://www.w3.org/2000/svg">
<path d="M237.039 71.0928C237.625 70.9686 238.161 70.6729 238.579 70.2432C238.53 70.4817 238.468 70.7173 238.392 70.9488C238.277 71.3376 238.709 71.4528 238.853 71.208C239.362 70.452 239.563 69.5298 239.415 68.6304C239.407 68.5454 239.375 68.4644 239.323 68.3969C239.271 68.3293 239.201 68.2781 239.12 68.2494C239.04 68.2206 238.953 68.2154 238.87 68.2344C238.787 68.2535 238.711 68.296 238.651 68.3568C238.047 69.0912 237.931 70.128 236.909 70.4448C236.828 70.4669 236.758 70.5189 236.714 70.5902C236.67 70.6616 236.655 70.747 236.671 70.8293C236.688 70.9116 236.735 70.9845 236.803 71.0334C236.871 71.0824 236.955 71.1036 237.039 71.0928ZM234.202 66.24C234.282 66.2916 234.375 66.3207 234.47 66.3242C234.566 66.3277 234.66 66.3055 234.744 66.2598C234.828 66.2142 234.898 66.1468 234.947 66.0648C234.996 65.9828 235.022 65.8891 235.023 65.7936C235.023 65.6784 235.023 65.5488 234.331 64.512C234.187 64.296 234.015 63.8928 233.64 64.0944C233.266 64.296 233.525 64.6704 233.727 65.1744C234.13 66.24 234.13 66.24 234.202 66.24ZM233.971 63.6048C234.677 63.6048 235.167 63.6048 235.253 64.1952C235.264 64.2831 235.31 64.3627 235.38 64.4168C235.451 64.4708 235.539 64.4947 235.627 64.4832C235.715 64.4718 235.795 64.4259 235.849 64.3557C235.903 64.2854 235.927 64.1967 235.915 64.1088C235.801 63.6423 235.527 63.2307 235.14 62.9464C234.753 62.662 234.278 62.523 233.799 62.5536C233.685 62.601 233.59 62.6854 233.53 62.7932C233.47 62.9011 233.449 63.0259 233.469 63.1476C233.489 63.2693 233.549 63.3807 233.64 63.4637C233.732 63.5467 233.848 63.5964 233.971 63.6048ZM57.8449 107.496C53.8057 109.45 49.3608 110.418 44.8749 110.32C40.3891 110.222 35.9904 109.062 32.0401 106.934C31.9675 106.89 31.8805 106.877 31.7981 106.897C31.7158 106.918 31.6448 106.97 31.6009 107.042C31.557 107.115 31.5437 107.202 31.5639 107.284C31.5842 107.367 31.6363 107.438 31.7089 107.482C39.6001 112.622 51.1921 112.91 58.0609 107.87C58.1106 107.842 58.1468 107.795 58.1616 107.739C58.1765 107.684 58.1687 107.625 58.1401 107.575C58.1115 107.526 58.0643 107.489 58.0089 107.474C57.9535 107.46 57.8945 107.467 57.8449 107.496ZM56.7793 64.8C57.6001 65.1312 58.9537 64.8 58.5937 64.0368C58.3534 63.4545 58.1841 62.8453 58.0897 62.2224C58.0897 62.1346 58.0548 62.0503 57.9927 61.9882C57.9306 61.9261 57.8463 61.8912 57.7585 61.8912C57.6707 61.8912 57.5864 61.9261 57.5243 61.9882C57.4622 62.0503 57.4273 62.1346 57.4273 62.2224C57.4187 62.8317 57.4766 63.4401 57.6001 64.0368C57.4037 64.1486 57.1764 64.194 56.9521 64.1664C56.9105 64.1551 56.8671 64.152 56.8243 64.1575C56.7815 64.1629 56.7402 64.1767 56.7028 64.1981C56.6653 64.2195 56.6325 64.2481 56.6061 64.2822C56.5797 64.3163 56.5602 64.3552 56.5489 64.3968C56.5376 64.4384 56.5345 64.4818 56.54 64.5246C56.5454 64.5674 56.5592 64.6087 56.5806 64.6461C56.602 64.6836 56.6306 64.7164 56.6646 64.7428C56.6987 64.7692 56.7377 64.7887 56.7793 64.8ZM55.1233 61.6464C55.3463 61.1284 55.5292 60.594 55.6705 60.048C55.6834 59.9979 55.6861 59.9457 55.6785 59.8945C55.6709 59.8433 55.6532 59.7941 55.6264 59.7499C55.5996 59.7056 55.5642 59.6672 55.5223 59.6367C55.4804 59.6063 55.4329 59.5846 55.3825 59.5728C54.9505 59.4432 54.8785 59.904 54.6625 60.4656C54.5385 60.745 54.4373 61.0339 54.3601 61.3296C54.3596 61.4182 54.3856 61.505 54.4346 61.5788C54.4836 61.6527 54.5535 61.7102 54.6354 61.7442C54.7172 61.7782 54.8073 61.787 54.8942 61.7696C54.9811 61.7522 55.0609 61.7093 55.1233 61.6464ZM59.9185 63C60.0005 63.036 60.0917 63.0457 60.1794 63.0276C60.2671 63.0096 60.347 62.9647 60.4081 62.8992C60.6289 62.3804 60.8118 61.8462 60.9553 61.3008C60.9705 61.2516 60.9753 61.1999 60.9696 61.1487C60.9639 61.0976 60.9477 61.0482 60.922 61.0036C60.8963 60.959 60.8617 60.9202 60.8204 60.8896C60.7791 60.859 60.7318 60.8372 60.6817 60.8256C60.2353 60.696 60.1489 61.2144 59.9617 61.704C59.7745 62.1936 59.4145 62.7984 59.9185 63ZM53.0065 65.952C53.5234 66.2108 54.1155 66.2772 54.6769 66.1392C55.0369 65.9808 54.7921 65.4336 54.4465 65.5488C54.0661 65.5228 53.7011 65.3878 53.3953 65.16C53.2005 65.0322 53.0327 64.8672 52.9018 64.6745C52.7708 64.4817 52.6792 64.265 52.6321 64.0368C52.5313 63.432 51.5809 63.6624 51.7249 64.2672C51.7948 64.6276 51.9468 64.967 52.169 65.2592C52.3913 65.5514 52.6779 65.7884 53.0065 65.952ZM155.376 223.589C155.376 223.207 155.224 222.841 154.954 222.571C154.684 222.301 154.318 222.149 153.936 222.149C153.554 222.149 153.188 222.301 152.918 222.571C152.648 222.841 152.496 223.207 152.496 223.589C152.496 223.971 152.648 224.337 152.918 224.607C153.188 224.877 153.554 225.029 153.936 225.029C154.318 225.029 154.684 224.877 154.954 224.607C155.224 224.337 155.376 223.971 155.376 223.589ZM155.347 237.773C155.575 237.794 155.804 237.768 156.021 237.695C156.238 237.623 156.437 237.506 156.606 237.352C156.775 237.198 156.91 237.011 157.002 236.802C157.095 236.593 157.142 236.367 157.142 236.138C157.142 235.91 157.095 235.684 157.002 235.475C156.91 235.266 156.775 235.078 156.606 234.925C156.437 234.771 156.238 234.654 156.021 234.581C155.804 234.509 155.575 234.483 155.347 234.504C155.12 234.483 154.89 234.509 154.674 234.581C154.457 234.654 154.258 234.771 154.089 234.925C153.92 235.078 153.785 235.266 153.692 235.475C153.6 235.684 153.552 235.91 153.552 236.138C153.552 236.367 153.6 236.593 153.692 236.802C153.785 237.011 153.92 237.198 154.089 237.352C154.258 237.506 154.457 237.623 154.674 237.695C154.89 237.768 155.12 237.794 155.347 237.773ZM155.765 249.437C155.373 249.474 155.009 249.657 154.744 249.948C154.479 250.24 154.332 250.62 154.332 251.014C154.332 251.408 154.479 251.787 154.744 252.079C155.009 252.371 155.373 252.553 155.765 252.59C156.157 252.553 156.521 252.371 156.786 252.079C157.051 251.787 157.198 251.408 157.198 251.014C157.198 250.62 157.051 250.24 156.786 249.948C156.521 249.657 156.157 249.474 155.765 249.437ZM147.024 186.898C147.734 190.657 148.215 194.456 148.464 198.274C148.464 198.407 148.517 198.535 148.612 198.63C148.706 198.725 148.834 198.778 148.968 198.778C149.102 198.778 149.23 198.725 149.324 198.63C149.419 198.535 149.472 198.407 149.472 198.274C149.19 194.393 148.597 190.54 147.701 186.754C147.664 186.685 147.606 186.63 147.535 186.597C147.464 186.564 147.385 186.555 147.308 186.571C147.232 186.587 147.163 186.628 147.112 186.687C147.06 186.746 147.03 186.82 147.024 186.898ZM149.76 229.061C149.76 228.962 149.721 228.866 149.65 228.796C149.58 228.726 149.485 228.686 149.386 228.686C149.286 228.686 149.191 228.726 149.121 228.796C149.051 228.866 149.011 228.962 149.011 229.061C148.867 238.925 148.695 262.498 148.781 265.061C148.801 265.174 148.86 265.277 148.948 265.352C149.036 265.426 149.148 265.467 149.263 265.467C149.379 265.467 149.49 265.426 149.579 265.352C149.667 265.277 149.726 265.174 149.746 265.061C149.947 260.41 149.76 231.365 149.76 229.061ZM188.41 130.018C188.425 130.058 188.453 130.092 188.489 130.116C188.525 130.139 188.568 130.15 188.611 130.147C192.413 128.184 195.836 125.561 198.72 122.4C198.761 122.357 198.783 122.301 198.783 122.242C198.783 122.183 198.761 122.126 198.72 122.083C195.423 119.75 186.106 115.877 186.091 116.971C186.018 121.429 186.805 125.858 188.41 130.018ZM82.3969 150.912C83.5636 150.96 84.7161 150.642 85.6924 150.001C86.6687 149.361 87.4198 148.43 87.8401 147.341C88.2289 146.117 88.0849 145.901 86.9041 138.773C87.7651 139.463 88.6694 140.098 89.6113 140.674C89.9076 140.788 90.2358 140.788 90.5323 140.674C90.8287 140.56 91.0723 140.34 91.2158 140.057C91.3593 139.773 91.3924 139.447 91.3088 139.14C91.2252 138.834 91.0308 138.57 90.7633 138.398C88.3544 137.145 86.5042 135.033 85.5793 132.48C85.4497 132.034 83.7649 131.89 83.1313 132.97C83.1313 133.099 85.3345 145.339 85.3633 145.469C85.4572 145.837 85.4572 146.224 85.3633 146.592C85.1493 147.054 84.822 147.455 84.4116 147.757C84.0013 148.06 83.5212 148.253 83.0161 148.32C82.6134 148.4 82.1989 148.398 81.7967 148.316C81.3945 148.234 81.0126 148.073 80.6733 147.842C80.334 147.611 80.044 147.315 79.8202 146.97C79.5965 146.626 79.4434 146.241 79.3699 145.837C79.2963 145.433 79.3039 145.019 79.392 144.618C79.4801 144.217 79.6471 143.838 79.8833 143.502C80.1194 143.166 80.4199 142.881 80.7674 142.662C81.1149 142.444 81.5024 142.296 81.9073 142.229C82.2453 142.17 82.5459 141.979 82.7431 141.698C82.9402 141.417 83.0177 141.069 82.9585 140.731C82.8993 140.393 82.7083 140.093 82.4274 139.895C82.1466 139.698 81.7989 139.621 81.4609 139.68C80.4619 139.847 79.5245 140.274 78.7433 140.919C77.962 141.563 77.3646 142.403 77.0113 143.352C76.687 144.21 76.579 145.135 76.6969 146.045C76.8148 146.955 77.1549 147.822 77.6872 148.569C78.2195 149.316 78.9276 149.921 79.749 150.329C80.5704 150.738 81.4798 150.938 82.3969 150.912Z" fill="black"/>
<path d="M98.3522 140.932C98.201 138.022 97.182 135.224 95.4266 132.899C93.6711 130.574 91.2595 128.827 88.5026 127.885C76.0754 123.68 64.6418 138.239 72.0002 149.284C73.7361 151.869 76.2636 153.823 79.2036 154.851C82.1436 155.878 85.3376 155.925 88.3065 154.984C91.2754 154.043 93.8593 152.165 95.6705 149.632C97.4817 147.098 98.4226 144.045 98.3522 140.932ZM75.3122 131.716C84.1394 123.594 97.0994 130.276 97.445 140.946C97.4124 143.664 96.6283 146.32 95.1797 148.62C93.7311 150.92 91.6743 152.774 89.237 153.978C81.2018 157.477 71.4962 151.444 70.8194 142.948C70.6417 140.859 70.951 138.757 71.7231 136.808C72.4952 134.859 73.709 133.116 75.269 131.716H75.3122ZM178.56 129.743C179.811 131.657 181.504 133.244 183.495 134.367C185.487 135.491 187.72 136.12 190.006 136.2C192.291 136.28 194.563 135.81 196.629 134.829C198.695 133.848 200.495 132.385 201.877 130.563C203.259 128.741 204.183 126.613 204.571 124.359C204.959 122.105 204.8 119.791 204.106 117.612C203.413 115.433 202.206 113.452 200.587 111.836C198.968 110.221 196.984 109.018 194.803 108.33C181.872 104.327 171.475 119.389 178.56 129.743ZM181.872 112.189C190.872 103.895 203.659 111.08 203.991 121.42C203.962 124.131 203.186 126.782 201.748 129.082C200.31 131.381 198.266 133.239 195.84 134.452C187.819 137.951 178.099 131.932 177.408 123.421C177.234 121.327 177.551 119.222 178.333 117.272C179.116 115.322 180.342 113.582 181.915 112.189H181.872ZM89.7554 61.5732C79.1138 39.1092 51.8402 29.5332 29.837 44.5092C1.32496 63.9924 8.06416 105.119 40.1186 116.178C71.4242 127.295 105.595 95.0388 89.7554 61.5732ZM69.6962 113.269C67.083 114.549 64.3279 115.515 61.4882 116.149C61.6754 114.364 61.9058 109.756 61.9922 107.596C63.3458 109.756 65.7938 111.916 68.8322 111.484C71.4818 111.066 73.829 108.604 76.0322 104.284C78.1892 99.5626 79.4024 94.4653 79.6034 89.2788C79.838 88.6784 79.9882 88.0484 80.0498 87.4068C80.7815 85.7207 81.6333 84.0893 82.5986 82.5252C83.1169 82.0734 83.5679 81.5497 83.9378 80.97C84.3402 79.8537 84.4298 78.6487 84.197 77.4852C84.1518 76.3183 83.7214 75.1992 82.973 74.3028C83.5634 73.1076 85.205 67.65 85.4786 66.5844C85.5021 66.4702 85.4828 66.3513 85.4244 66.2504C85.366 66.1495 85.2725 66.0736 85.1618 66.0372C82.2749 65.597 79.3546 65.4139 76.4354 65.49C76.3346 65.3028 71.1506 80.106 70.6754 81.33C70.6534 81.3971 70.6454 81.4679 70.6518 81.5382C70.6582 81.6085 70.6789 81.6768 70.7126 81.7388C70.7463 81.8008 70.7923 81.8553 70.8478 81.8989C70.9033 81.9425 70.9671 81.9743 71.0354 81.9924C72.4665 82.2144 73.9086 82.3586 75.3554 82.4244C75.3554 83.0436 75.0818 84.7572 74.981 85.3044C74.5704 85.8257 74.2358 86.4026 73.9874 87.018C72.1995 88.573 70.9411 90.6469 70.3874 92.9508C67.8386 81.762 66.0674 76.9524 55.9874 71.3508C55.4834 71.0772 54.8786 70.8756 54.3314 70.5156C61.301 72.186 62.0786 72.978 62.3378 72.6324C70.229 61.5156 66.557 48.8004 58.4642 43.6884C50.8898 38.2164 43.4162 43.386 40.6946 52.0404C38.6786 58.8516 42.1346 64.8132 43.9202 67.29C42.2786 67.4484 41.717 67.6356 40.4066 67.7796C29.3186 68.9748 20.333 82.266 16.2146 92.6484C3.93136 64.4676 30.6866 32.3844 61.7906 39.8148C97.3442 49.5636 103.81 96.7668 69.6962 113.269ZM25.6466 106.069C26.741 104.37 29.477 99.6468 30.1106 98.538C38.117 104.701 53.1506 105.508 61.0418 100.252C61.0418 100.496 60.6818 114.378 60.6818 116.351C54.4447 117.492 48.027 117.157 41.9429 115.371C35.8589 113.586 30.2776 110.4 25.6466 106.069ZM70.8194 96.162C70.7934 95.7128 70.7405 95.2656 70.661 94.8228C70.7906 94.4196 70.877 94.0596 71.0066 93.5844C71.9426 95.1396 75.0386 97.9044 76.3202 98.0628C76.3847 98.0678 76.449 98.051 76.5028 98.0151C76.5566 97.9791 76.5967 97.926 76.6166 97.8645C76.6366 97.8029 76.6352 97.7365 76.6128 97.6758C76.5904 97.6151 76.5482 97.5637 76.493 97.53C74.361 96.2049 72.6484 94.3025 71.5538 92.0436C71.8854 91.1402 72.3728 90.3019 72.9938 89.5668C74.1225 91.3385 75.7099 92.7716 77.5874 93.714C77.6205 93.7225 77.6549 93.7244 77.6887 93.7196C77.7226 93.7148 77.7551 93.7034 77.7845 93.686C77.8139 93.6686 77.8397 93.6456 77.8602 93.6183C77.8807 93.591 77.8957 93.5599 77.9042 93.5268C77.9127 93.4937 77.9146 93.4592 77.9098 93.4254C77.905 93.3916 77.8936 93.359 77.8762 93.3296C77.8588 93.3002 77.8358 93.2745 77.8085 93.254C77.7811 93.2334 77.7501 93.2185 77.717 93.21C76.0328 92.0524 74.6463 90.5129 73.6706 88.7172C73.8578 88.4868 74.0594 88.2564 74.261 88.0404C75.4176 89.1787 76.9592 89.8415 78.581 89.898C78.3263 94.214 77.4384 98.4691 75.9458 102.527C74.7657 105.38 72.9189 107.908 70.5602 109.9C72.5446 106.047 72.9973 101.587 71.8274 97.4148C71.7985 97.3161 71.7375 97.2298 71.654 97.1698C71.5705 97.1098 71.4693 97.0794 71.3666 97.0836C70.1426 97.0836 71.8562 102.095 63.2306 107.639C62.7849 107.001 62.3855 106.332 62.0354 105.637C62.1218 100.741 61.9202 95.8596 61.7186 91.1364C61.7186 91.0485 61.6837 90.9643 61.6216 90.9022C61.5594 90.8401 61.4752 90.8052 61.3874 90.8052C61.2995 90.8052 61.2153 90.8401 61.1532 90.9022C61.0911 90.9643 61.0562 91.0485 61.0562 91.1364C61.1426 93.642 61.0562 96.1188 61.0562 99.0852C56.2178 102.124 50.6738 103.175 43.589 102.383C38.8761 102.135 34.3355 100.529 30.5138 97.7604C31.0178 96.8388 33.1202 92.8068 33.7106 91.7268C33.739 91.6776 33.7537 91.6217 33.7532 91.5649C33.7526 91.5081 33.7368 91.4525 33.7073 91.4039C33.6779 91.3553 33.6359 91.3155 33.5858 91.2887C33.5357 91.2619 33.4793 91.2491 33.4226 91.2516C33.077 91.2516 33.4226 91.1652 30.5426 96.1044C26.0001 94.325 22.3317 90.8426 20.3186 86.3988C22.6493 81.9494 25.7056 77.9197 29.3618 74.4756C31.2398 77.083 33.6228 79.2863 36.3692 80.9545C39.1155 82.6228 42.1692 83.722 45.3488 84.1867C48.5283 84.6515 51.7689 84.4724 54.8778 83.6601C57.9868 82.8477 60.9008 81.4187 63.4466 79.458C63.4954 79.4059 63.5242 79.3383 63.528 79.267C63.5317 79.1957 63.5101 79.1254 63.467 79.0685C63.4239 79.0116 63.3621 78.9718 63.2925 78.9561C63.2228 78.9404 63.1499 78.9499 63.0866 78.9828C60.9968 80.4188 58.7258 81.5712 56.333 82.41C51.6128 83.9051 46.5416 83.875 41.8396 82.324C37.1375 80.773 33.0436 77.78 30.1394 73.77C31.5185 72.6509 33.0153 71.6852 34.6034 70.89C40.061 83.1732 53.525 84.0516 60.0338 75.21C63.4034 77.8308 64.4402 78.162 67.133 84.6708C60.9554 90.0564 55.325 92.7348 49.9394 92.6772C45.4641 92.7084 41.0402 91.7227 37.0016 89.7944C32.963 87.8662 29.4151 85.0457 26.6258 81.546C26.3954 81.2292 25.877 81.546 26.1074 81.8916C30.4274 88.4724 38.621 92.7924 48.6434 93.7428C55.4258 94.4052 62.6258 90.5316 67.4642 85.6068C68.213 88.0836 69.1202 91.7268 69.221 92.1588C68.7746 93.5988 63.9506 98.0772 63.1874 98.25C62.741 98.3508 62.9714 99.042 63.3746 98.8692C65.6954 97.5262 67.786 95.8197 69.5666 93.8148C69.725 94.5636 70.013 95.9028 70.0562 96.234C70.0994 96.5652 70.8482 96.6228 70.8194 96.162ZM79.4594 74.4468C79.2809 74.3965 79.0929 74.3907 78.9116 74.4297C78.7304 74.4688 78.5614 74.5515 78.4195 74.6708C78.2775 74.79 78.1669 74.9421 78.0971 75.1139C78.0274 75.2857 78.0007 75.4719 78.0194 75.6564C76.4786 75.9876 76.5794 77.0964 77.4722 77.8164C78.3559 78.3742 79.2693 78.8837 80.2082 79.3428C79.877 80.1348 79.6178 80.7828 79.2722 81.546C77.8322 81.546 73.3538 81.2724 71.7986 81.1428C72.3746 79.3428 75.413 70.9764 77.0834 66.4548C78.5234 66.5268 83.0306 66.642 84.485 66.8724C84.1394 68.3124 82.6706 72.5028 82.253 73.8132C82.0306 73.6665 81.7809 73.5663 81.5188 73.5188C81.2567 73.4712 80.9877 73.4772 80.7281 73.5364C80.4684 73.5956 80.2233 73.7068 80.0078 73.8633C79.7922 74.0197 79.6105 74.2182 79.4738 74.4468H79.4594ZM80.093 82.2372C80.3378 81.4596 80.6402 80.7108 81.0434 79.7316C81.1075 79.7428 81.1736 79.7331 81.2317 79.7038C81.2899 79.6745 81.337 79.6272 81.3662 79.569C81.3953 79.5107 81.4048 79.4446 81.3934 79.3805C81.3819 79.3164 81.3501 79.2577 81.3026 79.2132C80.9426 78.882 77.6018 77.1108 77.7314 76.7652C77.861 76.4196 78.6962 76.6644 79.1714 76.938C80.1086 77.3239 81.0708 77.6463 82.0514 77.9028C82.1143 77.9096 82.1778 77.8955 82.232 77.8626C82.2861 77.8297 82.3279 77.7799 82.3508 77.7208C82.3738 77.6618 82.3767 77.5968 82.359 77.536C82.3413 77.4752 82.304 77.4219 82.253 77.3844C81.1284 76.9762 80.0317 76.4952 78.9698 75.9444C78.7538 75.7428 78.653 75.1956 78.9698 75.21C80.0277 75.4621 81.0133 75.9548 81.8498 76.65C81.8829 76.6812 81.9218 76.7056 81.9643 76.7217C82.0068 76.7379 82.0521 76.7455 82.0975 76.7442C82.143 76.7428 82.1878 76.7326 82.2293 76.7139C82.2707 76.6953 82.3082 76.6687 82.3394 76.6356C82.3706 76.6025 82.3949 76.5636 82.4111 76.521C82.4273 76.4785 82.4349 76.4333 82.4336 76.3878C82.4322 76.3423 82.422 76.2976 82.4033 76.2561C82.3847 76.2146 82.3581 76.1772 82.325 76.146C81.784 75.7189 81.2111 75.3337 80.6114 74.994C79.8914 74.5764 80.4098 74.058 81.1298 74.1588C82.0946 74.3028 83.333 75.5988 83.2034 78.2628C83.3233 78.9783 83.2303 79.7133 82.9359 80.3764C82.6414 81.0395 82.1586 81.6015 81.5474 81.9924C80.6194 83.4649 79.8335 85.0223 79.2002 86.6436C78.5669 86.8074 77.9001 86.7875 77.2778 86.586C76.6556 86.3845 76.1036 86.0099 75.6866 85.506C75.7874 85.002 76.0898 83.274 76.1762 82.626C79.3874 82.7268 79.949 82.7124 80.1074 82.2372H80.093ZM71.2658 99.6756C71.7616 103.35 71.1552 107.089 69.5234 110.418C68.4713 110.719 67.3515 110.686 66.3193 110.322C65.2871 109.958 64.3938 109.282 63.7634 108.388C67.2724 106.532 69.9518 103.421 71.2658 99.6756ZM44.7698 68.586C44.7954 68.6163 44.8289 68.639 44.8666 68.6515C44.9042 68.6641 44.9446 68.666 44.9833 68.657C45.022 68.6481 45.0575 68.6287 45.0859 68.6009C45.1143 68.5731 45.1344 68.5381 45.1442 68.4996C47.3186 59.946 47.261 60.4788 47.0594 60.3636C44.6402 59.0388 45.4034 56.4612 46.3826 56.1588C46.8722 56.0004 47.5202 56.3172 48.1682 57.0372C48.5913 57.435 48.9124 57.9289 49.1042 58.4772C50.5442 62.5092 58.5218 57.1956 61.9778 54.6468C62.2176 54.4474 62.5012 54.3077 62.8054 54.2392C63.1097 54.1706 63.4258 54.1752 63.7279 54.2525C64.03 54.3298 64.3095 54.4776 64.5435 54.6838C64.7774 54.89 64.9592 55.1487 65.0738 55.4388C65.405 56.0724 64.8002 56.6052 64.4402 55.914C63.6914 54.6468 62.381 55.3524 62.4098 55.698C62.6978 59.2692 62.0354 64.338 59.2562 66.8148C56.477 69.2916 53.2514 68.01 52.9634 68.2548C52.6754 68.4996 52.8338 68.73 52.8338 69.0036C52.705 69.3092 52.6478 69.6402 52.6666 69.9713C52.6855 70.3024 52.7798 70.6249 52.9424 70.9139C53.105 71.203 53.3315 71.451 53.6047 71.639C53.8779 71.8271 54.1905 71.9501 54.5186 71.9988C55.6953 72.4435 56.8164 73.0233 57.8594 73.7268C52.733 81.6468 41.5298 80.4804 37.2386 69.81C39.6375 68.9909 42.1378 68.5064 44.669 68.37L44.7698 68.586ZM19.8434 87.306C20.7737 89.5294 22.1627 91.5315 23.9194 93.1815C25.6762 94.8316 27.7613 96.0926 30.0386 96.882C29.8658 97.1556 25.8482 103.722 24.8978 105.335C21.4013 101.976 18.5595 97.9961 16.517 93.5988C17.9426 91.0356 18.7202 89.4804 19.8434 87.3204V87.306ZM271.527 61.7892C263.419 35.8692 234.202 23.9604 211.507 37.7556C185.933 53.2788 184.407 87.8388 208.8 105.292C240.855 128.159 282.672 96.594 271.527 61.7892ZM227.751 101.072C232.517 107.394 237.298 107.884 240.495 107.149C246.456 105.796 251.683 99.0996 253.21 90.8484C253.231 90.751 253.212 90.6492 253.158 90.5655C253.104 90.4818 253.019 90.423 252.922 90.402C252.824 90.381 252.723 90.3995 252.639 90.4535C252.555 90.5075 252.496 90.5926 252.475 90.69C251.798 94.2133 250.32 97.5338 248.155 100.396C239.688 111.426 230.875 106.04 224.122 93.8292C221.927 90.328 220.695 86.3094 220.551 82.1796C223.978 80.5668 223.906 80.4804 224.309 80.826C228.312 84.2676 235.584 92.4756 236.592 93.5844C236.61 93.68 236.661 93.7664 236.736 93.8286C236.811 93.8907 236.905 93.9248 237.003 93.9248C237.1 93.9248 237.194 93.8907 237.269 93.8286C237.344 93.7664 237.395 93.68 237.413 93.5844C239.026 87.0756 240.293 80.322 245.088 75.6708C246.868 75.261 248.672 74.958 250.488 74.7636C256.867 82.8276 255.96 93.5844 255.931 103.794C251.655 107.06 246.742 109.394 241.509 110.646C236.276 111.898 230.839 112.042 225.547 111.066C225.859 107.655 226.599 104.298 227.751 101.072ZM251.712 74.634C252.49 74.634 252.418 73.3668 251.712 73.4676C248.707 73.7183 245.756 74.4172 242.957 75.5412C242.568 75.6996 242.122 75.786 242.266 76.1748C242.41 76.5636 242.727 76.2756 243.807 76.002C239.573 80.4804 237.975 86.7876 236.866 92.4612C236.074 91.4964 234.115 89.2644 233.611 88.6884C238.047 78.9108 237.802 78.6084 240.408 76.6356C241.416 75.8292 245.52 72.8628 248.919 70.7316C250.733 69.5796 252.029 68.7732 255.053 72.9636C257.861 76.866 257.933 76.9236 256.133 85.4916C255.592 81.5461 254.034 77.8093 251.611 74.6484L251.712 74.634ZM220.032 66.1524C220.291 66.1524 220.421 66.354 220.623 66.6564C225.375 73.8564 225.015 73.0356 225.015 73.1796C225.015 73.8708 225.951 74.9076 226.887 75.786C226.123 76.074 224.698 76.65 223.848 76.9956C223.848 74.346 221.976 74.346 221.472 75.4548C220.579 74.1444 218.592 71.5524 218.189 71.0484C218.08 70.8933 217.932 70.7692 217.76 70.6885C217.589 70.6077 217.399 70.5729 217.21 70.5876C216.533 69.7236 215.007 67.7076 214.416 66.8292C214.56 66.8004 219.571 66.2388 220.018 66.1524H220.032ZM229.824 79.8036C229.608 81.5604 226.858 79.602 227.923 78.6228C228.12 78.9562 228.394 79.2375 228.723 79.443C229.051 79.6484 229.424 79.7721 229.81 79.8036H229.824ZM229.666 78.8964C229.075 78.7956 227.88 77.4564 228.226 77.154C228.571 76.8516 230.055 78.666 230.026 78.882C229.905 78.9227 229.775 78.9277 229.651 78.8964H229.666ZM232.963 88.0404C231.711 86.7156 226.023 80.8404 225.879 80.7252C225.67 80.4133 225.4 80.1467 225.086 79.9414C224.772 79.736 224.419 79.5961 224.05 79.53C223.861 79.0397 223.787 78.5125 223.834 77.9892L227.549 76.4052C227.895 76.7076 227.549 76.4052 227.376 77.0676C227.294 77.3766 227.33 77.7053 227.477 77.9892C226.037 79.0548 227.477 81.5316 229.378 81.3444C229.943 81.7313 230.431 82.2196 230.818 82.7844C231.244 84.2543 231.848 85.6664 232.618 86.9892C233.093 87.8388 233.064 87.738 232.949 88.0404H232.963ZM231.739 82.8996C231.739 82.4388 233.395 80.7108 233.655 80.4948C234.426 80.7191 235.178 81.0082 235.901 81.3588C235.483 82.3092 234.144 85.3476 233.482 86.8884C232.759 85.6235 232.17 84.2866 231.725 82.8996H231.739ZM231.149 81.978C230.871 81.611 230.541 81.2861 230.17 81.0132C230.347 80.8215 230.48 80.5932 230.56 80.3443C230.64 80.0955 230.664 79.8323 230.631 79.5732C230.713 79.5181 230.783 79.4458 230.835 79.3613C230.887 79.2769 230.921 79.1821 230.933 79.0836C231.048 78.4068 230.285 77.8452 229.781 77.37C228.29 76.1996 226.962 74.8337 225.835 73.3092C226.98 73.8824 228.073 74.552 229.104 75.3108C230.832 76.5924 233.05 77.802 232.877 79.9332C232.241 80.566 231.659 81.2499 231.135 81.978H231.149ZM217.44 71.4516C218.904 73.1048 220.247 74.8613 221.458 76.7076C221.5 76.7718 221.56 76.8222 221.63 76.8525C221.7 76.8827 221.778 76.8915 221.854 76.8776C221.929 76.8638 221.999 76.828 222.054 76.7746C222.109 76.7213 222.147 76.6529 222.163 76.578C222.163 76.1748 222.351 75.4548 222.725 75.6132C223.517 76.6932 222.725 78.378 223.258 79.7172C219.399 81.4164 222.552 80.9844 220.176 78.2772C217.973 75.9588 217.109 72.186 217.44 71.4516ZM232.287 70.0116C232.812 68.1276 232.812 66.1356 232.287 64.2516C232.073 63.4121 231.943 62.5535 231.898 61.6884C232.763 61.7807 233.636 61.7418 234.49 61.5732C237.01 61.1556 238.306 59.802 238.925 60.2196C239.328 60.4932 239.4 61.3428 239.141 62.6964C239.135 62.7403 239.143 62.7849 239.164 62.8241C239.184 62.8634 239.216 62.8954 239.256 62.9158C239.295 62.9363 239.339 62.9441 239.383 62.9384C239.427 62.9326 239.468 62.9135 239.501 62.8836C240.049 62.4345 240.736 62.1902 241.445 62.1924C243.36 62.3508 243.288 65.0724 241.445 66.2388C241.405 66.2703 241.378 66.3148 241.368 66.3644C241.358 66.414 241.365 66.4657 241.389 66.5103C241.413 66.5549 241.452 66.5897 241.499 66.6085C241.546 66.6273 241.598 66.6289 241.647 66.6132C242.338 66.3757 243.079 66.3239 243.797 66.4628C244.515 66.6018 245.183 66.9268 245.736 67.4052C246.038 68.6108 246.447 69.7867 246.96 70.9188C244.959 72.2868 242.28 74.1588 240.365 75.642C238.637 72.0132 236.491 74.5908 235.008 71.682C233.511 69.1908 232.56 70.0548 232.215 69.9684L232.287 70.0116ZM256.421 87.2916C257.459 84.1295 258.055 80.8392 258.192 77.514C257.988 75.9133 257.339 74.4018 256.32 73.1508C252.231 67.2468 250.56 68.226 247.407 70.3572C247.119 69.4788 246.485 67.65 246.37 67.1604C246.557 66.9732 247.047 66.498 247.191 66.3972C247.723 65.6497 248.136 64.8238 248.415 63.9492C248.783 62.7274 248.934 61.4504 248.861 60.1764C248.933 58.9688 248.742 57.7599 248.299 56.634C247.383 55.0329 245.935 53.8033 244.207 53.1588C242.479 52.5142 240.579 52.4956 238.839 53.106C236.146 52.2132 232.675 51.2916 231.365 51.8532C230.323 52.1044 229.389 52.6832 228.7 53.5044C228.011 54.3256 227.604 55.3461 227.538 56.4159C227.472 57.4857 227.751 58.5485 228.333 59.4482C228.916 60.348 229.771 61.0372 230.775 61.4148C230.731 62.5266 230.857 63.6386 231.149 64.7124C231.637 66.2238 231.677 67.8443 231.264 69.378C231.005 70.53 231.379 71.0484 232.704 70.818C234.259 70.9332 233.41 73.698 236.938 74.2164C237.787 74.3604 238.464 74.49 239.343 76.1172C237.874 77.2913 236.77 78.8597 236.16 80.6388C235.377 80.177 234.547 79.8005 233.683 79.5156C233.588 78.7976 233.338 78.1089 232.95 77.4972C232.562 76.8856 232.046 76.3655 231.437 75.9732C230.095 74.8526 228.648 73.8641 227.117 73.0212C226.815 72.8628 226.181 72.3732 225.677 72.474C220.666 64.842 221.184 65.1732 219.615 65.1732C217.587 65.251 215.572 65.521 213.595 65.9796C213.524 66.0062 213.46 66.0486 213.408 66.1034C213.356 66.1583 213.316 66.2242 213.293 66.2964C213.207 66.642 213.293 66.4404 215.309 69.3204C217.181 71.9412 216.504 70.6596 216.619 72.0708C216.875 74.7915 217.984 77.362 219.787 79.4148C220.131 79.9425 220.269 80.5777 220.176 81.2004L219.989 81.2868C219.499 81.5316 220.119 86.442 220.464 87.594C222.046 92.1197 224.325 96.3709 227.218 100.194C225.8 103.597 224.93 107.203 224.64 110.879C211.781 107.999 200.794 99.258 195.84 87.9108C190.887 76.5636 192.154 63.258 199.671 50.8308C220.479 20.2884 266.112 32.5572 271.527 68.2404C273.514 81.7908 267.581 94.65 256.925 103.088C257.07 97.8248 256.868 92.5573 256.32 87.3204L256.421 87.2916ZM250.747 116.524C250.873 118.833 251.274 121.12 251.943 123.335C251.989 123.472 252.087 123.586 252.217 123.65C252.346 123.715 252.496 123.726 252.634 123.68C253.728 123.364 252.115 121.852 251.64 116.48C251.597 115.919 250.704 115.948 250.747 116.524ZM255.154 133.732C255.125 133.611 255.05 133.507 254.945 133.442C254.839 133.378 254.712 133.357 254.592 133.386C254.472 133.415 254.368 133.49 254.303 133.595C254.238 133.701 254.218 133.827 254.247 133.948C256.09 143.308 255.845 144.215 256.781 144.028C257.717 143.84 257.055 142.948 255.154 133.732ZM258.538 155.994C257.746 156.21 258.797 156.325 259.503 165.066C259.503 165.858 260.799 165.815 260.712 165.066C260.349 162.111 259.777 159.185 258.999 156.311C258.994 156.257 258.978 156.206 258.951 156.159C258.925 156.113 258.888 156.073 258.844 156.043C258.799 156.012 258.749 155.992 258.696 155.984C258.643 155.975 258.589 155.979 258.538 155.994ZM221.991 132.176C223.528 127.614 224.812 122.97 225.835 118.266C225.857 118.158 225.836 118.045 225.778 117.952C225.719 117.858 225.627 117.79 225.52 117.763C225.413 117.735 225.3 117.75 225.203 117.803C225.106 117.856 225.034 117.945 225 118.05C223.848 122.672 222.322 127.151 220.896 131.845C220.872 131.984 220.9 132.126 220.973 132.246C221.047 132.366 221.162 132.454 221.297 132.495C221.431 132.536 221.576 132.526 221.704 132.467C221.832 132.408 221.934 132.305 221.991 132.176ZM216.144 151.199C216.951 151.199 216.807 150.22 219.096 141.652C219.127 141.548 219.115 141.437 219.064 141.343C219.012 141.248 218.926 141.178 218.823 141.148C218.719 141.117 218.608 141.129 218.514 141.18C218.419 141.231 218.349 141.318 218.319 141.421C217.872 142.861 215.914 148.924 215.554 150.45C215.532 150.539 215.531 150.632 215.55 150.722C215.57 150.812 215.609 150.896 215.666 150.968C215.723 151.041 215.796 151.099 215.879 151.139C215.961 151.179 216.052 151.199 216.144 151.199ZM209.607 169.919C210.111 169.919 210.082 169.544 210.499 167.874C211.061 165.599 211.939 162.114 212.285 161.135C212.501 160.559 211.623 160.3 211.407 160.847C210.436 163.668 209.67 166.555 209.117 169.487C209.128 169.608 209.185 169.72 209.276 169.8C209.367 169.881 209.485 169.923 209.607 169.919ZM204.855 182.173C203.528 184.744 202.503 187.459 201.802 190.266C201.764 190.411 201.785 190.565 201.86 190.695C201.936 190.825 202.06 190.919 202.205 190.957C202.35 190.995 202.504 190.974 202.634 190.899C202.764 190.823 202.858 190.699 202.896 190.554C205.301 182.389 206.079 182.317 205.373 181.914C205.322 181.894 205.268 181.885 205.213 181.887C205.158 181.889 205.105 181.903 205.056 181.928C205.007 181.952 204.964 181.987 204.929 182.029C204.894 182.071 204.869 182.12 204.855 182.173ZM189.807 140.312C189.951 141.436 190.469 146.072 190.642 147.354C190.652 147.433 190.678 147.51 190.718 147.579C190.758 147.649 190.811 147.71 190.875 147.758C190.938 147.807 191.011 147.843 191.088 147.864C191.166 147.885 191.246 147.89 191.326 147.88C191.405 147.869 191.482 147.843 191.551 147.803C191.621 147.763 191.681 147.71 191.73 147.646C191.779 147.583 191.815 147.51 191.836 147.433C191.856 147.356 191.862 147.275 191.851 147.196C191.664 145.957 190.858 141.306 190.685 140.197C190.599 139.679 189.735 139.78 189.807 140.312ZM192.067 160.919C192.226 161.826 192.816 165.743 193.003 166.78C193.147 167.557 194.299 167.269 194.155 166.506C193.81 164.591 193.349 162.661 192.989 160.746C192.874 160.098 191.967 160.328 192.067 160.919ZM194.4 180.949C194.464 183.366 194.724 185.774 195.178 188.149C195.351 188.941 196.531 188.624 196.387 187.847C195.895 185.559 195.52 183.247 195.264 180.92C195.135 180.388 194.299 180.373 194.4 180.949ZM156.96 61.1124C156.687 60.594 155.923 61.026 156.168 61.5444C160.848 71.1492 160.488 71.2356 161.165 71.2356C161.277 71.2345 161.386 71.2053 161.483 71.1506C161.581 71.0959 161.663 71.0176 161.722 70.9227C161.78 70.8279 161.814 70.7198 161.82 70.6083C161.826 70.4968 161.804 70.3857 161.755 70.2852C160.171 67.1892 158.501 64.1796 156.96 61.1124ZM165.888 79.89C165.672 79.4004 164.938 79.7892 165.154 80.2788C166.594 83.49 167.789 86.7876 169.258 90.0132C169.575 90.7332 170.626 90.1572 170.309 89.4516C168.883 86.1396 167.199 82.8132 165.888 79.89ZM178.56 109.223C178.647 109.228 178.734 109.211 178.814 109.174C178.893 109.137 178.962 109.082 179.014 109.012C179.067 108.942 179.102 108.861 179.115 108.774C179.129 108.688 179.121 108.6 179.093 108.517C178.589 107.077 176.098 101.792 175.464 100.367C175.205 99.7764 174.341 100.237 174.586 100.828C178.013 108.69 177.955 109.223 178.56 109.223ZM204.797 103.996C204.264 104.903 201.816 108.229 201.154 109.079C201.105 109.142 201.068 109.215 201.047 109.292C201.026 109.369 201.02 109.45 201.03 109.53C201.04 109.609 201.066 109.686 201.106 109.756C201.145 109.825 201.198 109.886 201.262 109.936C201.325 109.985 201.398 110.021 201.475 110.042C201.552 110.063 201.633 110.069 201.713 110.059C201.792 110.049 201.869 110.023 201.939 109.984C202.008 109.944 202.069 109.891 202.119 109.828C203.359 108.098 204.484 106.289 205.488 104.413C205.544 104.322 205.56 104.212 205.535 104.108C205.509 104.004 205.443 103.914 205.351 103.859C205.26 103.803 205.15 103.787 205.046 103.812C204.942 103.838 204.852 103.904 204.797 103.996ZM179.64 49.6788C180.231 49.6788 180.547 48.786 179.928 48.5124C178.618 47.922 173.103 46.0932 171.735 45.6324C171.173 45.4164 170.885 46.2804 171.447 46.4964C172.901 47.0148 179.165 49.6788 179.64 49.6788ZM184.637 51.8388C187.222 53.2451 189.937 54.3977 192.744 55.2804C192.905 55.3081 193.071 55.2753 193.209 55.1882C193.348 55.1011 193.449 54.9659 193.494 54.8086C193.539 54.6513 193.523 54.483 193.452 54.3362C193.38 54.1893 193.256 54.0743 193.104 54.0132C190.348 53.265 187.668 52.2623 185.098 51.018C184.551 50.7732 184.09 51.6084 184.637 51.8388ZM115.906 50.9748C121.666 47.1012 123.394 47.9796 123.106 46.9572C123.089 46.8983 123.061 46.8432 123.023 46.7953C122.985 46.7474 122.938 46.7075 122.884 46.678C122.831 46.6485 122.772 46.63 122.711 46.6235C122.65 46.6171 122.588 46.6228 122.53 46.6404C119.93 47.3241 117.456 48.4178 115.2 49.8804C114.538 50.3988 115.2 51.4356 115.906 50.9748ZM102.816 55.8276C102.37 56.1876 102.73 56.778 103.234 56.778C103.407 56.778 103.435 56.778 105.019 55.986C106.603 55.194 108.418 54.3444 109.095 54.1428C109.208 54.098 109.301 54.0124 109.355 53.9027C109.409 53.793 109.419 53.6671 109.385 53.5499C109.351 53.4326 109.274 53.3324 109.17 53.2689C109.065 53.2054 108.941 53.1833 108.821 53.2068C106.737 53.8782 104.726 54.7562 102.816 55.8276Z" fill="black"/>
<path d="M97.258 58.5502C96.5093 58.9678 92.3764 61.1422 91.93 61.4302C91.8382 61.4941 91.7682 61.5847 91.7294 61.6897C91.6907 61.7947 91.6851 61.909 91.7133 62.0173C91.7416 62.1256 91.8023 62.2226 91.8874 62.2953C91.9725 62.368 92.0779 62.4128 92.1892 62.4238C94.1024 61.5201 95.9586 60.5006 97.7476 59.371C97.8286 59.2945 97.881 59.1927 97.8963 59.0824C97.9116 58.9722 97.8889 58.86 97.8318 58.7643C97.7748 58.6687 97.6869 58.5954 97.5826 58.5565C97.4782 58.5175 97.3638 58.5153 97.258 58.5502ZM84.9604 35.539C86.8931 35.552 88.8083 35.1735 90.5907 34.4263C92.3731 33.679 93.9857 32.5786 95.3313 31.1913C96.6769 29.804 97.7276 28.1585 98.4201 26.3542C99.1126 24.5498 99.4324 22.6239 99.3605 20.6926C98.9284 7.83337 82.2676 1.69897 73.8436 12.643C66.2404 22.1614 73.5556 35.539 84.9604 35.539ZM76.3204 11.5198C85.1476 3.38377 98.1077 10.0798 98.4389 20.7502C98.4123 23.4584 97.6316 26.1057 96.1843 28.3949C94.737 30.6841 92.6804 32.5247 90.2452 33.7102C82.1956 37.2238 72.5044 31.1902 71.8132 22.6942C71.6473 20.6097 71.968 18.5152 72.7502 16.5759C73.5324 14.6367 74.7547 12.9057 76.3204 11.5198ZM116.986 23.3422C119.535 23.6158 122.098 23.6446 124.647 23.7598C124.761 23.7598 124.871 23.7143 124.952 23.6332C125.033 23.5522 125.079 23.4423 125.079 23.3278C125.079 23.2132 125.033 23.1033 124.952 23.0223C124.871 22.9413 124.761 22.8958 124.647 22.8958C121.968 22.651 120.327 22.3198 116.986 22.1038C116.223 22.0606 116.208 23.2558 116.986 23.3422ZM101.895 21.8158C103.061 21.9454 107.856 22.2766 109.095 22.435C109.743 22.5358 110.002 21.5566 109.325 21.4414C106.888 21.0587 104.431 20.8088 101.967 20.6926C101.893 20.6878 101.819 20.6977 101.749 20.7215C101.679 20.7454 101.615 20.7828 101.559 20.8316C101.504 20.8804 101.458 20.9397 101.426 21.006C101.393 21.0723 101.374 21.1444 101.369 21.2182C101.365 21.2919 101.374 21.3659 101.398 21.4358C101.422 21.5058 101.459 21.5703 101.508 21.6258C101.557 21.6813 101.616 21.7267 101.683 21.7592C101.749 21.7918 101.821 21.811 101.895 21.8158ZM44.6404 128.361C45.058 125.712 45.1588 123.077 45.4756 120.441C45.5476 119.952 44.7412 119.837 44.6692 120.341C44.266 122.933 43.6468 125.539 43.3444 128.174C43.3459 128.332 43.4039 128.485 43.508 128.604C43.6121 128.723 43.7555 128.801 43.9121 128.824C44.0688 128.846 44.2283 128.812 44.3619 128.727C44.4955 128.643 44.5943 128.513 44.6404 128.361ZM43.0852 135.489C41.6452 143.395 41.314 144.36 42.3508 144.36C43.1284 144.36 42.9844 143.841 43.9636 135.605C44.0356 135.072 43.2004 134.957 43.0852 135.489ZM69.5668 148.651C67.378 149.803 64.6564 151.142 63.8068 151.646C63.6888 151.716 63.5973 151.823 63.5466 151.95C63.4959 152.078 63.489 152.218 63.5269 152.35C63.5648 152.482 63.6453 152.598 63.756 152.679C63.8666 152.76 64.001 152.802 64.138 152.798C66.1461 151.802 68.0978 150.696 69.9844 149.486C70.0725 149.419 70.1344 149.323 70.1594 149.216C70.1844 149.108 70.171 148.995 70.1215 148.896C70.072 148.797 69.9895 148.718 69.8883 148.673C69.787 148.629 69.6733 148.621 69.5668 148.651ZM61.1428 153.086C59.5707 153.823 58.0375 154.64 56.5492 155.534C56.0884 155.952 56.6356 156.643 57.1828 156.384C57.73 156.125 60.7972 154.224 61.5028 153.893C62.2084 153.561 61.6756 152.856 61.1428 153.086ZM119.132 165.081C119.65 165.413 120.14 164.621 119.636 164.275C118.541 163.555 114.38 160.473 113.228 159.869C113.079 159.797 112.908 159.782 112.749 159.827C112.59 159.872 112.453 159.974 112.364 160.113C111.773 161.035 113.76 161.553 119.132 165.081ZM99.1876 151.776C99.9076 152.28 100.628 152.755 101.362 153.216C106.272 156.47 106.042 156.571 106.344 156.571C106.444 156.57 106.541 156.539 106.623 156.482C106.705 156.426 106.768 156.347 106.805 156.254C106.842 156.162 106.851 156.061 106.831 155.963C106.81 155.866 106.761 155.777 106.69 155.707C104.504 153.908 102.22 152.23 99.85 150.681C99.1588 150.264 98.5252 151.329 99.1876 151.776ZM240.984 199.497C238.623 199.829 236.189 200.073 233.784 200.621C233.637 200.666 233.51 200.763 233.427 200.894C233.345 201.025 233.312 201.181 233.334 201.334C233.357 201.488 233.434 201.628 233.551 201.729C233.667 201.831 233.817 201.887 233.972 201.888C234.533 201.888 238.119 200.923 241.172 200.448C241.92 200.39 241.632 199.382 240.984 199.497ZM228.255 201.83C225.836 202.19 223.172 202.406 220.551 202.853C219.816 202.982 220.018 204.048 220.738 204.048C221.458 204.048 226.613 203.011 228.442 202.723C229.032 202.622 228.831 201.744 228.255 201.83ZM141.12 150.206C141.048 150.084 140.93 149.996 140.792 149.96C140.654 149.925 140.508 149.946 140.386 150.019C140.264 150.092 140.175 150.21 140.14 150.347C140.105 150.485 140.126 150.631 140.199 150.753C140.909 151.911 142.029 152.76 143.336 153.131C144.643 153.502 146.042 153.367 147.255 152.755C147.336 152.706 147.395 152.627 147.421 152.536C147.446 152.444 147.436 152.346 147.392 152.262C147.348 152.178 147.274 152.114 147.184 152.082C147.094 152.051 146.996 152.054 146.909 152.093C145.876 152.508 144.73 152.547 143.672 152.202C142.613 151.857 141.71 151.151 141.12 150.206ZM151.2 144.878C151.1 145.713 150.351 145.253 150.293 145.757C150.293 146.03 150.524 146.131 150.812 146.131C151.067 146.122 151.316 146.045 151.532 145.908C151.748 145.772 151.924 145.58 152.041 145.352C152.159 145.125 152.213 144.871 152.2 144.615C152.186 144.36 152.104 144.113 151.964 143.899C151.156 143.033 150.419 142.104 149.76 141.12C149.736 141.03 149.676 140.954 149.595 140.908C149.514 140.862 149.418 140.85 149.328 140.875C149.239 140.9 149.162 140.959 149.117 141.04C149.071 141.121 149.059 141.217 149.084 141.307C149.422 142.069 149.847 142.789 150.351 143.453C150.68 143.899 150.965 144.376 151.2 144.878ZM143.554 134.337C143.516 134.166 143.411 134.016 143.262 133.921C143.114 133.827 142.934 133.795 142.762 133.833C142.59 133.872 142.441 133.976 142.346 134.125C142.252 134.274 142.22 134.454 142.258 134.625C142.661 137.361 142.416 138.528 143.496 138.528C143.703 138.528 143.9 138.446 144.046 138.3C144.192 138.154 144.274 137.956 144.274 137.75C144.274 137.39 143.669 134.942 143.554 134.337ZM154.872 134.467C154.842 134.31 154.756 134.169 154.629 134.071C154.503 133.973 154.346 133.923 154.186 133.932C154.026 133.941 153.875 134.007 153.76 134.119C153.646 134.23 153.575 134.38 153.562 134.539C153.562 134.755 153.764 137.333 153.836 137.534C153.857 137.725 153.953 137.9 154.103 138.02C154.252 138.14 154.444 138.196 154.635 138.175C154.826 138.154 155.001 138.058 155.121 137.908C155.241 137.758 155.297 137.567 155.276 137.376C155.247 137.203 155.016 135.792 154.872 134.467ZM141.293 133.603C141.478 132.991 141.862 132.457 142.383 132.087C142.904 131.717 143.534 131.531 144.173 131.558C144.285 131.571 144.398 131.541 144.489 131.474C144.58 131.408 144.642 131.309 144.663 131.198C144.807 130.161 140.933 130.579 140.084 133.272C140.04 133.432 140.061 133.603 140.144 133.748C140.226 133.892 140.362 133.998 140.523 134.042C140.683 134.086 140.855 134.064 140.999 133.982C141.143 133.9 141.249 133.763 141.293 133.603ZM152.064 131.04C152.588 131.009 153.108 131.152 153.542 131.446C153.977 131.74 154.303 132.169 154.469 132.667C154.728 133.229 155.636 132.854 155.463 132.249C155.181 131.57 154.672 131.01 154.024 130.664C153.376 130.317 152.627 130.206 151.906 130.349C151.828 130.381 151.764 130.441 151.726 130.516C151.687 130.592 151.676 130.678 151.695 130.761C151.714 130.843 151.761 130.916 151.829 130.967C151.897 131.018 151.98 131.044 152.064 131.04ZM263.189 179.496C263.189 179.496 262.426 176.011 262.224 175.003C262.2 174.89 262.131 174.792 262.034 174.73C261.937 174.668 261.819 174.647 261.706 174.672C261.593 174.697 261.495 174.765 261.433 174.862C261.371 174.96 261.35 175.078 261.375 175.19L262.052 179.294C259.764 179.004 257.441 179.204 255.237 179.88C253.032 180.556 250.996 181.693 249.264 183.215C247.532 184.737 246.144 186.61 245.191 188.71C244.237 190.809 243.741 193.088 243.735 195.393C244.599 217.094 275.746 216.662 276.178 195.393C276.207 191.645 274.925 188.003 272.553 185.1C270.181 182.197 266.869 180.215 263.189 179.496ZM266.904 202.205C264.629 208.67 256.047 207.518 256.047 199.8V195.134C255.795 195.166 255.54 195.145 255.297 195.07C255.055 194.996 254.831 194.871 254.641 194.703C254.45 194.536 254.298 194.329 254.193 194.098C254.089 193.867 254.035 193.617 254.035 193.363C254.035 193.109 254.089 192.859 254.193 192.628C254.298 192.397 254.45 192.19 254.641 192.023C254.831 191.855 255.055 191.73 255.297 191.656C255.54 191.581 255.795 191.56 256.047 191.592C256.047 190.152 256.047 188.712 256.148 187.142C256.153 186.91 256.205 186.68 256.299 186.468C256.393 186.255 256.528 186.063 256.697 185.902C256.865 185.742 257.064 185.616 257.281 185.532C257.498 185.449 257.729 185.408 257.962 185.414C258.433 185.429 258.879 185.63 259.203 185.973C259.527 186.315 259.702 186.772 259.69 187.243C259.69 188.755 259.69 190.195 259.604 191.563H262.642C262.874 191.557 263.106 191.598 263.322 191.683C263.539 191.768 263.736 191.895 263.902 192.058C264.069 192.22 264.201 192.414 264.291 192.628C264.381 192.843 264.428 193.073 264.428 193.305C264.431 193.539 264.389 193.771 264.303 193.989C264.216 194.206 264.088 194.404 263.924 194.571C263.761 194.739 263.566 194.872 263.351 194.964C263.136 195.055 262.905 195.104 262.671 195.105H259.56C259.56 200.361 259.416 201.24 260.136 202.133C261.159 203.429 262.714 202.997 263.52 201.009C263.679 200.561 264.009 200.193 264.439 199.988C264.868 199.783 265.361 199.757 265.81 199.915C266.259 200.073 266.626 200.404 266.831 200.833C267.037 201.263 267.063 201.756 266.904 202.205ZM147.471 15.0334C144.523 15.0181 141.602 15.5872 138.876 16.7076C136.15 17.8281 133.673 19.4777 131.588 21.5612C129.503 23.6446 127.852 26.1207 126.73 28.8461C125.608 31.5715 125.037 34.4924 125.05 37.4398C125.64 67.1038 169.301 67.1182 169.877 37.4398C169.893 34.4931 169.323 31.5725 168.203 28.8472C167.082 26.1218 165.432 23.6457 163.349 21.562C161.265 19.4783 158.789 17.8285 156.063 16.7079C153.338 15.5872 150.418 15.0181 147.471 15.0334ZM153.936 26.3518C153.716 26.7653 153.342 27.0756 152.895 27.2156C152.447 27.3557 151.963 27.3144 151.546 27.1006C150.803 26.6922 149.941 26.5579 149.109 26.7211C148.277 26.8843 147.529 27.3346 146.996 27.9934C145.34 29.7214 145.412 35.5966 145.412 35.9134L149.732 35.251C150.198 35.1803 150.673 35.2976 151.052 35.5772C151.431 35.8567 151.684 36.2754 151.755 36.7414C151.826 37.2073 151.708 37.6822 151.429 38.0616C151.149 38.4411 150.73 38.6939 150.264 38.7646L145.426 39.499C145.426 42.9262 145.584 46.2382 145.7 49.579C145.679 50.0267 145.491 50.4504 145.173 50.7658C144.854 51.0813 144.429 51.2655 143.981 51.2818C143.533 51.2981 143.095 51.1454 142.755 50.8539C142.414 50.5625 142.196 50.1536 142.143 49.7086C141.984 44.9854 141.869 40.1902 141.812 35.0638C141.812 32.1838 141.812 28.4254 144.375 25.5886C148.392 21.1966 155.52 23.3998 153.936 26.3518Z" fill="black"/>
<path d="M215.683 208.799C221.573 191.692 221.285 192.7 221.184 192.556C221.083 192.412 202.464 192.066 192.125 192.268C188.002 186.085 182.613 180.849 176.315 176.905C170.017 172.96 162.954 170.397 155.592 169.386C154.473 168.158 152.928 167.402 151.272 167.269L149.472 166.65C149.4 165.245 149.4 163.836 149.472 162.431C153.513 160.892 156.815 157.868 158.703 153.978C160.819 149.226 159.768 143.149 158.53 127.698C161.496 128.62 161.568 125.567 159.768 123.176C159.849 122.666 159.824 122.143 159.693 121.643C159.562 121.142 159.329 120.675 159.008 120.269C158.688 119.863 158.286 119.528 157.83 119.285C157.373 119.042 156.871 118.896 156.355 118.856C156.632 118.432 156.792 117.941 156.819 117.435C156.845 116.928 156.738 116.424 156.507 115.972C156.276 115.521 155.93 115.138 155.504 114.863C155.078 114.589 154.587 114.431 154.08 114.407C153.78 113.748 153.281 113.199 152.654 112.837C152.026 112.476 151.302 112.32 150.581 112.391C150.479 111.906 150.25 111.458 149.916 111.092C149.583 110.726 149.158 110.456 148.686 110.309C148.213 110.162 147.709 110.144 147.228 110.257C146.746 110.37 146.303 110.609 145.944 110.951C145.642 110.49 144.893 109.352 144.504 108.92C144.812 108.617 145.024 108.231 145.113 107.808C145.203 107.386 145.166 106.946 145.008 106.544C145.714 106.324 146.33 105.883 146.768 105.287C147.206 104.692 147.442 103.972 147.442 103.232C147.442 102.493 147.206 101.773 146.768 101.177C146.33 100.582 145.714 100.141 145.008 99.9204C146.146 95.7732 142.258 93.2244 138.73 94.8804C138.539 94.4046 138.211 93.9961 137.789 93.7065C137.366 93.4168 136.866 93.2591 136.354 93.2532C139.234 89.6244 135.13 87.09 131.227 88.3284C130.971 87.6701 130.54 87.0942 129.98 86.6625C129.421 86.2308 128.755 85.9596 128.053 85.8782C127.351 85.7968 126.64 85.9081 125.997 86.2003C125.354 86.4924 124.802 86.9543 124.402 87.5364C123.457 87.2883 122.452 87.4208 121.604 87.9055C120.756 88.3902 120.132 89.1884 119.866 90.1284C119.261 89.9859 118.632 89.9792 118.025 90.1087C117.417 90.2381 116.846 90.5006 116.352 90.8772C116.023 90.3075 115.497 89.8774 114.873 89.6673C114.249 89.4572 113.571 89.4814 112.963 89.7356C112.356 89.9897 111.863 90.4563 111.575 91.048C111.287 91.6398 111.224 92.3162 111.399 92.9508C111 93.062 110.647 93.2956 110.388 93.6186C110.13 93.9416 109.98 94.3377 109.959 94.7508C109.8 94.7242 109.638 94.7314 109.483 94.772C109.327 94.8125 109.182 94.8856 109.057 94.9862C108.932 95.0869 108.829 95.2129 108.756 95.356C108.684 95.4991 108.642 95.656 108.634 95.8164C108.259 95.7213 107.864 95.7377 107.498 95.8636C107.132 95.9895 106.811 96.2195 106.574 96.5253C106.337 96.8311 106.195 97.1994 106.164 97.5851C106.133 97.9707 106.216 98.357 106.402 98.6964C105.933 98.8018 105.505 99.043 105.172 99.3898C104.839 99.7367 104.616 100.174 104.53 100.647C104.444 101.12 104.499 101.608 104.688 102.05C104.878 102.492 105.193 102.868 105.595 103.132C103.32 103.794 101.851 106.012 102.715 108.028C100.123 109.597 99.0578 112.78 100.887 114.997C100.558 115.913 100.572 116.916 100.927 117.822C101.281 118.728 101.953 119.474 102.816 119.922C102.44 120.385 102.2 120.944 102.125 121.536C102.05 122.128 102.142 122.729 102.39 123.272C102.639 123.814 103.035 124.276 103.532 124.605C104.03 124.935 104.61 125.118 105.207 125.135C105.251 125.656 105.428 126.158 105.723 126.59C106.018 127.023 106.42 127.372 106.889 127.604C107.358 127.836 107.88 127.942 108.402 127.913C108.925 127.885 109.431 127.721 109.872 127.439C110.107 127.813 110.446 128.11 110.848 128.294C111.249 128.478 111.696 128.54 112.133 128.472C112.569 128.405 112.976 128.211 113.304 127.915C113.632 127.619 113.865 127.233 113.976 126.805C114.681 127.07 115.437 127.169 116.187 127.094C116.936 127.019 117.658 126.773 118.296 126.373C117.706 129.959 114.984 130.218 115.834 133.976C115.332 134.636 115.054 135.44 115.041 136.269C115.028 137.098 115.281 137.909 115.762 138.584C115.598 138.932 115.506 139.308 115.49 139.691C115.474 140.075 115.535 140.458 115.67 140.817C115.804 141.177 116.008 141.506 116.271 141.785C116.535 142.064 116.851 142.288 117.202 142.444C117.067 142.708 117.003 143.003 117.017 143.3C117.03 143.596 117.12 143.884 117.279 144.135C117.437 144.386 117.658 144.592 117.919 144.732C118.181 144.872 118.475 144.942 118.771 144.935C119.055 145.994 119.598 146.965 120.353 147.759C121.107 148.554 122.049 149.147 123.091 149.485C123.235 167.586 123.898 165.412 122.17 167.514C120.578 168.35 119.274 169.644 118.426 171.229C93.1682 179.999 82.973 200.029 79.6322 226.914C77.7026 226.612 77.6162 226.54 77.5442 226.784C76.7668 229.81 76.4944 232.943 76.7378 236.058C76.7378 236.245 76.7378 236.231 79.0418 236.792C79.6898 247.895 85.6946 259.933 97.7618 262.05C97.6034 264.383 97.4162 277.746 97.7618 280.77C97.7771 280.841 97.8162 280.904 97.8725 280.949C97.9288 280.995 97.999 281.02 98.0714 281.02C98.1437 281.02 98.2139 280.995 98.2702 280.949C98.3265 280.904 98.3656 280.841 98.381 280.77C98.381 279.157 98.5826 264.671 98.7122 262.266C106.042 262.986 110.333 259.919 116.107 253.626C125.179 243.546 130.32 232.674 135.677 221.269C136.618 219.428 137.375 217.499 137.938 215.509C138.783 215.851 139.714 215.916 140.599 215.697C141.483 215.477 142.276 214.983 142.863 214.285C144.925 214.951 147.116 215.119 149.256 214.775C149.618 214.708 149.962 214.567 150.267 214.36C150.572 214.154 150.832 213.888 151.029 213.577C151.226 213.266 151.357 212.918 151.414 212.554C151.471 212.19 151.452 211.819 151.359 211.463C153.202 211.376 154.354 209.706 152.511 208.309C151.924 207.858 151.303 207.454 150.653 207.1C152.179 206.999 156.211 206.552 157.522 205.66C158.832 204.767 158.789 202.535 156.975 202.29C156.211 202.189 144.994 202.65 142.445 203.01C139.923 203.277 137.535 204.279 135.576 205.89C132.696 208.266 112.335 225.186 105.063 231.292C100.843 230.528 85.0322 227.821 80.8274 227.159C84.3122 198.114 96.149 180.748 118.037 172.568C116.698 178.04 123.178 183.656 125.237 185.327C128.621 188.106 134.151 191.087 138.888 189.791C141.898 188.984 144.144 186.666 145.584 182.879C151.978 188.423 154.987 187.804 155.995 187.285C159.869 185.255 159.711 175.376 156.485 170.624C163.396 171.695 170.012 174.179 175.919 177.923C181.826 181.667 186.897 186.59 190.815 192.383C184.205 192.527 184.608 192.527 184.551 192.7C182.989 196.912 181.472 201.141 180 205.386C179.424 201.8 178.56 196.919 178.186 195.508C178.154 195.431 178.095 195.368 178.02 195.331C177.946 195.294 177.86 195.285 177.779 195.306C177.699 195.327 177.628 195.376 177.581 195.445C177.534 195.514 177.514 195.598 177.523 195.68C177.941 197.437 178.805 204.104 179.28 207.474C173.434 224.394 168.855 239.644 168.97 239.802C169.085 239.96 183.37 239.96 185.213 239.932C186.653 251.97 187.747 277.069 187.704 280.05C187.704 280.134 187.738 280.215 187.797 280.274C187.856 280.333 187.937 280.367 188.021 280.367C188.105 280.367 188.186 280.333 188.245 280.274C188.304 280.215 188.338 280.134 188.338 280.05C188.597 274.751 188.338 258.824 188.093 255.383C191.498 254.818 194.619 253.136 196.963 250.602C198.72 248.802 201.283 243.474 203.055 239.183C205.848 238.996 205.935 239.039 205.935 238.852C207.576 235.036 209.203 230.543 210.571 226.165C217.368 225.143 220.81 215.61 218.059 211.29C217.442 210.309 216.634 209.461 215.683 208.799ZM98.2802 239.413C99.2018 239.255 98.1794 237.973 132.941 209.404C138.701 204.695 139.147 204.248 146.131 203.773C148.723 203.6 155.448 203.356 156.211 203.341C156.802 203.341 157.32 203.341 157.277 203.874C157.277 204.796 155.837 205.069 154.843 205.314C151.863 206.035 148.809 206.412 145.743 206.437C145.651 206.437 145.563 206.474 145.498 206.538C145.433 206.603 145.397 206.691 145.397 206.783C145.397 206.874 145.433 206.962 145.498 207.027C145.563 207.092 145.651 207.128 145.743 207.128H148.738C149.656 207.573 150.533 208.098 151.359 208.698C151.704 208.943 152.323 209.173 152.367 209.504C152.597 211.42 147.759 209.648 146.059 208.828C146 208.797 145.931 208.791 145.868 208.812C145.804 208.832 145.752 208.876 145.721 208.936C145.69 208.995 145.685 209.064 145.705 209.127C145.725 209.191 145.77 209.243 145.829 209.274C147.053 210.037 151.287 211.52 150.307 212.96C149.055 214.775 145.771 213.997 143.597 213.565C144.051 213.198 144.597 212.962 145.176 212.883C145.755 212.805 146.344 212.886 146.88 213.119C146.953 213.137 147.031 213.129 147.098 213.095C147.166 213.062 147.219 213.005 147.249 212.935C147.278 212.866 147.282 212.788 147.259 212.716C147.237 212.644 147.189 212.583 147.125 212.543C146.24 212.171 145.262 212.083 144.325 212.292C143.389 212.501 142.54 212.996 141.898 213.709C140.184 215.351 138.053 214.962 136.397 213.292C136.338 213.239 136.262 213.21 136.183 213.208C136.104 213.207 136.027 213.234 135.966 213.285C135.905 213.335 135.864 213.406 135.851 213.483C135.838 213.561 135.853 213.641 135.893 213.709C136.224 214.218 136.655 214.654 137.16 214.991C134.595 221.301 131.711 227.477 128.52 233.495C122.76 244.295 116.914 251.927 110.347 257.485C103.234 263.605 92.7794 261.359 86.7746 254.36C83.1746 250.199 80.9138 244.367 80.0786 237.08C83.0738 237.599 95.0402 239.312 98.2802 239.413ZM123.25 119.288C122.007 120.161 121.047 121.377 120.485 122.788C119.923 122.291 119.488 121.668 119.218 120.968C118.947 120.269 118.848 119.515 118.93 118.77C120.211 113.01 126.13 107.97 131.04 106.487C134.064 105.263 141.754 106.631 144.231 110.332C143.423 110.258 142.616 110.489 141.97 110.98C141.582 110.476 141.086 110.066 140.518 109.781C139.95 109.496 139.325 109.342 138.689 109.333C138.054 109.323 137.424 109.457 136.848 109.725C136.271 109.992 135.763 110.387 135.36 110.879C134.572 111.108 133.861 111.546 133.301 112.146C132.771 111.862 132.17 111.74 131.571 111.793C130.972 111.847 130.402 112.075 129.931 112.448C129.43 112.585 128.989 112.886 128.68 113.304C128.372 113.723 128.214 114.233 128.232 114.752C127.6 114.69 126.962 114.761 126.359 114.961C125.756 115.16 125.202 115.485 124.732 115.912C124.262 116.34 123.888 116.861 123.632 117.443C123.377 118.024 123.247 118.653 123.25 119.288ZM150.48 179.12C143.755 186.09 123.552 177.968 122.242 171.488C122.138 170.792 122.2 170.081 122.423 169.413C122.645 168.745 123.023 168.139 123.523 167.644C123.667 167.5 123.768 167.341 123.912 167.197C123.929 167.156 123.929 167.109 123.912 167.068L124.186 166.722C124.546 166.045 124.099 151.717 124.027 149.658C124.569 149.665 125.1 149.5 125.542 149.187C125.984 148.874 126.316 148.429 126.49 147.916C126.796 148.082 127.146 148.155 127.493 148.124C127.841 148.093 128.172 147.96 128.445 147.741C128.717 147.523 128.919 147.229 129.024 146.896C129.13 146.563 129.135 146.206 129.039 145.871L132.581 142.069C132.576 142.542 132.707 143.006 132.957 143.407C133.208 143.808 133.568 144.129 133.995 144.332C134.422 144.535 134.898 144.611 135.367 144.552C135.836 144.493 136.278 144.301 136.642 143.999C137.014 143.728 137.322 143.379 137.543 142.976C137.765 142.572 137.895 142.125 137.923 141.666C137.929 141.616 137.917 141.566 137.89 141.525C137.863 141.483 137.822 141.451 137.775 141.436C137.727 141.421 137.676 141.423 137.63 141.441C137.583 141.459 137.544 141.493 137.52 141.536C137.281 141.895 136.927 142.162 136.516 142.292C136.105 142.423 135.662 142.411 135.259 142.256C135.4 141.659 135.373 141.035 135.179 140.453C134.986 139.87 134.635 139.353 134.165 138.959C132.005 132.047 132.207 129.311 136.08 126.719C138.96 124.544 149.04 119.706 155.823 125.884C156.289 126.425 156.844 126.883 157.464 127.237C159.221 151.156 160.344 151.472 153.778 158.413C151.766 160.453 149.088 161.7 146.232 161.927C145.728 161.927 145.671 162.661 146.232 162.719C146.963 162.819 147.704 162.819 148.435 162.719C148.435 167.6 148.219 167.226 149.616 167.716C154.383 169.919 153.965 175.477 150.48 179.12ZM192.831 252.301C191.318 253.14 189.701 253.775 188.021 254.188C187.805 251.768 186.927 244.108 186.351 239.788C191.592 239.672 196.863 239.456 201.888 239.14C199.786 244.381 196.603 250.458 192.831 252.301ZM202.349 204.781C199.181 204.695 199.181 200.778 202.349 200.692C205.517 200.605 205.517 204.767 202.349 204.853V204.781ZM189.519 197.365C188.846 197.767 188.302 198.351 187.949 199.05C187.517 199.871 175.147 233.524 174.557 235.439C174.526 235.542 174.456 235.629 174.362 235.68C174.267 235.731 174.156 235.743 174.053 235.712C173.95 235.682 173.863 235.612 173.812 235.517C173.76 235.423 173.749 235.312 173.779 235.208C174.514 232.487 185.184 201.93 185.299 201.743C187.848 195.378 188.842 195.479 193.709 195.32C195.941 195.248 212.184 195.176 214.531 195.565C215.05 195.652 214.935 196.386 214.531 196.429C213.25 196.588 190.527 196.933 189.519 197.437V197.365ZM211.003 224.725C211.551 222.882 212.055 221.082 212.443 219.368C213.084 219.628 213.75 219.821 214.431 219.944C214.505 219.962 214.583 219.949 214.648 219.908C214.713 219.867 214.759 219.803 214.776 219.728C214.793 219.654 214.78 219.576 214.74 219.511C214.699 219.446 214.635 219.4 214.56 219.383C212.99 218.769 211.531 217.903 210.24 216.82C209.362 215.826 208.959 215.092 209.981 214.372C211.939 215.912 214.488 217.252 215.424 217.928C215.484 217.958 215.552 217.966 215.616 217.951C215.681 217.936 215.739 217.899 215.78 217.847C215.82 217.794 215.841 217.729 215.84 217.663C215.838 217.596 215.813 217.532 215.77 217.482C214.719 216.532 211.162 214.141 209.304 212.284C209.275 211.99 209.336 211.694 209.481 211.437C209.625 211.179 209.845 210.972 210.111 210.844C211.781 212.301 213.607 213.571 215.554 214.631C215.617 214.669 215.693 214.682 215.765 214.666C215.838 214.65 215.901 214.606 215.943 214.544C216.159 214.271 215.943 214.17 214.503 212.975C213.423 212.082 211.911 210.829 210.802 209.735C209.232 208.295 212.242 208.554 214.992 209.735C215.95 210.282 216.73 211.092 217.241 212.07C217.751 213.048 217.971 214.151 217.872 215.25C217.656 219.412 215.093 223.732 211.003 224.869V224.725ZM92.9954 17.3508C92.4171 17.4352 91.8273 17.3182 91.325 17.0196C90.9933 16.1761 90.4314 15.4427 89.7033 14.9029C88.9752 14.3632 88.1101 14.0388 87.2066 13.9668C85.0034 14.1108 84.5714 17.2212 82.8866 17.4516C81.8786 17.5956 80.6402 16.5588 79.2002 14.3988C79.1825 14.3623 79.1549 14.3315 79.1205 14.3099C79.0861 14.2884 79.0463 14.2769 79.0058 14.2769C78.9652 14.2769 78.9254 14.2884 78.891 14.3099C78.8567 14.3315 78.8291 14.3623 78.8114 14.3988C78.6525 14.9393 78.6051 15.5065 78.6719 16.0659C78.7387 16.6253 78.9184 17.1653 79.2002 17.6532C78.9669 17.6424 78.746 17.5449 78.581 17.3796C78.0914 16.9044 77.8466 18.6612 79.0274 19.8708C78.6649 19.8515 78.3111 19.7532 77.9906 19.5828C77.2706 19.0212 77.573 21.9876 79.9346 23.3412C79.2666 23.2989 78.614 23.1229 78.0153 22.8236C77.4167 22.5243 76.8843 22.1078 76.4498 21.5988C76.4214 21.5595 76.3807 21.5309 76.3342 21.5175C76.2876 21.5042 76.2379 21.5068 76.1931 21.5251C76.1482 21.5434 76.1108 21.5762 76.0869 21.6183C76.0629 21.6604 76.0538 21.7093 76.061 21.7572C76.3169 23.8936 77.3043 25.8755 78.8557 27.3664C80.407 28.8574 82.4265 29.7654 84.5714 29.9364C89.3378 29.9364 92.3474 24.81 91.2386 20.8788C91.5198 20.7904 91.8214 20.7904 92.1026 20.8788C92.1442 20.91 92.1956 20.9251 92.2475 20.9215C92.2993 20.9178 92.3481 20.8955 92.3849 20.8587C92.4217 20.822 92.4439 20.7732 92.4476 20.7213C92.4513 20.6694 92.4362 20.618 92.405 20.5764C92.2577 20.3415 92.1594 20.0794 92.1159 19.8056C92.0724 19.5318 92.0847 19.2521 92.1519 18.9831C92.2191 18.7142 92.34 18.4616 92.5072 18.2405C92.6744 18.0194 92.8845 17.8343 93.125 17.6964C93.1479 17.6672 93.1629 17.6327 93.1685 17.596C93.1742 17.5594 93.1703 17.5219 93.1573 17.4872C93.1443 17.4524 93.1226 17.4217 93.0942 17.3978C93.0658 17.3739 93.0318 17.3577 92.9954 17.3508ZM88.5602 18.4596C88.275 18.4278 88.0116 18.2919 87.8202 18.0781C87.6289 17.8642 87.5232 17.5873 87.5232 17.3004C87.5232 17.0135 87.6289 16.7366 87.8202 16.5227C88.0116 16.3089 88.275 16.173 88.5602 16.1412C88.8453 16.173 89.1088 16.3089 89.3001 16.5227C89.4914 16.7366 89.5972 17.0135 89.5972 17.3004C89.5972 17.5873 89.4914 17.8642 89.3001 18.0781C89.1088 18.2919 88.8453 18.4278 88.5602 18.4596ZM49.781 162.042C45.0892 161.78 40.3829 162.017 35.741 162.748C35.6926 162.755 35.6485 162.779 35.6167 162.816C35.5849 162.853 35.5677 162.9 35.5682 162.949C35.5564 165.456 35.8957 167.952 36.5762 170.365C36.59 170.405 36.6151 170.439 36.6483 170.465C36.6816 170.491 36.7216 170.506 36.7634 170.509C40.9302 170.84 45.1204 170.724 49.2626 170.164C50.0834 170.048 50.6738 162.1 49.781 162.042ZM45.9074 166.751C45.8121 167.22 45.5806 167.651 45.2417 167.989C44.9028 168.327 44.4716 168.558 44.0022 168.653C43.5328 168.747 43.0459 168.701 42.6026 168.52C42.1593 168.339 41.7792 168.031 41.51 167.635C41.2407 167.239 41.0943 166.773 41.0889 166.294C41.0836 165.815 41.2196 165.345 41.48 164.943C41.7404 164.542 42.1135 164.225 42.5527 164.035C42.9919 163.844 43.4776 163.787 43.949 163.871C44.2685 163.928 44.5733 164.048 44.8457 164.224C45.118 164.401 45.3523 164.63 45.5348 164.898C45.7173 165.167 45.8442 165.469 45.9082 165.787C45.9722 166.105 45.9719 166.433 45.9074 166.751ZM46.7426 160.386C46.9941 160.432 47.2522 160.429 47.5023 160.375C47.7524 160.322 47.9895 160.22 48.2001 160.075C48.4108 159.929 48.5907 159.744 48.7298 159.53C48.8688 159.315 48.9642 159.075 49.0106 158.824C49.0569 158.572 49.0532 158.314 48.9998 158.064C48.9463 157.814 48.8442 157.577 48.6991 157.366C48.554 157.155 48.3689 156.975 48.1542 156.836C47.9396 156.697 47.6997 156.602 47.4482 156.556C46.9402 156.462 46.4159 156.574 45.9906 156.867C45.5653 157.16 45.2737 157.61 45.1802 158.118C45.0866 158.626 45.1986 159.15 45.4916 159.576C45.7847 160.001 46.2346 160.292 46.7426 160.386Z" fill="black"/>
<path d="M54.3456 155.635C47.1456 145.209 30.7584 148.896 28.7712 161.15C28.369 163.203 28.4333 165.319 28.9595 167.344C29.4856 169.368 30.4602 171.248 31.811 172.845C33.1618 174.442 34.8543 175.715 36.7633 176.569C38.6724 177.424 40.7492 177.838 42.84 177.782C54.8208 177.782 60.48 164.563 54.3456 155.635ZM51.3216 171.475C51.3129 171.516 51.2916 171.553 51.2606 171.582C51.2296 171.61 51.1905 171.628 51.1488 171.633C45.7988 172.351 40.3879 172.5 35.0064 172.08C34.9635 172.073 34.9231 172.055 34.89 172.027C34.8569 171.999 34.8323 171.963 34.8192 171.921C33.3889 166.622 33.1236 161.075 34.0416 155.664C34.0481 155.618 34.0703 155.575 34.1045 155.544C34.1386 155.512 34.1825 155.494 34.2288 155.491C40.0219 154.826 45.8754 154.889 51.6528 155.678C51.6957 155.686 51.7351 155.707 51.766 155.738C51.7968 155.768 51.8176 155.808 51.8256 155.851C52.7276 161.043 52.5561 166.366 51.3216 171.489V171.475Z" fill="black"/>
</svg>
