<svg width="77" height="75" viewBox="0 0 77 75" fill="none" xmlns="http://www.w3.org/2000/svg">
<path d="M13.8618 20.8065L19.2294 23.4573C20.2174 23.8835 21.2926 24.0756 22.369 24.0181C23.4455 23.9606 24.4934 23.655 25.4289 23.1259L30.5014 19.8655C31.3742 19.2398 32.0846 18.4187 32.5744 17.4696C33.0642 16.5205 33.3195 15.4702 33.3193 14.4049L32.9974 8.42737C32.8798 7.37063 32.5127 6.35578 31.9253 5.46485C31.3378 4.57392 30.5468 3.8317 29.6156 3.2981L24.2481 0.581048C23.2621 0.149766 22.1869 -0.0461261 21.1099 0.00914268C20.0329 0.0644115 18.9841 0.36925 18.0485 0.899142L12.9763 4.15961C12.105 4.78691 11.3957 5.60826 10.9062 6.5571C10.4165 7.50582 10.1602 8.5554 10.1582 9.62021L10.4803 15.5977C10.5845 16.6689 10.9456 17.7001 11.5336 18.6058C12.1217 19.5117 12.9198 20.2661 13.8618 20.8065Z" fill="white"/>
<path d="M46.2418 28.5473L40.8743 25.8302C39.8887 25.4041 38.8157 25.2122 37.7414 25.2697C36.667 25.3273 35.6214 25.6328 34.6881 26.1616L29.5621 29.4221C28.694 30.0523 27.987 30.8743 27.4977 31.8225C27.0085 32.7705 26.7503 33.8185 26.7441 34.8827L27.0663 40.8602C27.1837 41.917 27.5509 42.9319 28.1382 43.8228C28.7257 44.7138 29.5168 45.456 30.4478 45.9894L35.8153 48.6402C36.7992 49.0714 37.8721 49.2674 38.947 49.2121C40.0219 49.1569 41.0683 48.8519 42.0015 48.3221L47.0872 45.0617C47.9557 44.4287 48.6626 43.6043 49.1517 42.654C49.641 41.7038 49.899 40.6538 49.9052 39.5878L49.5832 33.6235C49.4601 32.5803 49.0944 31.5793 48.5149 30.6987C47.9352 29.8181 47.1573 29.0818 46.2418 28.5473Z" fill="white"/>
<path d="M62.8002 53.7574L57.4326 51.1066C56.4465 50.6752 55.3715 50.4793 54.2945 50.5345C53.2175 50.5898 52.1687 50.8946 51.2331 51.4247L46.1609 54.6851C45.2911 55.3138 44.583 56.1355 44.0936 57.0839C43.604 58.0324 43.3469 59.0812 43.3428 60.1457L43.665 66.1233C43.7934 67.163 44.1629 68.1596 44.7448 69.0353C45.3265 69.9111 46.1051 70.6426 47.0197 71.173L52.3873 73.8238C53.3752 74.2499 54.4503 74.4419 55.5268 74.3844C56.6032 74.3269 57.6511 74.0214 58.5868 73.4924L63.6725 70.232C64.5413 69.6032 65.248 68.7812 65.7352 67.8325C66.2225 66.8838 66.4766 65.8351 66.4771 64.7714L66.1952 58.8999C66.0794 57.8392 65.7116 56.8205 65.1216 55.9268C64.5317 55.0332 63.7362 54.2898 62.8002 53.7574Z" fill="white"/>
<path d="M23.255 38.91L23 34.2578C23.0062 33.1937 23.2643 32.1457 23.7536 31.1976C24.2429 30.2494 24.9498 29.4274 25.818 28.7972L35.7078 22.4486C36.6409 21.9198 37.6867 21.6143 38.761 21.5567C39.8353 21.4992 40.9083 21.6913 41.8939 22.1172L46.1074 24.2379C47.0936 24.6691 48.1686 24.8652 49.2456 24.8099C50.3227 24.7546 51.3714 24.4497 52.307 23.9198L57.3793 20.6461C58.2498 20.0181 58.9585 19.1966 59.448 18.2479C59.9375 17.2993 60.1942 16.2503 60.1973 15.1855L59.8752 9.22119C59.7598 8.16207 59.3935 7.14457 58.806 6.25126C58.2185 5.35781 57.4264 4.6136 56.4937 4.07867L51.1261 1.36162C50.1382 0.93551 49.0631 0.743461 47.9865 0.800983C46.91 0.858505 45.8621 1.16401 44.9266 1.69297L39.7469 4.90042C38.878 5.52918 38.1713 6.35119 37.6841 7.2999C37.1969 8.24862 36.9427 9.29727 36.9423 10.361L37.1838 15.0131C37.1834 16.077 36.9292 17.1257 36.4419 18.0744C35.9547 19.0231 35.248 19.8451 34.3793 20.4738L24.4895 26.8224C23.554 27.3523 22.5053 27.6572 21.4283 27.7125C20.3511 27.7678 19.2762 27.5718 18.29 27.1405L14.0899 25.0331C13.1037 24.6018 12.0287 24.4059 10.9516 24.4612C9.87459 24.5165 8.82589 24.8213 7.89033 25.3512L2.81797 28.6117C1.94668 29.239 1.23749 30.0603 0.747838 31.0092C0.258181 31.958 0.00201284 33.0075 0 34.0723L0.322051 40.0498C0.436381 41.1093 0.802315 42.1272 1.3898 43.0208C1.97741 43.9144 2.77007 44.6583 3.70362 45.1923L9.07119 47.8431C10.0591 48.2693 11.1342 48.4614 12.2107 48.4039C13.2872 48.3463 14.3352 48.0408 15.2707 47.5117L20.3431 44.2513C21.2148 43.6452 21.9315 42.847 22.437 41.9199C22.9423 40.9929 23.2224 39.9624 23.255 38.91Z" fill="white"/>
<path d="M76.3812 34.4328C76.2616 33.3747 75.8937 32.3589 75.3066 31.4662C74.7195 30.5734 73.9295 29.8282 72.9996 29.2903L67.632 26.6395C66.6438 26.2143 65.5687 26.0228 64.4925 26.0803C63.4162 26.1378 62.3683 26.4428 61.4325 26.9708L56.36 30.2313C55.4903 30.8601 54.7823 31.6817 54.2928 32.6301C53.8034 33.5786 53.5462 34.6273 53.5421 35.6919L53.7971 40.3573C53.7929 41.4217 53.5358 42.4705 53.0463 43.4189C52.5569 44.3674 51.8488 45.1891 50.979 45.8179L41.1027 52.1533C40.1671 52.6822 39.1192 52.9877 38.0427 53.0452C36.9663 53.1028 35.8911 52.9107 34.9031 52.4846L30.6896 50.364C29.7039 49.9379 28.631 49.7458 27.5566 49.8033C26.4823 49.861 25.4367 50.1664 24.5034 50.6953L19.3774 53.9425C18.5093 54.5728 17.8024 55.3946 17.313 56.3428C16.8238 57.2909 16.5657 58.3389 16.5596 59.4031L16.8815 65.3805C16.999 66.4374 17.3662 67.4522 17.9535 68.3432C18.541 69.2341 19.3321 69.9763 20.2632 70.5099L25.6308 73.227C26.6145 73.6581 27.6874 73.854 28.7622 73.7987C29.8372 73.7435 30.8836 73.4385 31.8169 72.9087L36.9025 69.6483C37.7699 69.0174 38.4764 68.1953 38.9656 67.2473C39.4548 66.2993 39.7133 65.2517 39.7206 64.1878L39.4657 59.5223C39.4686 58.4576 39.7253 57.4086 40.2149 56.46C40.7044 55.5113 41.413 54.6898 42.2835 54.0617L52.1599 47.7132C53.0954 47.1833 54.1442 46.8783 55.2212 46.8231C56.2983 46.7678 57.3732 46.9637 58.3594 47.395L62.5595 49.5025C63.5457 49.9338 64.6208 50.1296 65.6978 50.0744C66.7748 50.0191 67.8235 49.7143 68.7591 49.1844L73.845 45.9239C74.7129 45.2944 75.419 44.4722 75.9061 43.5238C76.3934 42.5752 76.6479 41.5268 76.6494 40.4633L76.3812 34.4328Z" fill="white"/>
</svg>
